<?xml version="1.0" encoding="UTF-8" standalone="no"?>
<!-- Created with Inkscape (http://www.inkscape.org/) -->

<svg
   xmlns:dc="http://purl.org/dc/elements/1.1/"
   xmlns:cc="http://creativecommons.org/ns#"
   xmlns:rdf="http://www.w3.org/1999/02/22-rdf-syntax-ns#"
   xmlns:svg="http://www.w3.org/2000/svg"
   xmlns="http://www.w3.org/2000/svg"
   version="1.1"
   width="892.91339"
   height="265.03937"
   id="svg5254">
  <defs
     id="defs5256">
    <clipPath
       id="clipPath4990">
      <path
         d="m 354.876,644.207 176.124,0 0,51.293 -176.124,0 0,-51.293 z"
         id="path4992" />
    </clipPath>
  </defs>
  <metadata
     id="metadata5259">
    <rdf:RDF>
      <cc:Work
         rdf:about="">
        <dc:format>image/svg+xml</dc:format>
        <dc:type
           rdf:resource="http://purl.org/dc/dcmitype/StillImage" />
        <dc:title></dc:title>
      </cc:Work>
    </rdf:RDF>
  </metadata>
  <g
     transform="translate(30.081916,-365.09774)"
     id="layer1">
    <g
       transform="matrix(5.0295917,0,0,-5.0295917,-1811.425,3866.7083)"
       id="g4986">
      <g
         clip-path="url(#clipPath4990)"
         id="g4988">
        <g
           transform="translate(449.9698,647.4296)"
           id="g4994">
          <path
             d="M 0,0 C 0,-0.963 0,-1.759 -0.049,-2.177 -0.092,-2.469 -0.141,-2.692 -0.341,-2.731 L -0.642,-2.77 -0.724,-2.833 c 0,-0.059 0.053,-0.078 0.161,-0.078 0.301,0 0.936,0.03 0.946,0.03 0.049,0 0.681,-0.03 1.235,-0.03 0.111,0 0.161,0.03 0.161,0.078 L 1.696,-2.77 c -0.088,0 -0.311,0.019 -0.451,0.039 -0.302,0.039 -0.361,0.262 -0.39,0.554 C 0.806,-1.759 0.806,-0.963 0.806,0 l 0,0.243 0.069,0.078 1.234,-0.02 0.131,-0.058 c 0.2,-0.262 0.674,-0.937 1.094,-1.487 0.573,-0.753 0.923,-1.244 1.355,-1.477 0.263,-0.141 0.515,-0.19 1.074,-0.19 l 0.714,0 c 0.181,0 0.243,0.019 0.243,0.078 L 6.628,-2.77 c -0.059,0 -0.2,0 -0.39,0.029 C 5.986,-2.702 5.554,-2.59 5.01,-2.017 4.431,-1.395 3.746,-0.501 2.924,0.554 3.828,1.385 4.139,2.129 4.139,2.872 4.139,3.566 3.697,4.058 3.445,4.238 2.914,4.621 2.24,4.68 1.608,4.68 1.297,4.68 0.534,4.65 0.422,4.65 c -0.049,0 -0.684,0.03 -1.136,0.03 -0.108,0 -0.161,-0.02 -0.161,-0.079 L -0.792,4.539 -0.452,4.51 C -0.121,4.441 -0.039,4.277 -0.02,3.937 0,3.616 0,3.334 0,1.769 L 0,0 z M 0.806,4.179 0.884,4.3 c 0.102,0.03 0.37,0.059 0.671,0.059 1.078,0 1.739,-0.753 1.739,-2.008 C 3.294,1.588 3.032,1.045 2.682,0.802 2.449,0.642 2.171,0.612 1.929,0.612 1.486,0.612 1.025,0.685 0.875,0.773 l -0.069,0.121 0,3.285 z"
             id="path4996"
             style="fill:#edad09;fill-opacity:1;fill-rule:evenodd;stroke:none" />
        </g>
        <g
           transform="translate(449.9698,647.4296)"
           id="g4998">
          <path
             d="M 0,0 C 0,-0.963 0,-1.759 -0.049,-2.177 -0.092,-2.469 -0.141,-2.692 -0.341,-2.731 L -0.642,-2.77 -0.724,-2.833 c 0,-0.059 0.053,-0.078 0.161,-0.078 0.301,0 0.936,0.03 0.946,0.03 0.049,0 0.681,-0.03 1.235,-0.03 0.111,0 0.161,0.03 0.161,0.078 L 1.696,-2.77 c -0.088,0 -0.311,0.019 -0.451,0.039 -0.302,0.039 -0.361,0.262 -0.39,0.554 C 0.806,-1.759 0.806,-0.963 0.806,0 l 0,0.243 0.069,0.078 1.234,-0.02 0.131,-0.058 c 0.2,-0.262 0.674,-0.937 1.094,-1.487 0.573,-0.753 0.923,-1.244 1.355,-1.477 0.263,-0.141 0.515,-0.19 1.074,-0.19 l 0.714,0 c 0.181,0 0.243,0.019 0.243,0.078 L 6.628,-2.77 c -0.059,0 -0.2,0 -0.39,0.029 C 5.986,-2.702 5.554,-2.59 5.01,-2.017 4.431,-1.395 3.746,-0.501 2.924,0.554 3.828,1.385 4.139,2.129 4.139,2.872 4.139,3.566 3.697,4.058 3.445,4.238 2.914,4.621 2.24,4.68 1.608,4.68 1.297,4.68 0.534,4.65 0.422,4.65 c -0.049,0 -0.684,0.03 -1.136,0.03 -0.108,0 -0.161,-0.02 -0.161,-0.079 L -0.792,4.539 -0.452,4.51 C -0.121,4.441 -0.039,4.277 -0.02,3.937 0,3.616 0,3.334 0,1.769 L 0,0 z M 0.806,4.179 0.884,4.3 c 0.102,0.03 0.37,0.059 0.671,0.059 1.078,0 1.739,-0.753 1.739,-2.008 C 3.294,1.588 3.032,1.045 2.682,0.802 2.449,0.642 2.171,0.612 1.929,0.612 1.486,0.612 1.025,0.685 0.875,0.773 l -0.069,0.121 0,3.285 z"
             id="path5000"
             style="fill:none;stroke:#edad09;stroke-width:0.34;stroke-linecap:butt;stroke-linejoin:miter;stroke-miterlimit:4;stroke-opacity:1;stroke-dasharray:none" />
        </g>
        <g
           transform="translate(446.5543,684.7065)"
           id="g5002">
          <path
             d="m 0,0 c 0,0 0.311,0.301 1.087,0.373 0.891,0.082 1.376,0.462 1.707,0.878 0.33,0.413 0.317,0.854 0.684,1.208 0.373,0.36 0.697,0.586 1.146,0.636 0.455,0.049 0.802,-0.017 1.163,0.193 0.36,0.209 0.373,0.213 0.373,0.213 0,0 -0.262,-0.089 -0.596,-0.115 C 5.233,3.357 4.722,3.494 4.418,3.494 4.113,3.494 3.465,3.357 3.091,3.013 2.718,2.666 2.358,2.112 1.984,1.961 1.611,1.811 1.094,1.664 0.826,1.745 0.347,1.893 0.161,2.001 -0.255,1.948 -0.668,1.893 -0.786,1.821 -0.786,1.821 l 4.29,5.508 -5.741,-4.117 c 0,0 0.007,0.256 0.174,0.616 0.164,0.357 0.753,0.734 0.841,1.333 0.076,0.511 0.118,0.828 -0.166,1.415 -0.246,0.52 -0.22,0.956 -0.158,1.28 0.069,0.367 0.299,0.747 0.505,0.946 0.353,0.341 0.435,0.541 0.504,0.796 l 0.062,0.249 c 0,0 -0.013,-0.105 -0.275,-0.436 C -1.032,9.058 -1.195,9.149 -1.539,8.829 -1.886,8.511 -2.131,8.118 -2.243,7.656 -2.374,7.116 -2.129,6.906 -2.201,6.356 -2.273,5.839 -2.322,5.734 -2.603,5.347 -2.846,5.017 -3.022,4.945 -3.389,4.751 -3.681,4.601 -3.926,4.395 -4.084,4.021 l -1.077,6.736 -1.022,-6.791 c 0,0 -0.373,0.579 -0.386,0.772 -0.02,0.249 -0.036,1.065 -0.498,1.543 C -7.453,6.68 -7.669,6.792 -8.311,7.034 -8.688,7.175 -9.12,7.62 -9.307,8.013 -9.493,8.41 -9.458,9.133 -9.513,9.3 c -0.056,0.167 -0.305,0.56 -0.305,0.56 0,0 0.138,-0.34 0.125,-0.671 C -9.707,8.858 -9.874,8.278 -9.831,8.043 -9.788,7.807 -9.762,7.322 -9.251,6.854 -8.74,6.382 -8.53,6.438 -8.213,5.816 -7.895,5.194 -7.951,4.876 -8.062,4.532 -8.174,4.185 -8.298,3.854 -8.187,3.563 -8.075,3.275 -8.079,3.212 -8.079,3.212 l -5.737,4.117 4.247,-5.505 c 0,0 -0.547,0.049 -0.842,0.311 -0.409,0.357 -0.684,0.537 -1.162,0.668 0,0 -0.449,0.161 -1.097,-0.033 -0.652,-0.193 -0.527,-0.242 -0.969,-0.311 -0.443,-0.069 -1.153,0.04 -1.5,0.331 -0.344,0.291 -0.629,0.547 -0.878,0.629 -0.249,0.082 -0.448,0.105 -0.448,0.105 0,0 0.399,-0.141 0.704,-0.485 0.311,-0.354 0.386,-0.681 0.828,-0.927 0.465,-0.255 0.858,-0.357 1.274,-0.331 0.413,0.03 0.426,0.128 0.979,0.063 0.298,-0.033 0.878,-0.262 1.025,-0.436 0.39,-0.465 0.629,-0.917 0.815,-1.09 C -10.604,0.095 -10.315,0 -10.315,0 l -7.064,-1.176 c 0,0 6.67,0.442 7.542,0.485 0.871,0.039 3.255,0.226 4.705,0.206 1.451,-0.023 2.322,-0.085 3.295,-0.144 0.976,-0.062 9.061,-0.576 9.061,-0.576 L 0,0 z"
             id="path5004"
             style="fill:#edad09;fill-opacity:1;fill-rule:nonzero;stroke:none" />
        </g>
        <g
           transform="translate(446.5543,684.7065)"
           id="g5006">
          <path
             d="m 0,0 c 0,0 0.311,0.301 1.087,0.373 0.891,0.082 1.376,0.462 1.707,0.878 0.33,0.413 0.317,0.854 0.684,1.208 0.373,0.36 0.697,0.586 1.146,0.636 0.455,0.049 0.802,-0.017 1.163,0.193 0.36,0.209 0.373,0.213 0.373,0.213 0,0 -0.262,-0.089 -0.596,-0.115 C 5.233,3.357 4.722,3.494 4.418,3.494 4.113,3.494 3.465,3.357 3.091,3.013 2.718,2.666 2.358,2.112 1.984,1.961 1.611,1.811 1.094,1.664 0.826,1.745 0.347,1.893 0.161,2.001 -0.255,1.948 -0.668,1.893 -0.786,1.821 -0.786,1.821 l 4.29,5.508 -5.741,-4.117 c 0,0 0.007,0.256 0.174,0.616 0.164,0.357 0.753,0.734 0.841,1.333 0.076,0.511 0.118,0.828 -0.166,1.415 -0.246,0.52 -0.22,0.956 -0.158,1.28 0.069,0.367 0.299,0.747 0.505,0.946 0.353,0.341 0.435,0.541 0.504,0.796 l 0.062,0.249 c 0,0 -0.013,-0.105 -0.275,-0.436 C -1.032,9.058 -1.195,9.149 -1.539,8.829 -1.886,8.511 -2.131,8.118 -2.243,7.656 -2.374,7.116 -2.129,6.906 -2.201,6.356 -2.273,5.839 -2.322,5.734 -2.603,5.347 -2.846,5.017 -3.022,4.945 -3.389,4.751 -3.681,4.601 -3.926,4.395 -4.084,4.021 l -1.077,6.736 -1.022,-6.791 c 0,0 -0.373,0.579 -0.386,0.772 -0.02,0.249 -0.036,1.065 -0.498,1.543 C -7.453,6.68 -7.669,6.792 -8.311,7.034 -8.688,7.175 -9.12,7.62 -9.307,8.013 -9.493,8.41 -9.458,9.133 -9.513,9.3 c -0.056,0.167 -0.305,0.56 -0.305,0.56 0,0 0.138,-0.34 0.125,-0.671 C -9.707,8.858 -9.874,8.278 -9.831,8.043 -9.788,7.807 -9.762,7.322 -9.251,6.854 -8.74,6.382 -8.53,6.438 -8.213,5.816 -7.895,5.194 -7.951,4.876 -8.062,4.532 -8.174,4.185 -8.298,3.854 -8.187,3.563 -8.075,3.275 -8.079,3.212 -8.079,3.212 l -5.737,4.117 4.247,-5.505 c 0,0 -0.547,0.049 -0.842,0.311 -0.409,0.357 -0.684,0.537 -1.162,0.668 0,0 -0.449,0.161 -1.097,-0.033 -0.652,-0.193 -0.527,-0.242 -0.969,-0.311 -0.443,-0.069 -1.153,0.04 -1.5,0.331 -0.344,0.291 -0.629,0.547 -0.878,0.629 -0.249,0.082 -0.448,0.105 -0.448,0.105 0,0 0.399,-0.141 0.704,-0.485 0.311,-0.354 0.386,-0.681 0.828,-0.927 0.465,-0.255 0.858,-0.357 1.274,-0.331 0.413,0.03 0.426,0.128 0.979,0.063 0.298,-0.033 0.878,-0.262 1.025,-0.436 0.39,-0.465 0.629,-0.917 0.815,-1.09 C -10.604,0.095 -10.315,0 -10.315,0 l -7.064,-1.176 c 0,0 6.67,0.442 7.542,0.485 0.871,0.039 3.255,0.226 4.705,0.206 1.451,-0.023 2.322,-0.085 3.295,-0.144 0.976,-0.062 9.061,-0.576 9.061,-0.576 L 0,0 z"
             id="path5008"
             style="fill:none;stroke:#edad09;stroke-width:0.454;stroke-linecap:butt;stroke-linejoin:miter;stroke-miterlimit:3.86400008;stroke-opacity:1;stroke-dasharray:none" />
        </g>
        <g
           transform="translate(368.8085,649.1987)"
           id="g5010">
          <path
             d="m 0,0 c 0,1.565 0,1.847 -0.023,2.168 -0.02,0.34 -0.098,0.504 -0.429,0.573 L -0.796,2.77 -0.875,2.832 c 0,0.059 0.049,0.079 0.161,0.079 0.452,0 1.064,-0.03 1.153,-0.03 0.091,0 0.694,0.03 0.995,0.03 0.112,0 0.161,-0.02 0.161,-0.079 L 1.516,2.77 C 1.444,2.77 1.385,2.76 1.264,2.741 0.992,2.701 0.913,2.518 0.891,2.168 0.871,1.847 0.871,1.565 0.871,0 l 0,-1.409 c 0,-1.444 0.321,-2.066 0.753,-2.479 0.494,-0.462 0.947,-0.553 1.516,-0.553 0.613,0 1.215,0.291 1.579,0.724 0.462,0.573 0.583,1.428 0.583,2.459 l 0,1.258 c 0,1.565 0,1.847 -0.02,2.168 C 5.259,2.508 5.181,2.672 4.85,2.741 L 4.506,2.77 4.427,2.832 c 0,0.059 0.049,0.079 0.161,0.079 0.452,0 1.005,-0.03 1.064,-0.03 0.072,0 0.544,0.03 0.845,0.03 0.108,0 0.16,-0.02 0.16,-0.079 L 6.575,2.77 c -0.068,0 -0.13,0 -0.248,-0.029 C 6.055,2.691 5.973,2.518 5.953,2.168 5.934,1.847 5.934,1.565 5.934,0 l 0,-1.075 C 5.934,-2.162 5.812,-3.367 5.01,-4.077 4.286,-4.722 3.533,-4.821 2.941,-4.821 2.6,-4.821 1.585,-4.781 0.871,-4.107 0.38,-3.636 0,-2.935 0,-1.468 L 0,0 z"
             id="path5012"
             style="fill:#edad09;fill-opacity:1;fill-rule:nonzero;stroke:none" />
        </g>
        <g
           transform="translate(368.8085,649.1987)"
           id="g5014">
          <path
             d="m 0,0 c 0,1.565 0,1.847 -0.023,2.168 -0.02,0.34 -0.098,0.504 -0.429,0.573 L -0.796,2.77 -0.875,2.832 c 0,0.059 0.049,0.079 0.161,0.079 0.452,0 1.064,-0.03 1.153,-0.03 0.091,0 0.694,0.03 0.995,0.03 0.112,0 0.161,-0.02 0.161,-0.079 L 1.516,2.77 C 1.444,2.77 1.385,2.76 1.264,2.741 0.992,2.701 0.913,2.518 0.891,2.168 0.871,1.847 0.871,1.565 0.871,0 l 0,-1.409 c 0,-1.444 0.321,-2.066 0.753,-2.479 0.494,-0.462 0.947,-0.553 1.516,-0.553 0.613,0 1.215,0.291 1.579,0.724 0.462,0.573 0.583,1.428 0.583,2.459 l 0,1.258 c 0,1.565 0,1.847 -0.02,2.168 C 5.259,2.508 5.181,2.672 4.85,2.741 L 4.506,2.77 4.427,2.832 c 0,0.059 0.049,0.079 0.161,0.079 0.452,0 1.005,-0.03 1.064,-0.03 0.072,0 0.544,0.03 0.845,0.03 0.108,0 0.16,-0.02 0.16,-0.079 L 6.575,2.77 c -0.068,0 -0.13,0 -0.248,-0.029 C 6.055,2.691 5.973,2.518 5.953,2.168 5.934,1.847 5.934,1.565 5.934,0 l 0,-1.075 C 5.934,-2.162 5.812,-3.367 5.01,-4.077 4.286,-4.722 3.533,-4.821 2.941,-4.821 2.6,-4.821 1.585,-4.781 0.871,-4.107 0.38,-3.636 0,-2.935 0,-1.468 L 0,0 z"
             id="path5016"
             style="fill:none;stroke:#edad09;stroke-width:0.34;stroke-linecap:butt;stroke-linejoin:miter;stroke-miterlimit:3.86400008;stroke-opacity:1;stroke-dasharray:none" />
        </g>
        <g
           transform="translate(386.9438,645.8842)"
           id="g5018">
          <path
             d="m 0,0 c 0.02,-0.825 0.121,-1.084 0.39,-1.166 0.193,-0.049 0.412,-0.059 0.504,-0.059 l 0.079,-0.062 c 0,-0.059 -0.059,-0.079 -0.18,-0.079 -0.573,0 -0.973,0.03 -1.065,0.03 -0.091,0 -0.511,-0.03 -0.963,-0.03 l -0.16,0.079 0.079,0.062 c 0.081,0 0.262,0.01 0.412,0.059 0.252,0.069 0.301,0.36 0.301,1.277 l 0.01,5.754 c 0,0.39 0.03,0.501 0.112,0.501 l 0.35,-0.321 C 0.02,5.875 1.516,4.257 3.062,2.6 4.057,1.536 5.151,0.311 5.472,-0.02 L 5.364,5.083 C 5.351,5.734 5.282,5.954 4.971,6.035 4.791,6.075 4.558,6.084 4.48,6.084 L 4.398,6.156 c 0,0.06 0.082,0.069 0.2,0.069 0.452,0 0.936,-0.029 1.045,-0.029 0.111,0 0.441,0.029 0.854,0.029 0.112,0 0.18,-0.009 0.18,-0.069 L 6.569,6.084 c -0.052,0 -0.121,0 -0.242,-0.029 C 5.996,5.986 5.954,5.764 5.954,5.161 l -0.02,-5.885 c 0,-0.662 -0.02,-0.713 -0.088,-0.713 -0.082,0 -0.203,0.111 -0.734,0.645 C 5.001,-0.694 3.553,0.783 2.489,1.926 1.326,3.183 0.19,4.447 -0.131,4.811 L 0,0 z"
             id="path5020"
             style="fill:#edad09;fill-opacity:1;fill-rule:nonzero;stroke:none" />
        </g>
        <g
           transform="translate(386.9438,645.8842)"
           id="g5022">
          <path
             d="m 0,0 c 0.02,-0.825 0.121,-1.084 0.39,-1.166 0.193,-0.049 0.412,-0.059 0.504,-0.059 l 0.079,-0.062 c 0,-0.059 -0.059,-0.079 -0.18,-0.079 -0.573,0 -0.973,0.03 -1.065,0.03 -0.091,0 -0.511,-0.03 -0.963,-0.03 l -0.16,0.079 0.079,0.062 c 0.081,0 0.262,0.01 0.412,0.059 0.252,0.069 0.301,0.36 0.301,1.277 l 0.01,5.754 c 0,0.39 0.03,0.501 0.112,0.501 l 0.35,-0.321 C 0.02,5.875 1.516,4.257 3.062,2.6 4.057,1.536 5.151,0.311 5.472,-0.02 L 5.364,5.083 C 5.351,5.734 5.282,5.954 4.971,6.035 4.791,6.075 4.558,6.084 4.48,6.084 L 4.398,6.156 c 0,0.06 0.082,0.069 0.2,0.069 0.452,0 0.936,-0.029 1.045,-0.029 0.111,0 0.441,0.029 0.854,0.029 0.112,0 0.18,-0.009 0.18,-0.069 L 6.569,6.084 c -0.052,0 -0.121,0 -0.242,-0.029 C 5.996,5.986 5.954,5.764 5.954,5.161 l -0.02,-5.885 c 0,-0.662 -0.02,-0.713 -0.088,-0.713 -0.082,0 -0.203,0.111 -0.734,0.645 C 5.001,-0.694 3.553,0.783 2.489,1.926 1.326,3.183 0.19,4.447 -0.131,4.811 L 0,0 z"
             id="path5024"
             style="fill:none;stroke:#edad09;stroke-width:0.34;stroke-linecap:butt;stroke-linejoin:miter;stroke-miterlimit:3.86400008;stroke-opacity:1;stroke-dasharray:none" />
        </g>
        <g
           transform="translate(405.9734,647.4296)"
           id="g5026">
          <path
             d="M 0,0 C 0,-0.963 0,-1.759 0.053,-2.177 0.082,-2.469 0.141,-2.692 0.442,-2.731 0.583,-2.751 0.806,-2.77 0.894,-2.77 l 0.082,-0.063 c 0,-0.048 -0.052,-0.078 -0.16,-0.078 -0.554,0 -1.186,0.03 -1.238,0.03 -0.049,0 -0.682,-0.03 -0.983,-0.03 -0.111,0 -0.16,0.019 -0.16,0.078 l 0.079,0.063 0.301,0.039 c 0.203,0.039 0.252,0.262 0.291,0.554 0.053,0.418 0.053,1.214 0.053,2.177 l 0,1.769 c 0,1.565 0,1.847 -0.024,2.168 -0.019,0.34 -0.117,0.514 -0.34,0.563 -0.111,0.029 -0.239,0.039 -0.311,0.039 l -0.079,0.062 c 0,0.059 0.05,0.079 0.161,0.079 0.33,0 0.963,-0.03 1.012,-0.03 0.052,0 0.684,0.03 0.985,0.03 0.111,0 0.161,-0.02 0.161,-0.079 L 0.642,4.539 C 0.573,4.539 0.514,4.529 0.393,4.51 0.122,4.46 0.039,4.287 0.02,3.937 0,3.616 0,3.334 0,1.769 L 0,0 z"
             id="path5028"
             style="fill:#edad09;fill-opacity:1;fill-rule:nonzero;stroke:none" />
        </g>
        <g
           transform="translate(405.9734,647.4296)"
           id="g5030">
          <path
             d="M 0,0 C 0,-0.963 0,-1.759 0.053,-2.177 0.082,-2.469 0.141,-2.692 0.442,-2.731 0.583,-2.751 0.806,-2.77 0.894,-2.77 l 0.082,-0.063 c 0,-0.048 -0.052,-0.078 -0.16,-0.078 -0.554,0 -1.186,0.03 -1.238,0.03 -0.049,0 -0.682,-0.03 -0.983,-0.03 -0.111,0 -0.16,0.019 -0.16,0.078 l 0.079,0.063 0.301,0.039 c 0.203,0.039 0.252,0.262 0.291,0.554 0.053,0.418 0.053,1.214 0.053,2.177 l 0,1.769 c 0,1.565 0,1.847 -0.024,2.168 -0.019,0.34 -0.117,0.514 -0.34,0.563 -0.111,0.029 -0.239,0.039 -0.311,0.039 l -0.079,0.062 c 0,0.059 0.05,0.079 0.161,0.079 0.33,0 0.963,-0.03 1.012,-0.03 0.052,0 0.684,0.03 0.985,0.03 0.111,0 0.161,-0.02 0.161,-0.079 L 0.642,4.539 C 0.573,4.539 0.514,4.529 0.393,4.51 0.122,4.46 0.039,4.287 0.02,3.937 0,3.616 0,3.334 0,1.769 L 0,0 z"
             id="path5032"
             style="fill:none;stroke:#edad09;stroke-width:0.34;stroke-linecap:butt;stroke-linejoin:miter;stroke-miterlimit:3.86400008;stroke-opacity:1;stroke-dasharray:none" />
        </g>
        <g
           transform="translate(420.6773,645.7436)"
           id="g5034">
          <path
             d="M 0,0 C 0.583,1.345 1.929,4.849 2.148,5.573 2.197,5.724 2.24,5.865 2.24,5.953 L 2.109,6.186 C 1.988,6.225 1.837,6.225 1.726,6.225 L 1.618,6.287 c 0,0.059 0.059,0.079 0.219,0.079 0.403,0 0.865,-0.03 0.986,-0.03 0.059,0 0.491,0.03 0.782,0.03 0.109,0 0.171,-0.02 0.171,-0.069 L 3.655,6.225 c -0.069,0 -0.292,0 -0.482,-0.121 C 3.042,6.016 2.892,5.845 2.62,5.161 2.508,4.879 2.007,3.674 1.496,2.439 0.884,0.973 0.432,-0.112 0.2,-0.603 c -0.282,-0.603 -0.322,-0.763 -0.423,-0.763 -0.121,0 -0.17,0.141 -0.36,0.623 l -2.459,6.156 c -0.223,0.56 -0.374,0.671 -0.724,0.773 -0.151,0.039 -0.321,0.039 -0.383,0.039 l -0.079,0.072 c 0,0.059 0.098,0.069 0.259,0.069 0.484,0 1.055,-0.03 1.176,-0.03 0.101,0 0.553,0.03 0.933,0.03 0.183,0 0.272,-0.02 0.272,-0.069 L -1.686,6.225 c -0.112,0 -0.292,-0.01 -0.384,-0.049 -0.111,-0.049 -0.131,-0.131 -0.131,-0.203 0,-0.128 0.122,-0.439 0.272,-0.832 L 0,0 z"
             id="path5036"
             style="fill:#edad09;fill-opacity:1;fill-rule:nonzero;stroke:none" />
        </g>
        <g
           transform="translate(420.6773,645.7436)"
           id="g5038">
          <path
             d="M 0,0 C 0.583,1.345 1.929,4.849 2.148,5.573 2.197,5.724 2.24,5.865 2.24,5.953 L 2.109,6.186 C 1.988,6.225 1.837,6.225 1.726,6.225 L 1.618,6.287 c 0,0.059 0.059,0.079 0.219,0.079 0.403,0 0.865,-0.03 0.986,-0.03 0.059,0 0.491,0.03 0.782,0.03 0.109,0 0.171,-0.02 0.171,-0.069 L 3.655,6.225 c -0.069,0 -0.292,0 -0.482,-0.121 C 3.042,6.016 2.892,5.845 2.62,5.161 2.508,4.879 2.007,3.674 1.496,2.439 0.884,0.973 0.432,-0.112 0.2,-0.603 c -0.282,-0.603 -0.322,-0.763 -0.423,-0.763 -0.121,0 -0.17,0.141 -0.36,0.623 l -2.459,6.156 c -0.223,0.56 -0.374,0.671 -0.724,0.773 -0.151,0.039 -0.321,0.039 -0.383,0.039 l -0.079,0.072 c 0,0.059 0.098,0.069 0.259,0.069 0.484,0 1.055,-0.03 1.176,-0.03 0.101,0 0.553,0.03 0.933,0.03 0.183,0 0.272,-0.02 0.272,-0.069 L -1.686,6.225 c -0.112,0 -0.292,-0.01 -0.384,-0.049 -0.111,-0.049 -0.131,-0.131 -0.131,-0.203 0,-0.128 0.122,-0.439 0.272,-0.832 L 0,0 z"
             id="path5040"
             style="fill:none;stroke:#edad09;stroke-width:0.34;stroke-linecap:butt;stroke-linejoin:miter;stroke-miterlimit:3.86400008;stroke-opacity:1;stroke-dasharray:none" />
        </g>
        <g
           transform="translate(434.8963,649.1987)"
           id="g5042">
          <path
             d="m 0,0 c 0,1.565 0,1.847 -0.02,2.168 -0.019,0.34 -0.101,0.504 -0.432,0.573 l -0.34,0.029 -0.083,0.062 c 0,0.059 0.053,0.079 0.161,0.079 0.452,0 1.087,-0.03 1.136,-0.03 0.069,0 2.07,0 2.299,0.01 0.19,0.01 0.354,0.03 0.432,0.049 L 3.294,2.993 3.334,2.901 C 3.334,2.832 3.285,2.711 3.255,2.429 3.245,2.328 3.226,1.886 3.202,1.768 L 3.134,1.657 3.052,1.788 c 0,0.068 -0.01,0.238 -0.059,0.36 -0.069,0.16 -0.17,0.281 -0.714,0.34 -0.17,0.02 -1.264,0.03 -1.375,0.03 l -0.059,-0.099 0,-2.773 0.059,-0.098 c 0.131,0 1.365,0 1.598,0.02 0.239,0.019 0.38,0.039 0.471,0.14 l 0.151,0.131 0.049,-0.082 c 0,-0.059 -0.049,-0.229 -0.079,-0.563 -0.019,-0.2 -0.042,-0.57 -0.042,-0.642 l -0.069,-0.19 -0.072,0.092 c 0,0.098 0,0.2 -0.039,0.331 -0.039,0.14 -0.131,0.311 -0.521,0.35 -0.272,0.029 -1.267,0.049 -1.437,0.049 l -0.069,-0.069 0,-0.884 c 0,-0.341 -0.01,-1.506 0,-1.716 0.029,-0.694 0.18,-0.825 1.162,-0.825 0.262,0 0.705,0 0.966,0.111 0.262,0.112 0.38,0.311 0.452,0.724 0.02,0.108 0.04,0.151 0.089,0.151 L 3.576,-3.475 C 3.576,-3.557 3.494,-4.238 3.445,-4.451 3.376,-4.71 3.294,-4.71 2.901,-4.71 c -1.516,0 -2.187,0.06 -2.479,0.06 -0.019,0 -0.19,-0.011 -0.402,-0.011 -0.2,-0.009 -0.433,-0.019 -0.583,-0.019 -0.108,0 -0.161,0.019 -0.161,0.078 l 0.082,0.063 0.301,0.039 c 0.2,0.039 0.253,0.262 0.292,0.554 C 0,-3.528 0,-2.732 0,-1.769 L 0,0 z"
             id="path5044"
             style="fill:#edad09;fill-opacity:1;fill-rule:nonzero;stroke:none" />
        </g>
        <g
           transform="translate(434.8963,649.1987)"
           id="g5046">
          <path
             d="m 0,0 c 0,1.565 0,1.847 -0.02,2.168 -0.019,0.34 -0.101,0.504 -0.432,0.573 l -0.34,0.029 -0.083,0.062 c 0,0.059 0.053,0.079 0.161,0.079 0.452,0 1.087,-0.03 1.136,-0.03 0.069,0 2.07,0 2.299,0.01 0.19,0.01 0.354,0.03 0.432,0.049 L 3.294,2.993 3.334,2.901 C 3.334,2.832 3.285,2.711 3.255,2.429 3.245,2.328 3.226,1.886 3.202,1.768 L 3.134,1.657 3.052,1.788 c 0,0.068 -0.01,0.238 -0.059,0.36 -0.069,0.16 -0.17,0.281 -0.714,0.34 -0.17,0.02 -1.264,0.03 -1.375,0.03 l -0.059,-0.099 0,-2.773 0.059,-0.098 c 0.131,0 1.365,0 1.598,0.02 0.239,0.019 0.38,0.039 0.471,0.14 l 0.151,0.131 0.049,-0.082 c 0,-0.059 -0.049,-0.229 -0.079,-0.563 -0.019,-0.2 -0.042,-0.57 -0.042,-0.642 l -0.069,-0.19 -0.072,0.092 c 0,0.098 0,0.2 -0.039,0.331 -0.039,0.14 -0.131,0.311 -0.521,0.35 -0.272,0.029 -1.267,0.049 -1.437,0.049 l -0.069,-0.069 0,-0.884 c 0,-0.341 -0.01,-1.506 0,-1.716 0.029,-0.694 0.18,-0.825 1.162,-0.825 0.262,0 0.705,0 0.966,0.111 0.262,0.112 0.38,0.311 0.452,0.724 0.02,0.108 0.04,0.151 0.089,0.151 L 3.576,-3.475 C 3.576,-3.557 3.494,-4.238 3.445,-4.451 3.376,-4.71 3.294,-4.71 2.901,-4.71 c -1.516,0 -2.187,0.06 -2.479,0.06 -0.019,0 -0.19,-0.011 -0.402,-0.011 -0.2,-0.009 -0.433,-0.019 -0.583,-0.019 -0.108,0 -0.161,0.019 -0.161,0.078 l 0.082,0.063 0.301,0.039 c 0.2,0.039 0.253,0.262 0.292,0.554 C 0,-3.528 0,-2.732 0,-1.769 L 0,0 z"
             id="path5048"
             style="fill:none;stroke:#edad09;stroke-width:0.34;stroke-linecap:butt;stroke-linejoin:miter;stroke-miterlimit:3.86400008;stroke-opacity:1;stroke-dasharray:none" />
        </g>
        <g
           transform="translate(465.849,644.6495)"
           id="g5050">
          <path
             d="m 0,0 c -0.141,0.069 -0.151,0.108 -0.151,0.38 0,0.501 0.04,0.904 0.049,1.064 0.011,0.111 0.03,0.161 0.079,0.161 L 0.049,1.497 c 0,-0.092 0,-0.233 0.03,-0.374 C 0.23,0.38 0.891,0.098 1.565,0.098 2.528,0.098 3,0.793 3,1.435 3,2.129 2.712,2.528 1.847,3.242 L 1.395,3.615 C 0.331,4.487 0.088,5.112 0.088,5.793 c 0,1.074 0.803,1.808 2.08,1.808 0.393,0 0.685,-0.04 0.934,-0.102 C 3.291,7.46 3.373,7.45 3.451,7.45 L 3.553,7.381 C 3.553,7.329 3.514,6.998 3.514,6.317 3.514,6.153 3.494,6.084 3.442,6.084 L 3.363,6.216 C 3.353,6.337 3.291,6.605 3.232,6.717 3.173,6.828 2.901,7.25 1.978,7.25 1.284,7.25 0.74,6.818 0.74,6.084 0.74,5.512 1.022,5.171 1.969,4.399 L 2.25,4.175 C 3.432,3.242 3.714,2.62 3.714,1.818 3.714,1.405 3.553,0.642 2.859,0.151 2.43,-0.151 1.886,-0.272 1.343,-0.272 0.871,-0.272 0.409,-0.203 0,0"
             id="path5052"
             style="fill:#edad09;fill-opacity:1;fill-rule:nonzero;stroke:none" />
        </g>
        <g
           transform="translate(465.849,644.6495)"
           id="g5054">
          <path
             d="m 0,0 c -0.141,0.069 -0.151,0.108 -0.151,0.38 0,0.501 0.04,0.904 0.049,1.064 0.011,0.111 0.03,0.161 0.079,0.161 L 0.049,1.497 c 0,-0.092 0,-0.233 0.03,-0.374 C 0.23,0.38 0.891,0.098 1.565,0.098 2.528,0.098 3,0.793 3,1.435 3,2.129 2.712,2.528 1.847,3.242 L 1.395,3.615 C 0.331,4.487 0.088,5.112 0.088,5.793 c 0,1.074 0.803,1.808 2.08,1.808 0.393,0 0.685,-0.04 0.934,-0.102 C 3.291,7.46 3.373,7.45 3.451,7.45 L 3.553,7.381 C 3.553,7.329 3.514,6.998 3.514,6.317 3.514,6.153 3.494,6.084 3.442,6.084 L 3.363,6.216 C 3.353,6.337 3.291,6.605 3.232,6.717 3.173,6.828 2.901,7.25 1.978,7.25 1.284,7.25 0.74,6.818 0.74,6.084 0.74,5.512 1.022,5.171 1.969,4.399 L 2.25,4.175 C 3.432,3.242 3.714,2.62 3.714,1.818 3.714,1.405 3.553,0.642 2.859,0.151 2.43,-0.151 1.886,-0.272 1.343,-0.272 0.871,-0.272 0.409,-0.203 0,0 z"
             id="path5056"
             style="fill:none;stroke:#edad09;stroke-width:0.34;stroke-linecap:butt;stroke-linejoin:miter;stroke-miterlimit:3.86400008;stroke-opacity:1;stroke-dasharray:none" />
        </g>
        <g
           transform="translate(482.0067,647.4296)"
           id="g5058">
          <path
             d="m 0,0 c 0,-0.963 0,-1.759 0.049,-2.177 0.03,-0.292 0.092,-0.515 0.393,-0.554 0.141,-0.02 0.36,-0.039 0.452,-0.039 l 0.079,-0.063 c 0,-0.048 -0.05,-0.078 -0.161,-0.078 -0.553,0 -1.185,0.03 -1.235,0.03 -0.048,0 -0.683,-0.03 -0.985,-0.03 -0.108,0 -0.161,0.019 -0.161,0.078 l 0.083,0.063 0.301,0.039 c 0.199,0.039 0.251,0.262 0.291,0.554 0.049,0.418 0.049,1.214 0.049,2.177 l 0,1.769 c 0,1.565 0,1.847 -0.02,2.168 -0.019,0.34 -0.121,0.514 -0.34,0.563 -0.111,0.029 -0.242,0.039 -0.311,0.039 l -0.082,0.062 c 0,0.059 0.053,0.079 0.161,0.079 0.331,0 0.966,-0.03 1.014,-0.03 0.05,0 0.682,0.03 0.986,0.03 0.109,0 0.161,-0.02 0.161,-0.079 L 0.642,4.539 C 0.573,4.539 0.511,4.529 0.39,4.51 0.122,4.46 0.039,4.287 0.02,3.937 0,3.616 0,3.334 0,1.769 L 0,0 z"
             id="path5060"
             style="fill:#edad09;fill-opacity:1;fill-rule:nonzero;stroke:none" />
        </g>
        <g
           transform="translate(482.0067,647.4296)"
           id="g5062">
          <path
             d="m 0,0 c 0,-0.963 0,-1.759 0.049,-2.177 0.03,-0.292 0.092,-0.515 0.393,-0.554 0.141,-0.02 0.36,-0.039 0.452,-0.039 l 0.079,-0.063 c 0,-0.048 -0.05,-0.078 -0.161,-0.078 -0.553,0 -1.185,0.03 -1.235,0.03 -0.048,0 -0.683,-0.03 -0.985,-0.03 -0.108,0 -0.161,0.019 -0.161,0.078 l 0.083,0.063 0.301,0.039 c 0.199,0.039 0.251,0.262 0.291,0.554 0.049,0.418 0.049,1.214 0.049,2.177 l 0,1.769 c 0,1.565 0,1.847 -0.02,2.168 -0.019,0.34 -0.121,0.514 -0.34,0.563 -0.111,0.029 -0.242,0.039 -0.311,0.039 l -0.082,0.062 c 0,0.059 0.053,0.079 0.161,0.079 0.331,0 0.966,-0.03 1.014,-0.03 0.05,0 0.682,0.03 0.986,0.03 0.109,0 0.161,-0.02 0.161,-0.079 L 0.642,4.539 C 0.573,4.539 0.511,4.529 0.39,4.51 0.122,4.46 0.039,4.287 0.02,3.937 0,3.616 0,3.334 0,1.769 L 0,0 z"
             id="path5064"
             style="fill:none;stroke:#edad09;stroke-width:0.34;stroke-linecap:butt;stroke-linejoin:miter;stroke-miterlimit:3.86400008;stroke-opacity:1;stroke-dasharray:none" />
        </g>
        <g
           transform="translate(496.668,647.4296)"
           id="g5066">
          <path
             d="m 0,0 c 0,-0.963 0,-1.759 0.049,-2.177 0.033,-0.292 0.092,-0.515 0.393,-0.554 0.141,-0.02 0.36,-0.039 0.452,-0.039 l 0.082,-0.063 c 0,-0.048 -0.053,-0.078 -0.164,-0.078 -0.55,0 -1.182,0.03 -1.234,0.03 -0.05,0 -0.682,-0.03 -0.983,-0.03 -0.111,0 -0.16,0.019 -0.16,0.078 l 0.079,0.063 0.301,0.039 c 0.203,0.039 0.251,0.262 0.291,0.554 0.049,0.418 0.049,1.214 0.049,2.177 l 0,4.248 -1.483,-0.02 C -2.953,4.218 -3.193,4.149 -3.353,3.907 -3.465,3.737 -3.494,3.665 -3.524,3.596 l -0.101,-0.101 -0.049,0.091 0.219,1.045 0.102,0.19 c 0.068,0 0.17,-0.102 0.442,-0.122 C -2.62,4.67 -2.24,4.65 -2.119,4.65 l 3.766,0 c 0.321,0 0.554,0.03 0.714,0.049 0.151,0.03 0.239,0.053 0.282,0.053 L 2.692,4.631 C 2.692,4.33 2.662,3.635 2.662,3.524 L 2.59,3.396 c -0.049,0 -0.068,0.03 -0.078,0.17 L 2.502,3.674 C 2.459,3.976 2.23,4.208 1.264,4.228 L 0,4.248 0,0 z"
             id="path5068"
             style="fill:#edad09;fill-opacity:1;fill-rule:nonzero;stroke:none" />
        </g>
        <g
           transform="translate(496.668,647.4296)"
           id="g5070">
          <path
             d="m 0,0 c 0,-0.963 0,-1.759 0.049,-2.177 0.033,-0.292 0.092,-0.515 0.393,-0.554 0.141,-0.02 0.36,-0.039 0.452,-0.039 l 0.082,-0.063 c 0,-0.048 -0.053,-0.078 -0.164,-0.078 -0.55,0 -1.182,0.03 -1.234,0.03 -0.05,0 -0.682,-0.03 -0.983,-0.03 -0.111,0 -0.16,0.019 -0.16,0.078 l 0.079,0.063 0.301,0.039 c 0.203,0.039 0.251,0.262 0.291,0.554 0.049,0.418 0.049,1.214 0.049,2.177 l 0,4.248 -1.483,-0.02 C -2.953,4.218 -3.193,4.149 -3.353,3.907 -3.465,3.737 -3.494,3.665 -3.524,3.596 l -0.101,-0.101 -0.049,0.091 0.219,1.045 0.102,0.19 c 0.068,0 0.17,-0.102 0.442,-0.122 C -2.62,4.67 -2.24,4.65 -2.119,4.65 l 3.766,0 c 0.321,0 0.554,0.03 0.714,0.049 0.151,0.03 0.239,0.053 0.282,0.053 L 2.692,4.631 C 2.692,4.33 2.662,3.635 2.662,3.524 L 2.59,3.396 c -0.049,0 -0.068,0.03 -0.078,0.17 L 2.502,3.674 C 2.459,3.976 2.23,4.208 1.264,4.228 L 0,4.248 0,0 z"
             id="path5072"
             style="fill:none;stroke:#edad09;stroke-width:0.34;stroke-linecap:butt;stroke-linejoin:miter;stroke-miterlimit:3.86400008;stroke-opacity:1;stroke-dasharray:none" />
        </g>
        <g
           transform="translate(511.532,647.1189)"
           id="g5074">
          <path
             d="M 0,0 C 0,0.543 -0.102,0.763 -0.233,1.054 -0.301,1.215 -1.647,3.425 -1.997,3.946 -2.25,4.319 -2.502,4.568 -2.682,4.689 -2.833,4.791 -3.022,4.85 -3.114,4.85 l -0.102,0.072 0.132,0.069 c 0.189,0 0.946,-0.03 0.995,-0.03 0.069,0 0.451,0.03 0.841,0.03 0.112,0 0.131,-0.03 0.131,-0.069 L -1.267,4.83 -1.398,4.65 c 0,-0.121 0.052,-0.242 0.131,-0.393 0.16,-0.292 1.667,-2.882 1.85,-3.173 0.19,0.422 1.464,2.623 1.667,2.954 0.127,0.209 0.17,0.379 0.17,0.511 0,0.14 -0.043,0.252 -0.161,0.281 l -0.15,0.102 0.16,0.059 c 0.263,0 0.583,-0.03 0.662,-0.03 0.062,0 0.782,0.03 0.976,0.03 L 4.038,4.932 3.907,4.85 C 3.796,4.85 3.605,4.811 3.445,4.709 3.242,4.588 3.134,4.47 2.911,4.198 2.581,3.795 1.176,1.434 0.992,1.005 0.841,0.642 0.841,0.331 0.841,0 l 0,-0.865 c 0,-0.16 0,-0.583 0.034,-1.002 0.02,-0.291 0.107,-0.514 0.409,-0.553 0.14,-0.02 0.363,-0.039 0.452,-0.039 l 0.082,-0.063 c 0,-0.049 -0.05,-0.078 -0.161,-0.078 -0.553,0 -1.185,0.029 -1.234,0.029 -0.053,0 -0.685,-0.029 -0.986,-0.029 -0.111,0 -0.16,0.019 -0.16,0.078 l 0.078,0.063 0.304,0.039 c 0.2,0.039 0.288,0.262 0.312,0.553 C 0,-1.448 0,-1.025 0,-0.865 L 0,0 z"
             id="path5076"
             style="fill:#edad09;fill-opacity:1;fill-rule:nonzero;stroke:none" />
        </g>
        <g
           transform="translate(511.532,647.1189)"
           id="g5078">
          <path
             d="M 0,0 C 0,0.543 -0.102,0.763 -0.233,1.054 -0.301,1.215 -1.647,3.425 -1.997,3.946 -2.25,4.319 -2.502,4.568 -2.682,4.689 -2.833,4.791 -3.022,4.85 -3.114,4.85 l -0.102,0.072 0.132,0.069 c 0.189,0 0.946,-0.03 0.995,-0.03 0.069,0 0.451,0.03 0.841,0.03 0.112,0 0.131,-0.03 0.131,-0.069 L -1.267,4.83 -1.398,4.65 c 0,-0.121 0.052,-0.242 0.131,-0.393 0.16,-0.292 1.667,-2.882 1.85,-3.173 0.19,0.422 1.464,2.623 1.667,2.954 0.127,0.209 0.17,0.379 0.17,0.511 0,0.14 -0.043,0.252 -0.161,0.281 l -0.15,0.102 0.16,0.059 c 0.263,0 0.583,-0.03 0.662,-0.03 0.062,0 0.782,0.03 0.976,0.03 L 4.038,4.932 3.907,4.85 C 3.796,4.85 3.605,4.811 3.445,4.709 3.242,4.588 3.134,4.47 2.911,4.198 2.581,3.795 1.176,1.434 0.992,1.005 0.841,0.642 0.841,0.331 0.841,0 l 0,-0.865 c 0,-0.16 0,-0.583 0.034,-1.002 0.02,-0.291 0.107,-0.514 0.409,-0.553 0.14,-0.02 0.363,-0.039 0.452,-0.039 l 0.082,-0.063 c 0,-0.049 -0.05,-0.078 -0.161,-0.078 -0.553,0 -1.185,0.029 -1.234,0.029 -0.053,0 -0.685,-0.029 -0.986,-0.029 -0.111,0 -0.16,0.019 -0.16,0.078 l 0.078,0.063 0.304,0.039 c 0.2,0.039 0.288,0.262 0.312,0.553 C 0,-1.448 0,-1.025 0,-0.865 L 0,0 z"
             id="path5080"
             style="fill:none;stroke:#edad09;stroke-width:0.34;stroke-linecap:butt;stroke-linejoin:miter;stroke-miterlimit:3.86400008;stroke-opacity:1;stroke-dasharray:none" />
        </g>
        <g
           transform="translate(357.838,671.65)"
           id="g5082">
          <path
             d="m 0,0 c 0,4.905 0,5.786 -0.062,6.792 -0.062,1.067 -0.315,1.572 -1.353,1.791 -0.252,0.062 -0.786,0.095 -1.067,0.095 -0.128,0 -0.252,0.062 -0.252,0.187 0,0.19 0.157,0.252 0.504,0.252 1.415,0 3.268,-0.095 3.458,-0.095 0.282,0 2.106,0.095 3.049,0.095 0.344,0 0.501,-0.062 0.501,-0.252 C 4.778,8.74 4.653,8.678 4.529,8.678 4.306,8.678 4.12,8.645 3.743,8.583 2.891,8.426 2.643,7.892 2.577,6.792 2.515,5.786 2.515,4.905 2.515,0 l 0,-1.886 0.128,0 c 0.534,0.599 6.222,6.382 7.355,7.607 0.881,0.914 1.696,1.729 1.696,2.266 0,0.377 -0.157,0.563 -0.406,0.658 -0.157,0.062 -0.285,0.128 -0.285,0.252 0,0.158 0.157,0.22 0.377,0.22 0.628,0 1.604,-0.095 2.358,-0.095 0.157,0 2.233,0.095 3.019,0.095 0.347,0 0.471,-0.062 0.471,-0.22 0,-0.157 -0.062,-0.219 -0.314,-0.219 -0.471,0 -1.133,-0.157 -1.762,-0.442 C 13.865,7.673 13.174,6.887 11.759,5.534 10.974,4.778 5.501,-0.567 4.843,-1.353 c 0.816,-0.91 7.355,-7.669 8.646,-8.864 2.639,-2.453 3.081,-3.085 4.683,-3.583 0.848,-0.265 1.729,-0.409 1.948,-0.409 0.22,0 0.409,-0.062 0.409,-0.19 0,-0.157 -0.157,-0.249 -0.69,-0.249 l -1.605,0 c -0.881,0 -1.477,0 -2.168,0.062 -1.667,0.157 -2.453,0.848 -3.805,1.916 -1.415,1.166 -8.079,8.364 -9.589,10.217 l -0.157,0 0,-3.078 c 0,-3.019 0,-5.502 0.157,-6.825 0.095,-0.91 0.285,-1.601 1.228,-1.729 0.439,-0.062 0.943,-0.124 1.225,-0.124 0.19,0 0.252,-0.095 0.252,-0.19 0,-0.157 -0.157,-0.249 -0.504,-0.249 -1.539,0 -3.363,0.092 -3.616,0.092 -0.252,0 -2.072,-0.092 -3.016,-0.092 -0.347,0 -0.504,0.062 -0.504,0.249 0,0.095 0.062,0.19 0.252,0.19 0.282,0 0.658,0.062 0.943,0.124 0.629,0.128 0.786,0.819 0.911,1.729 C 0,-11.033 0,-8.55 0,-5.531 L 0,0 z"
             id="path5084"
             style="fill:#15356f;fill-opacity:1;fill-rule:nonzero;stroke:none" />
        </g>
        <g
           transform="translate(357.838,671.65)"
           id="g5086">
          <path
             d="m 0,0 c 0,4.905 0,5.786 -0.062,6.792 -0.062,1.067 -0.315,1.572 -1.353,1.791 -0.252,0.062 -0.786,0.095 -1.067,0.095 -0.128,0 -0.252,0.062 -0.252,0.187 0,0.19 0.157,0.252 0.504,0.252 1.415,0 3.268,-0.095 3.458,-0.095 0.282,0 2.106,0.095 3.049,0.095 0.344,0 0.501,-0.062 0.501,-0.252 C 4.778,8.74 4.653,8.678 4.529,8.678 4.306,8.678 4.12,8.645 3.743,8.583 2.891,8.426 2.643,7.892 2.577,6.792 2.515,5.786 2.515,4.905 2.515,0 l 0,-1.886 0.128,0 c 0.534,0.599 6.222,6.382 7.355,7.607 0.881,0.914 1.696,1.729 1.696,2.266 0,0.377 -0.157,0.563 -0.406,0.658 -0.157,0.062 -0.285,0.128 -0.285,0.252 0,0.158 0.157,0.22 0.377,0.22 0.628,0 1.604,-0.095 2.358,-0.095 0.157,0 2.233,0.095 3.019,0.095 0.347,0 0.471,-0.062 0.471,-0.22 0,-0.157 -0.062,-0.219 -0.314,-0.219 -0.471,0 -1.133,-0.157 -1.762,-0.442 C 13.865,7.673 13.174,6.887 11.759,5.534 10.974,4.778 5.501,-0.567 4.843,-1.353 c 0.816,-0.91 7.355,-7.669 8.646,-8.864 2.639,-2.453 3.081,-3.085 4.683,-3.583 0.848,-0.265 1.729,-0.409 1.948,-0.409 0.22,0 0.409,-0.062 0.409,-0.19 0,-0.157 -0.157,-0.249 -0.69,-0.249 l -1.605,0 c -0.881,0 -1.477,0 -2.168,0.062 -1.667,0.157 -2.453,0.848 -3.805,1.916 -1.415,1.166 -8.079,8.364 -9.589,10.217 l -0.157,0 0,-3.078 c 0,-3.019 0,-5.502 0.157,-6.825 0.095,-0.91 0.285,-1.601 1.228,-1.729 0.439,-0.062 0.943,-0.124 1.225,-0.124 0.19,0 0.252,-0.095 0.252,-0.19 0,-0.157 -0.157,-0.249 -0.504,-0.249 -1.539,0 -3.363,0.092 -3.616,0.092 -0.252,0 -2.072,-0.092 -3.016,-0.092 -0.347,0 -0.504,0.062 -0.504,0.249 0,0.095 0.062,0.19 0.252,0.19 0.282,0 0.658,0.062 0.943,0.124 0.629,0.128 0.786,0.819 0.911,1.729 C 0,-11.033 0,-8.55 0,-5.531 L 0,0 z"
             id="path5088"
             style="fill:none;stroke:#15356f;stroke-width:0.454;stroke-linecap:butt;stroke-linejoin:miter;stroke-miterlimit:3.86400008;stroke-opacity:1;stroke-dasharray:none" />
        </g>
        <g
           transform="translate(396.4932,661.2755)"
           id="g5090">
          <path
             d="m 0,0 c 0.062,-2.577 0.376,-3.396 1.225,-3.645 0.596,-0.157 1.29,-0.19 1.571,-0.19 0.158,0 0.253,-0.062 0.253,-0.19 0,-0.186 -0.19,-0.249 -0.567,-0.249 -1.791,0 -3.049,0.092 -3.333,0.092 -0.282,0 -1.602,-0.092 -3.017,-0.092 -0.314,0 -0.504,0.03 -0.504,0.249 0,0.128 0.095,0.19 0.252,0.19 0.252,0 0.819,0.033 1.291,0.19 0.786,0.22 0.943,1.13 0.943,3.992 l 0.029,18.015 c 0,1.225 0.095,1.571 0.347,1.571 0.252,0 0.786,-0.694 1.101,-1.008 0.471,-0.534 5.154,-5.593 9.997,-10.781 3.111,-3.333 6.537,-7.168 7.546,-8.206 l -0.348,15.971 c -0.032,2.043 -0.252,2.734 -1.224,2.987 -0.567,0.124 -1.291,0.157 -1.543,0.157 -0.219,0 -0.252,0.095 -0.252,0.219 0,0.19 0.252,0.219 0.629,0.219 1.415,0 2.924,-0.095 3.271,-0.095 0.344,0 1.382,0.095 2.672,0.095 0.344,0 0.567,-0.029 0.567,-0.219 0,-0.124 -0.128,-0.219 -0.347,-0.219 -0.157,0 -0.377,0 -0.754,-0.095 -1.037,-0.22 -1.165,-0.911 -1.165,-2.797 L 18.578,-2.263 c 0,-2.076 -0.063,-2.233 -0.282,-2.233 -0.252,0 -0.629,0.347 -2.296,2.014 -0.347,0.314 -4.872,4.935 -8.206,8.517 -3.645,3.93 -7.198,7.893 -8.203,9.026 L 0,0 z"
             id="path5092"
             style="fill:#15356f;fill-opacity:1;fill-rule:nonzero;stroke:none" />
        </g>
        <g
           transform="translate(396.4932,661.2755)"
           id="g5094">
          <path
             d="m 0,0 c 0.062,-2.577 0.376,-3.396 1.225,-3.645 0.596,-0.157 1.29,-0.19 1.571,-0.19 0.158,0 0.253,-0.062 0.253,-0.19 0,-0.186 -0.19,-0.249 -0.567,-0.249 -1.791,0 -3.049,0.092 -3.333,0.092 -0.282,0 -1.602,-0.092 -3.017,-0.092 -0.314,0 -0.504,0.03 -0.504,0.249 0,0.128 0.095,0.19 0.252,0.19 0.252,0 0.819,0.033 1.291,0.19 0.786,0.22 0.943,1.13 0.943,3.992 l 0.029,18.015 c 0,1.225 0.095,1.571 0.347,1.571 0.252,0 0.786,-0.694 1.101,-1.008 0.471,-0.534 5.154,-5.593 9.997,-10.781 3.111,-3.333 6.537,-7.168 7.546,-8.206 l -0.348,15.971 c -0.032,2.043 -0.252,2.734 -1.224,2.987 -0.567,0.124 -1.291,0.157 -1.543,0.157 -0.219,0 -0.252,0.095 -0.252,0.219 0,0.19 0.252,0.219 0.629,0.219 1.415,0 2.924,-0.095 3.271,-0.095 0.344,0 1.382,0.095 2.672,0.095 0.344,0 0.567,-0.029 0.567,-0.219 0,-0.124 -0.128,-0.219 -0.347,-0.219 -0.157,0 -0.377,0 -0.754,-0.095 -1.037,-0.22 -1.165,-0.911 -1.165,-2.797 L 18.578,-2.263 c 0,-2.076 -0.063,-2.233 -0.282,-2.233 -0.252,0 -0.629,0.347 -2.296,2.014 -0.347,0.314 -4.872,4.935 -8.206,8.517 -3.645,3.93 -7.198,7.893 -8.203,9.026 L 0,0 z"
             id="path5096"
             style="fill:none;stroke:#15356f;stroke-width:0.454;stroke-linecap:butt;stroke-linejoin:miter;stroke-miterlimit:3.86400008;stroke-opacity:1;stroke-dasharray:none" />
        </g>
        <g
           transform="translate(428.4942,666.1189)"
           id="g5098">
          <path
             d="m 0,0 c 0,-3.019 0,-5.502 0.157,-6.825 0.095,-0.91 0.285,-1.601 1.228,-1.729 0.439,-0.062 1.13,-0.124 1.415,-0.124 0.187,0 0.252,-0.095 0.252,-0.19 0,-0.157 -0.157,-0.249 -0.504,-0.249 -1.729,0 -3.711,0.092 -3.868,0.092 -0.157,0 -2.138,-0.092 -3.081,-0.092 -0.345,0 -0.501,0.062 -0.501,0.249 0,0.095 0.062,0.19 0.252,0.19 0.281,0 0.658,0.062 0.943,0.124 0.628,0.128 0.786,0.819 0.91,1.729 0.158,1.323 0.158,3.806 0.158,6.825 l 0,13.295 -4.654,-0.062 c -1.949,-0.029 -2.705,-0.252 -3.206,-1.005 -0.347,-0.534 -0.442,-0.753 -0.534,-0.976 -0.095,-0.249 -0.19,-0.314 -0.314,-0.314 -0.095,0 -0.157,0.095 -0.157,0.285 0,0.314 0.628,3.016 0.691,3.268 0.062,0.19 0.187,0.599 0.314,0.599 0.22,0 0.534,-0.314 1.382,-0.38 0.914,-0.091 2.109,-0.157 2.485,-0.157 l 11.79,0 c 2.01,0 2.858,0.315 3.111,0.315 0.157,0 0.157,-0.187 0.157,-0.377 0,-0.944 -0.095,-3.111 -0.095,-3.458 0,-0.282 -0.092,-0.41 -0.22,-0.41 -0.157,0 -0.219,0.095 -0.251,0.537 L 7.83,11.504 C 7.702,12.447 6.982,13.171 3.962,13.233 L 0,13.295 0,0 z"
             id="path5100"
             style="fill:#15356f;fill-opacity:1;fill-rule:nonzero;stroke:none" />
        </g>
        <g
           transform="translate(428.4942,666.1189)"
           id="g5102">
          <path
             d="m 0,0 c 0,-3.019 0,-5.502 0.157,-6.825 0.095,-0.91 0.285,-1.601 1.228,-1.729 0.439,-0.062 1.13,-0.124 1.415,-0.124 0.187,0 0.252,-0.095 0.252,-0.19 0,-0.157 -0.157,-0.249 -0.504,-0.249 -1.729,0 -3.711,0.092 -3.868,0.092 -0.157,0 -2.138,-0.092 -3.081,-0.092 -0.345,0 -0.501,0.062 -0.501,0.249 0,0.095 0.062,0.19 0.252,0.19 0.281,0 0.658,0.062 0.943,0.124 0.628,0.128 0.786,0.819 0.91,1.729 0.158,1.323 0.158,3.806 0.158,6.825 l 0,13.295 -4.654,-0.062 c -1.949,-0.029 -2.705,-0.252 -3.206,-1.005 -0.347,-0.534 -0.442,-0.753 -0.534,-0.976 -0.095,-0.249 -0.19,-0.314 -0.314,-0.314 -0.095,0 -0.157,0.095 -0.157,0.285 0,0.314 0.628,3.016 0.691,3.268 0.062,0.19 0.187,0.599 0.314,0.599 0.22,0 0.534,-0.314 1.382,-0.38 0.914,-0.091 2.109,-0.157 2.485,-0.157 l 11.79,0 c 2.01,0 2.858,0.315 3.111,0.315 0.157,0 0.157,-0.187 0.157,-0.377 0,-0.944 -0.095,-3.111 -0.095,-3.458 0,-0.282 -0.092,-0.41 -0.22,-0.41 -0.157,0 -0.219,0.095 -0.251,0.537 L 7.83,11.504 C 7.702,12.447 6.982,13.171 3.962,13.233 L 0,13.295 0,0 z"
             id="path5104"
             style="fill:none;stroke:#15356f;stroke-width:0.454;stroke-linecap:butt;stroke-linejoin:miter;stroke-miterlimit:3.86400008;stroke-opacity:1;stroke-dasharray:none" />
        </g>
        <g
           transform="translate(469.2388,666.1189)"
           id="g5106">
          <path
             d="m 0,0 c 0,-3.019 0,-5.502 0.157,-6.825 0.092,-0.91 0.281,-1.601 1.225,-1.729 0.438,-0.062 1.133,-0.124 1.415,-0.124 0.189,0 0.251,-0.095 0.251,-0.19 0,-0.157 -0.156,-0.249 -0.504,-0.249 -1.729,0 -3.71,0.092 -3.867,0.092 -0.158,0 -2.135,-0.092 -3.079,-0.092 -0.347,0 -0.504,0.062 -0.504,0.249 0,0.095 0.062,0.19 0.253,0.19 0.281,0 0.658,0.062 0.943,0.124 0.629,0.128 0.785,0.819 0.91,1.729 0.157,1.323 0.157,3.806 0.157,6.825 l 0,13.295 -4.212,-0.062 c -1.948,-0.029 -2.705,-0.252 -3.205,-1.005 -0.347,-0.534 -0.442,-0.753 -0.537,-0.976 -0.092,-0.249 -0.187,-0.314 -0.315,-0.314 -0.091,0 -0.157,0.095 -0.157,0.285 0,0.314 0.629,3.016 0.695,3.268 0.061,0.19 0.186,0.599 0.314,0.599 0.219,0 0.533,-0.314 1.382,-0.38 0.91,-0.091 2.105,-0.157 2.482,-0.157 l 11.35,0 c 1.006,0 1.729,0.095 2.234,0.157 0.471,0.095 0.753,0.158 0.877,0.158 0.157,0 0.157,-0.187 0.157,-0.377 0,-0.944 -0.091,-3.111 -0.091,-3.458 0,-0.282 -0.095,-0.41 -0.22,-0.41 -0.16,0 -0.222,0.095 -0.252,0.537 L 7.826,11.504 C 7.702,12.447 6.978,13.171 3.959,13.233 L 0,13.295 0,0 z"
             id="path5108"
             style="fill:#15356f;fill-opacity:1;fill-rule:nonzero;stroke:none" />
        </g>
        <g
           transform="translate(469.2388,666.1189)"
           id="g5110">
          <path
             d="m 0,0 c 0,-3.019 0,-5.502 0.157,-6.825 0.092,-0.91 0.281,-1.601 1.225,-1.729 0.438,-0.062 1.133,-0.124 1.415,-0.124 0.189,0 0.251,-0.095 0.251,-0.19 0,-0.157 -0.156,-0.249 -0.504,-0.249 -1.729,0 -3.71,0.092 -3.867,0.092 -0.158,0 -2.135,-0.092 -3.079,-0.092 -0.347,0 -0.504,0.062 -0.504,0.249 0,0.095 0.062,0.19 0.253,0.19 0.281,0 0.658,0.062 0.943,0.124 0.629,0.128 0.785,0.819 0.91,1.729 0.157,1.323 0.157,3.806 0.157,6.825 l 0,13.295 -4.212,-0.062 c -1.948,-0.029 -2.705,-0.252 -3.205,-1.005 -0.347,-0.534 -0.442,-0.753 -0.537,-0.976 -0.092,-0.249 -0.187,-0.314 -0.315,-0.314 -0.091,0 -0.157,0.095 -0.157,0.285 0,0.314 0.629,3.016 0.695,3.268 0.061,0.19 0.186,0.599 0.314,0.599 0.219,0 0.533,-0.314 1.382,-0.38 0.91,-0.091 2.105,-0.157 2.482,-0.157 l 11.35,0 c 1.006,0 1.729,0.095 2.234,0.157 0.471,0.095 0.753,0.158 0.877,0.158 0.157,0 0.157,-0.187 0.157,-0.377 0,-0.944 -0.091,-3.111 -0.091,-3.458 0,-0.282 -0.095,-0.41 -0.22,-0.41 -0.16,0 -0.222,0.095 -0.252,0.537 L 7.826,11.504 C 7.702,12.447 6.978,13.171 3.959,13.233 L 0,13.295 0,0 z"
             id="path5112"
             style="fill:none;stroke:#15356f;stroke-width:0.454;stroke-linecap:butt;stroke-linejoin:miter;stroke-miterlimit:3.86400008;stroke-opacity:1;stroke-dasharray:none" />
        </g>
        <g
           transform="translate(502.5294,666.1189)"
           id="g5114">
          <path
             d="m 0,0 c 0,-3.019 0,-5.502 0.158,-6.825 0.095,-0.91 0.282,-1.601 1.224,-1.729 0.442,-0.062 1.133,-0.124 1.415,-0.124 0.19,0 0.252,-0.095 0.252,-0.19 0,-0.157 -0.157,-0.249 -0.504,-0.249 -1.729,0 -3.707,0.092 -3.864,0.092 -0.158,0 -2.139,-0.092 -3.082,-0.092 -0.347,0 -0.504,0.062 -0.504,0.249 0,0.095 0.061,0.19 0.252,0.19 0.282,0 0.661,0.062 0.943,0.124 0.629,0.128 0.786,0.819 0.91,1.729 0.157,1.323 0.157,3.806 0.157,6.825 l 0,13.295 -4.65,-0.062 c -1.952,-0.029 -2.705,-0.252 -3.209,-1.005 -0.344,-0.534 -0.438,-0.753 -0.534,-0.976 -0.095,-0.249 -0.186,-0.314 -0.314,-0.314 -0.095,0 -0.157,0.095 -0.157,0.285 0,0.314 0.629,3.016 0.69,3.268 0.066,0.19 0.191,0.599 0.315,0.599 0.223,0 0.537,-0.314 1.386,-0.38 0.909,-0.091 2.105,-0.157 2.482,-0.157 l 11.788,0 c 1.006,0 1.73,0.095 2.234,0.157 0.472,0.095 0.753,0.158 0.881,0.158 0.157,0 0.157,-0.187 0.157,-0.377 0,-0.944 -0.095,-3.111 -0.095,-3.458 0,-0.282 -0.095,-0.41 -0.219,-0.41 -0.157,0 -0.223,0.095 -0.252,0.537 L 7.827,11.504 C 7.703,12.447 6.979,13.171 3.959,13.233 L 0,13.295 0,0 z"
             id="path5116"
             style="fill:#15356f;fill-opacity:1;fill-rule:nonzero;stroke:none" />
        </g>
        <g
           transform="translate(502.5294,666.1189)"
           id="g5118">
          <path
             d="m 0,0 c 0,-3.019 0,-5.502 0.158,-6.825 0.095,-0.91 0.282,-1.601 1.224,-1.729 0.442,-0.062 1.133,-0.124 1.415,-0.124 0.19,0 0.252,-0.095 0.252,-0.19 0,-0.157 -0.157,-0.249 -0.504,-0.249 -1.729,0 -3.707,0.092 -3.864,0.092 -0.158,0 -2.139,-0.092 -3.082,-0.092 -0.347,0 -0.504,0.062 -0.504,0.249 0,0.095 0.061,0.19 0.252,0.19 0.282,0 0.661,0.062 0.943,0.124 0.629,0.128 0.786,0.819 0.91,1.729 0.157,1.323 0.157,3.806 0.157,6.825 l 0,13.295 -4.65,-0.062 c -1.952,-0.029 -2.705,-0.252 -3.209,-1.005 -0.344,-0.534 -0.438,-0.753 -0.534,-0.976 -0.095,-0.249 -0.186,-0.314 -0.314,-0.314 -0.095,0 -0.157,0.095 -0.157,0.285 0,0.314 0.629,3.016 0.69,3.268 0.066,0.19 0.191,0.599 0.315,0.599 0.223,0 0.537,-0.314 1.386,-0.38 0.909,-0.091 2.105,-0.157 2.482,-0.157 l 11.788,0 c 1.006,0 1.73,0.095 2.234,0.157 0.472,0.095 0.753,0.158 0.881,0.158 0.157,0 0.157,-0.187 0.157,-0.377 0,-0.944 -0.095,-3.111 -0.095,-3.458 0,-0.282 -0.095,-0.41 -0.219,-0.41 -0.157,0 -0.223,0.095 -0.252,0.537 L 7.827,11.504 C 7.703,12.447 6.979,13.171 3.959,13.233 L 0,13.295 0,0 z"
             id="path5120"
             style="fill:none;stroke:#15356f;stroke-width:0.454;stroke-linecap:butt;stroke-linejoin:miter;stroke-miterlimit:3.86400008;stroke-opacity:1;stroke-dasharray:none" />
        </g>
        <g
           transform="translate(378.7439,671.65)"
           id="g5122">
          <path
             d="M 0,0 C 0,4.905 0,5.786 -0.066,6.792 -0.128,7.859 -0.38,8.364 -1.415,8.583 -1.667,8.645 -2.2,8.678 -2.486,8.678 c -0.124,0 -0.252,0.062 -0.252,0.187 0,0.19 0.157,0.252 0.505,0.252 1.414,0 3.396,-0.095 3.553,-0.095 0.219,0 8.92,0 9.641,0.033 0.599,0.033 1.103,0.094 1.352,0.157 0.157,0.033 0.285,0.157 0.442,0.157 0.092,0 0.125,-0.124 0.125,-0.281 0,-0.223 -0.158,-0.6 -0.252,-1.481 C 12.598,7.296 12.536,5.911 12.47,5.534 12.441,5.377 12.375,5.187 12.251,5.187 c -0.187,0 -0.252,0.157 -0.252,0.409 0,0.22 -0.03,0.757 -0.187,1.134 C 11.589,7.231 8.832,7.607 7.136,7.797 6.602,7.859 3.173,7.892 2.829,7.892 2.702,7.892 2.64,7.797 2.64,7.578 l 0,-8.678 c 0,-0.22 0.032,-0.315 0.189,-0.315 0.406,0 6.717,0 7.441,0.062 0.756,0.066 1.195,0.128 1.477,0.442 0.222,0.253 0.347,0.41 0.471,0.41 0.095,0 0.157,-0.066 0.157,-0.252 0,-0.19 -0.157,-0.724 -0.249,-1.762 -0.062,-0.629 -0.127,-1.791 -0.127,-2.011 0,-0.252 0,-0.599 -0.22,-0.599 -0.157,0 -0.219,0.128 -0.219,0.285 0,0.314 0,0.629 -0.128,1.038 -0.124,0.439 -2.852,0.973 -4.077,1.1 -0.848,0.092 -3.962,0.158 -4.496,0.158 -0.157,0 -0.219,-0.095 -0.219,-0.223 l 0,-2.764 c 0,-1.071 -0.033,-4.716 0,-5.377 0.094,-2.168 0.566,-2.578 3.648,-2.578 0.815,0 4.643,0 5.459,0.344 0.818,0.347 1.195,0.976 1.414,2.266 0.066,0.344 0.128,0.472 0.285,0.472 0.187,0 0.187,-0.252 0.187,-0.472 0,-0.252 -0.249,-2.39 -0.406,-3.052 -0.22,-0.815 -0.472,-0.815 -1.7,-0.815 -4.745,0 -9.297,0.187 -10.207,0.187 -0.062,0 -0.6,-0.03 -1.258,-0.03 -0.628,-0.033 -1.352,-0.062 -1.824,-0.062 -0.347,0 -0.504,0.062 -0.504,0.249 0,0.095 0.066,0.19 0.252,0.19 0.285,0 0.662,0.062 0.943,0.124 0.629,0.128 0.786,0.819 0.914,1.729 C 0,-11.033 0,-8.55 0,-5.531 L 0,0 z"
             id="path5124"
             style="fill:#15356f;fill-opacity:1;fill-rule:nonzero;stroke:none" />
        </g>
        <g
           transform="translate(378.7439,671.65)"
           id="g5126">
          <path
             d="M 0,0 C 0,4.905 0,5.786 -0.066,6.792 -0.128,7.859 -0.38,8.364 -1.415,8.583 -1.667,8.645 -2.2,8.678 -2.486,8.678 c -0.124,0 -0.252,0.062 -0.252,0.187 0,0.19 0.157,0.252 0.505,0.252 1.414,0 3.396,-0.095 3.553,-0.095 0.219,0 8.92,0 9.641,0.033 0.599,0.033 1.103,0.094 1.352,0.157 0.157,0.033 0.285,0.157 0.442,0.157 0.092,0 0.125,-0.124 0.125,-0.281 0,-0.223 -0.158,-0.6 -0.252,-1.481 C 12.598,7.296 12.536,5.911 12.47,5.534 12.441,5.377 12.375,5.187 12.251,5.187 c -0.187,0 -0.252,0.157 -0.252,0.409 0,0.22 -0.03,0.757 -0.187,1.134 C 11.589,7.231 8.832,7.607 7.136,7.797 6.602,7.859 3.173,7.892 2.829,7.892 2.702,7.892 2.64,7.797 2.64,7.578 l 0,-8.678 c 0,-0.22 0.032,-0.315 0.189,-0.315 0.406,0 6.717,0 7.441,0.062 0.756,0.066 1.195,0.128 1.477,0.442 0.222,0.253 0.347,0.41 0.471,0.41 0.095,0 0.157,-0.066 0.157,-0.252 0,-0.19 -0.157,-0.724 -0.249,-1.762 -0.062,-0.629 -0.127,-1.791 -0.127,-2.011 0,-0.252 0,-0.599 -0.22,-0.599 -0.157,0 -0.219,0.128 -0.219,0.285 0,0.314 0,0.629 -0.128,1.038 -0.124,0.439 -2.852,0.973 -4.077,1.1 -0.848,0.092 -3.962,0.158 -4.496,0.158 -0.157,0 -0.219,-0.095 -0.219,-0.223 l 0,-2.764 c 0,-1.071 -0.033,-4.716 0,-5.377 0.094,-2.168 0.566,-2.578 3.648,-2.578 0.815,0 4.643,0 5.459,0.344 0.818,0.347 1.195,0.976 1.414,2.266 0.066,0.344 0.128,0.472 0.285,0.472 0.187,0 0.187,-0.252 0.187,-0.472 0,-0.252 -0.249,-2.39 -0.406,-3.052 -0.22,-0.815 -0.472,-0.815 -1.7,-0.815 -4.745,0 -9.297,0.187 -10.207,0.187 -0.062,0 -0.6,-0.03 -1.258,-0.03 -0.628,-0.033 -1.352,-0.062 -1.824,-0.062 -0.347,0 -0.504,0.062 -0.504,0.249 0,0.095 0.066,0.19 0.252,0.19 0.285,0 0.662,0.062 0.943,0.124 0.629,0.128 0.786,0.819 0.914,1.729 C 0,-11.033 0,-8.55 0,-5.531 L 0,0 z"
             id="path5128"
             style="fill:none;stroke:#15356f;stroke-width:0.454;stroke-linecap:butt;stroke-linejoin:miter;stroke-miterlimit:3.86400008;stroke-opacity:1;stroke-dasharray:none" />
        </g>
        <g
           transform="translate(514.0568,671.4797)"
           id="g5130">
          <path
             d="M 0,0 C 0,4.902 0,5.783 -0.062,6.789 -0.124,7.859 -0.377,8.36 -1.415,8.58 -1.667,8.645 -2.2,8.675 -2.482,8.675 c -0.128,0 -0.252,0.062 -0.252,0.19 0,0.186 0.157,0.252 0.504,0.252 1.414,0 3.393,-0.095 3.549,-0.095 0.22,0 8.921,0 9.645,0.029 0.596,0.033 1.1,0.095 1.353,0.158 0.157,0.032 0.281,0.16 0.438,0.16 0.095,0 0.128,-0.128 0.128,-0.285 0,-0.219 -0.157,-0.596 -0.252,-1.477 C 12.598,7.293 12.536,5.911 12.474,5.531 12.441,5.374 12.379,5.187 12.254,5.187 c -0.19,0 -0.252,0.157 -0.252,0.406 0,0.223 -0.033,0.757 -0.19,1.133 C 11.593,7.231 8.836,7.607 7.136,7.794 6.602,7.859 3.177,7.889 2.83,7.889 2.705,7.889 2.643,7.794 2.643,7.575 l 0,-8.675 c 0,-0.223 0.029,-0.315 0.187,-0.315 0.409,0 6.719,0 7.443,0.063 0.753,0.062 1.195,0.124 1.477,0.438 0.219,0.252 0.347,0.41 0.472,0.41 0.095,0 0.157,-0.063 0.157,-0.253 0,-0.186 -0.157,-0.723 -0.252,-1.758 -0.063,-0.629 -0.125,-1.795 -0.125,-2.014 0,-0.252 0,-0.596 -0.219,-0.596 -0.158,0 -0.223,0.125 -0.223,0.282 0,0.314 0,0.628 -0.125,1.038 -0.124,0.439 -2.852,0.976 -4.077,1.1 -0.851,0.095 -3.961,0.157 -4.496,0.157 -0.157,0 -0.219,-0.095 -0.219,-0.219 l 0,-2.767 c 0,-1.068 -0.033,-4.716 0,-5.377 0.092,-2.168 0.563,-2.578 3.645,-2.578 0.818,0 4.643,0 5.462,0.347 0.818,0.344 1.195,0.973 1.415,2.263 0.062,0.348 0.124,0.472 0.281,0.472 0.19,0 0.19,-0.252 0.19,-0.472 0,-0.252 -0.252,-2.39 -0.409,-3.049 -0.22,-0.818 -0.472,-0.818 -1.697,-0.818 -4.748,0 -9.296,0.19 -10.211,0.19 -0.061,0 -0.595,-0.033 -1.256,-0.033 -0.63,-0.03 -1.35,-0.062 -1.822,-0.062 -0.346,0 -0.504,0.062 -0.504,0.252 0,0.095 0.063,0.187 0.253,0.187 0.281,0 0.658,0.065 0.943,0.127 0.628,0.125 0.785,0.816 0.91,1.729 C 0,-11.036 0,-8.554 0,-5.534 L 0,0 z"
             id="path5132"
             style="fill:#15356f;fill-opacity:1;fill-rule:nonzero;stroke:none" />
        </g>
        <g
           transform="translate(514.0568,671.4797)"
           id="g5134">
          <path
             d="M 0,0 C 0,4.902 0,5.783 -0.062,6.789 -0.124,7.859 -0.377,8.36 -1.415,8.58 -1.667,8.645 -2.2,8.675 -2.482,8.675 c -0.128,0 -0.252,0.062 -0.252,0.19 0,0.186 0.157,0.252 0.504,0.252 1.414,0 3.393,-0.095 3.549,-0.095 0.22,0 8.921,0 9.645,0.029 0.596,0.033 1.1,0.095 1.353,0.158 0.157,0.032 0.281,0.16 0.438,0.16 0.095,0 0.128,-0.128 0.128,-0.285 0,-0.219 -0.157,-0.596 -0.252,-1.477 C 12.598,7.293 12.536,5.911 12.474,5.531 12.441,5.374 12.379,5.187 12.254,5.187 c -0.19,0 -0.252,0.157 -0.252,0.406 0,0.223 -0.033,0.757 -0.19,1.133 C 11.593,7.231 8.836,7.607 7.136,7.794 6.602,7.859 3.177,7.889 2.83,7.889 2.705,7.889 2.643,7.794 2.643,7.575 l 0,-8.675 c 0,-0.223 0.029,-0.315 0.187,-0.315 0.409,0 6.719,0 7.443,0.063 0.753,0.062 1.195,0.124 1.477,0.438 0.219,0.252 0.347,0.41 0.472,0.41 0.095,0 0.157,-0.063 0.157,-0.253 0,-0.186 -0.157,-0.723 -0.252,-1.758 -0.063,-0.629 -0.125,-1.795 -0.125,-2.014 0,-0.252 0,-0.596 -0.219,-0.596 -0.158,0 -0.223,0.125 -0.223,0.282 0,0.314 0,0.628 -0.125,1.038 -0.124,0.439 -2.852,0.976 -4.077,1.1 -0.851,0.095 -3.961,0.157 -4.496,0.157 -0.157,0 -0.219,-0.095 -0.219,-0.219 l 0,-2.767 c 0,-1.068 -0.033,-4.716 0,-5.377 0.092,-2.168 0.563,-2.578 3.645,-2.578 0.818,0 4.643,0 5.462,0.347 0.818,0.344 1.195,0.973 1.415,2.263 0.062,0.348 0.124,0.472 0.281,0.472 0.19,0 0.19,-0.252 0.19,-0.472 0,-0.252 -0.252,-2.39 -0.409,-3.049 -0.22,-0.818 -0.472,-0.818 -1.697,-0.818 -4.748,0 -9.296,0.19 -10.211,0.19 -0.061,0 -0.595,-0.033 -1.256,-0.033 -0.63,-0.03 -1.35,-0.062 -1.822,-0.062 -0.346,0 -0.504,0.062 -0.504,0.252 0,0.095 0.063,0.187 0.253,0.187 0.281,0 0.658,0.065 0.943,0.127 0.628,0.125 0.785,0.816 0.91,1.729 C 0,-11.036 0,-8.554 0,-5.534 L 0,0 z"
             id="path5136"
             style="fill:none;stroke:#15356f;stroke-width:0.454;stroke-linecap:butt;stroke-linejoin:miter;stroke-miterlimit:3.86400008;stroke-opacity:1;stroke-dasharray:none" />
        </g>
        <g
           transform="translate(445.2248,657.3525)"
           id="g5138">
          <path
             d="m 0,0 c -0.524,0.219 -0.56,0.347 -0.56,1.195 0,1.572 0.147,2.83 0.187,3.331 0.036,0.347 0.111,0.504 0.298,0.504 0.226,0 0.262,-0.095 0.262,-0.347 0,-0.282 0,-0.724 0.111,-1.163 0.56,-2.325 3.026,-3.206 5.531,-3.206 3.586,0 5.341,2.168 5.341,4.182 0,2.168 -1.228,4.152 -4.44,6.386 l -1.684,1.163 c -3.959,2.734 -4.856,4.682 -4.856,6.821 0,3.366 2.99,5.659 7.735,5.659 1.457,0 2.138,-0.109 3.072,-0.299 0.71,-0.124 0.972,-0.117 1.27,-0.117 0.301,0 0.377,-0.063 0.377,-0.22 0,-0.157 0.481,-1.516 0.776,-3.605 0.072,-0.498 -0.072,-0.724 -0.259,-0.724 -0.226,0 -0.262,0.157 -0.301,0.409 -0.036,0.377 -0.753,1.445 -0.976,1.792 -0.226,0.343 -1.231,1.663 -4.67,1.663 -2.577,0 -4.594,-1.349 -4.594,-3.645 0,-1.794 1.044,-2.862 4.555,-5.282 l 1.048,-0.691 c 4.407,-2.924 5.6,-5.6 5.6,-8.115 0,-1.29 -0.6,-3.68 -3.177,-5.22 C 9.042,-0.472 7.024,-0.848 5.007,-0.848 3.249,-0.848 1.533,-0.629 0,0"
             id="path5140"
             style="fill:#15356f;fill-opacity:1;fill-rule:nonzero;stroke:none" />
        </g>
        <g
           transform="translate(445.2248,657.3525)"
           id="g5142">
          <path
             d="m 0,0 c -0.524,0.219 -0.56,0.347 -0.56,1.195 0,1.572 0.147,2.83 0.187,3.331 0.036,0.347 0.111,0.504 0.298,0.504 0.226,0 0.262,-0.095 0.262,-0.347 0,-0.282 0,-0.724 0.111,-1.163 0.56,-2.325 3.026,-3.206 5.531,-3.206 3.586,0 5.341,2.168 5.341,4.182 0,2.168 -1.228,4.152 -4.44,6.386 l -1.684,1.163 c -3.959,2.734 -4.856,4.682 -4.856,6.821 0,3.366 2.99,5.659 7.735,5.659 1.457,0 2.138,-0.109 3.072,-0.299 0.71,-0.124 0.972,-0.117 1.27,-0.117 0.301,0 0.377,-0.063 0.377,-0.22 0,-0.157 0.481,-1.516 0.776,-3.605 0.072,-0.498 -0.072,-0.724 -0.259,-0.724 -0.226,0 -0.262,0.157 -0.301,0.409 -0.036,0.377 -0.753,1.445 -0.976,1.792 -0.226,0.343 -1.231,1.663 -4.67,1.663 -2.577,0 -4.594,-1.349 -4.594,-3.645 0,-1.794 1.044,-2.862 4.555,-5.282 l 1.048,-0.691 c 4.407,-2.924 5.6,-5.6 5.6,-8.115 0,-1.29 -0.6,-3.68 -3.177,-5.22 C 9.042,-0.472 7.024,-0.848 5.007,-0.848 3.249,-0.848 1.533,-0.629 0,0 z"
             id="path5144"
             style="fill:none;stroke:#15356f;stroke-width:0.454;stroke-linecap:butt;stroke-linejoin:miter;stroke-miterlimit:3.86400008;stroke-opacity:1;stroke-dasharray:none" />
        </g>
        <g
           transform="translate(475.0675,660.4602)"
           id="g5146">
          <path
             d="m 0,0 c -0.651,-1.572 -1.375,-2.767 -3.045,-2.957 -0.292,-0.03 -0.799,-0.062 -1.055,-0.062 -0.18,0 -0.324,-0.063 -0.324,-0.19 0,-0.187 0.216,-0.249 0.688,-0.249 1.706,0 3.7,0.091 4.1,0.091 0.399,0 1.961,-0.091 2.829,-0.091 0.327,0 0.547,0.062 0.547,0.249 0,0.127 -0.112,0.19 -0.363,0.19 l -0.364,0 c -0.616,0 -1.379,0.281 -1.379,0.91 0,0.567 0.18,1.323 0.508,2.109 L 4.32,5.564 c 0.071,0.157 0.183,0.252 0.363,0.252 l 7.801,0 c 0.18,0 0.251,-0.063 0.327,-0.19 l 3.373,-7.735 c 0.219,-0.501 0,-0.786 -0.216,-0.848 -0.148,-0.03 -0.256,-0.095 -0.256,-0.22 0,-0.19 0.4,-0.19 1.091,-0.219 2.502,-0.062 5.151,-0.062 5.695,-0.062 0.399,0 0.726,0.062 0.726,0.249 0,0.157 -0.144,0.19 -0.363,0.19 -0.363,0 -0.907,0.032 -1.451,0.19 -0.763,0.186 -1.814,0.69 -3.12,3.487 -2.214,4.778 -7.913,17.762 -8.456,18.958 -0.435,0.976 -0.579,1.133 -0.799,1.133 -0.216,0 -0.364,-0.19 -0.796,-1.228 L 0,0 z m 5.082,6.946 c -0.107,0 -0.183,0.062 -0.107,0.219 l 3.189,8.488 c 0.184,0.472 0.364,0.472 0.547,0 L 12.156,7.165 C 12.192,7.041 12.192,6.946 12.012,6.946 l -6.93,0 z"
             id="path5148"
             style="fill:#15356f;fill-opacity:1;fill-rule:nonzero;stroke:none" />
        </g>
        <g
           transform="translate(475.0675,660.4602)"
           id="g5150">
          <path
             d="m 0,0 c -0.651,-1.572 -1.375,-2.767 -3.045,-2.957 -0.292,-0.03 -0.799,-0.062 -1.055,-0.062 -0.18,0 -0.324,-0.063 -0.324,-0.19 0,-0.187 0.216,-0.249 0.688,-0.249 1.706,0 3.7,0.091 4.1,0.091 0.399,0 1.961,-0.091 2.829,-0.091 0.327,0 0.547,0.062 0.547,0.249 0,0.127 -0.112,0.19 -0.363,0.19 l -0.364,0 c -0.616,0 -1.379,0.281 -1.379,0.91 0,0.567 0.18,1.323 0.508,2.109 L 4.32,5.564 c 0.071,0.157 0.183,0.252 0.363,0.252 l 7.801,0 c 0.18,0 0.251,-0.063 0.327,-0.19 l 3.373,-7.735 c 0.219,-0.501 0,-0.786 -0.216,-0.848 -0.148,-0.03 -0.256,-0.095 -0.256,-0.22 0,-0.19 0.4,-0.19 1.091,-0.219 2.502,-0.062 5.151,-0.062 5.695,-0.062 0.399,0 0.726,0.062 0.726,0.249 0,0.157 -0.144,0.19 -0.363,0.19 -0.363,0 -0.907,0.032 -1.451,0.19 -0.763,0.186 -1.814,0.69 -3.12,3.487 -2.214,4.778 -7.913,17.762 -8.456,18.958 -0.435,0.976 -0.579,1.133 -0.799,1.133 -0.216,0 -0.364,-0.19 -0.796,-1.228 L 0,0 z m 5.082,6.946 c -0.107,0 -0.183,0.062 -0.107,0.219 l 3.189,8.488 c 0.184,0.472 0.364,0.472 0.547,0 L 12.156,7.165 C 12.192,7.041 12.192,6.946 12.012,6.946 l -6.93,0 z"
             id="path5152"
             style="fill:none;stroke:#15356f;stroke-width:0.454;stroke-linecap:butt;stroke-linejoin:miter;stroke-miterlimit:3.86400008;stroke-opacity:1;stroke-dasharray:none" />
        </g>
        <g
           transform="translate(530.6852,657.9798)"
           id="g5154">
          <path
             d="m 0,0 c 0,-0.501 -0.357,-0.839 -0.778,-0.839 l 0,0.003 C -1.21,-0.839 -1.559,-0.501 -1.559,0 c 0,0.502 0.349,0.836 0.781,0.836 C -0.357,0.836 0,0.502 0,0 m 0.315,0 c 0,0.689 -0.516,1.09 -1.093,1.09 -0.58,0 -1.095,-0.401 -1.095,-1.09 0,-0.689 0.515,-1.09 1.095,-1.09 0.577,0 1.093,0.401 1.093,1.09 m -1.275,0.107 0,0.282 0.176,0 c 0.095,0 0.225,-0.008 0.225,-0.129 0,-0.13 -0.066,-0.153 -0.179,-0.153 l -0.222,0 z m 0,-0.199 0.119,0 0.271,-0.493 0.297,0 -0.3,0.513 c 0.156,0.012 0.282,0.089 0.282,0.305 0,0.269 -0.179,0.355 -0.481,0.355 l -0.438,0 0,-1.173 0.25,0 0,0.493 z"
             id="path5156"
             style="fill:#15356f;fill-opacity:1;fill-rule:evenodd;stroke:none" />
        </g>
      </g>
    </g>
  </g>
</svg>
