<?xml version="1.0" encoding="UTF-8" standalone="no"?>
<!-- Created with Inkscape (http://www.inkscape.org/) -->

<svg
   xmlns:dc="http://purl.org/dc/elements/1.1/"
   xmlns:cc="http://creativecommons.org/ns#"
   xmlns:rdf="http://www.w3.org/1999/02/22-rdf-syntax-ns#"
   xmlns:svg="http://www.w3.org/2000/svg"
   xmlns="http://www.w3.org/2000/svg"
   version="1.1"
   width="892.91339"
   height="229.96062"
   id="svg5177">
  <defs
     id="defs5179" />
  <metadata
     id="metadata5182">
    <rdf:RDF>
      <cc:Work
         rdf:about="">
        <dc:format>image/svg+xml</dc:format>
        <dc:type
           rdf:resource="http://purl.org/dc/dcmitype/StillImage" />
        <dc:title></dc:title>
      </cc:Work>
    </rdf:RDF>
  </metadata>
  <g
     transform="translate(-17.746497,-435.92138)"
     id="layer1">
    <g
       transform="matrix(6.8024748,0,0,6.8024748,-3675.5886,-3206.5282)"
       id="g5284">
      <g
         transform="matrix(0,1.25,1.25,0,559.10205,563.65281)"
         id="g4676">
        <path
           d="m 0,0 -1.472,0 0,-0.116 c 0,-1.107 -0.365,-1.463 -1.505,-1.463 0,0 -4.806,0 -6.567,0 -0.256,0 -0.259,0.455 0.001,0.598 1.932,1.143 6.646,3.904 7.596,4.458 0.069,0.041 0.448,0.236 0.032,0.48 -0.887,0.521 -5.683,3.322 -7.63,4.484 -0.259,0.164 -0.259,0.614 0,0.611 1.767,0 6.568,-0.002 6.568,-0.002 1.167,0 1.505,-0.329 1.505,-1.469 l 0,-0.114 1.416,0 c 0.202,2.488 0.622,4.845 1.232,6.977 l -2.648,0 0,-0.114 c 0,-1.111 -0.338,-1.432 -1.505,-1.432 l -9.04,0 c -1.181,0 -1.505,0.307 -1.505,1.432 l 0,0.114 -2.262,0 0,-6.451 c 0,0 6.158,-3.227 7.785,-4.091 0.153,-0.081 0.154,-0.268 0.004,-0.346 -1.622,-0.845 -7.789,-4.058 -7.789,-4.058 l 0,-6.48 2.262,-0.002 0,0.115 c 0,1.122 0.324,1.429 1.505,1.429 l 9.04,0 c 1.167,0 1.505,-0.321 1.505,-1.429 l 0,-0.115 2.812,0.002 C 0.697,-4.858 0.241,-2.495 0.001,-0.016 L 0,0"
           id="path4678"
           style="fill:#003d7d;fill-opacity:1;fill-rule:nonzero;stroke:none" />
      </g>
      <g
         transform="matrix(0,1.25,1.25,0,584.2133,568.11906)"
         id="g4680">
        <path
           d="m 0,0 c -0.98,-1.581 -1.784,-3.5 -2.397,-5.645 -0.61,-2.132 -1.03,-4.489 -1.232,-6.977 -0.093,-1.158 -0.14,-2.344 -0.138,-3.549 0.002,-1.33 0.072,-2.646 0.195,-3.934 0.24,-2.479 0.696,-4.842 1.339,-6.966 0.636,-2.095 1.449,-3.96 2.419,-5.465 l 0.208,-0.066 0.102,0.193 c -1.14,4.923 -1.718,10.397 -1.718,16.271 0,5.722 0.545,11.408 1.534,16.013 L 0.202,0.071 0,0"
           id="path4682"
           style="fill:#eeb211;fill-opacity:1;fill-rule:nonzero;stroke:none" />
      </g>
      <g
         transform="matrix(0,1.25,1.25,0,565.8433,540.21531)"
         id="g4684">
        <path
           d="M 0,0 0.072,-0.055 0.083,-0.056 C 0.892,-0.066 2.91,-1.27 2.931,-1.283 l 1.901,-1.016 c 1.612,-0.9 2.819,-0.37 4.476,0.541 L 9.339,-1.705 9.307,-1.651 4.461,0.982 C 2.948,1.771 1.671,1.041 0.435,0.335 L 0.038,0.111 0.02,0.096 0,0 z m 0.085,0.067 0.003,0 0.006,-0.002 -0.009,0.002"
           id="path4686"
           style="fill:#eeb211;fill-opacity:1;fill-rule:nonzero;stroke:none" />
      </g>
      <g
         transform="matrix(0,1.25,1.25,0,563.6883,535.98531)"
         id="g4688">
        <path
           d="m 0,0 0.032,-0.053 4.846,-2.633 c 1.514,-0.788 2.791,-0.058 4.026,0.647 l 0.397,0.225 0.018,0.015 0.02,0.095 -0.073,0.055 -0.009,0 c -0.81,0.01 -2.827,1.215 -2.848,1.228 L 4.508,0.595 C 2.896,1.495 1.689,0.966 0.031,0.054 L 0,0 z m 9.254,-1.77 -0.002,-10e-4 -0.006,0.002 0.009,-0.001 -0.001,0"
           id="path4690"
           style="fill:#f6d28b;fill-opacity:1;fill-rule:nonzero;stroke:none" />
      </g>
      <g
         transform="matrix(0,1.25,1.25,0,602.62705,558.52281)"
         id="g4692">
        <path
           d="m 0,0 3.734,1.427 c 0.46,0.177 0.742,0.29 0.783,0.677 l 0.427,0 C 4.928,1.725 4.928,1.339 4.928,0.959 c 0,-0.387 0,-0.766 0.016,-1.153 l -0.427,0 C 4.501,0.241 4.42,0.418 4.154,0.418 4.081,0.418 3.96,0.394 3.782,0.338 l -0.524,-0.177 0,-1.815 0.629,-0.21 c 0.098,-0.032 0.186,-0.056 0.274,-0.056 0.291,0 0.331,0.16 0.356,0.589 l 0.427,0 c -0.016,-0.38 -0.016,-0.75 -0.016,-1.114 0,-0.362 0,-0.71 0.016,-0.996 l -0.427,0 C 4.501,-3.17 4.25,-3.009 3.758,-2.815 L 0,-1.324 0,0 z m 0.866,-0.812 1.794,-0.64 0,1.395 -1.795,-0.578 -0.061,-0.089 0.062,-0.088"
           id="path4694"
           style="fill:#003d7d;fill-opacity:1;fill-rule:nonzero;stroke:none" />
      </g>
      <g
         transform="matrix(0,1.25,1.25,0,593.28205,560.33281)"
         id="g4696">
        <path
           d="m 0,0 0,-0.557 -0.161,0.008 c -0.611,0 -0.883,-0.367 -0.883,-1.034 0,-0.579 0.297,-0.941 0.722,-0.941 0.346,0 0.538,0.194 0.708,0.62 l 0.409,1.019 c 0.282,0.7 0.707,1.046 1.302,1.046 0.932,0 1.471,-0.7 1.471,-2.002 0,-0.57 -0.073,-1.164 -0.209,-1.768 l -1.39,0 0,0.587 0.112,-0.007 c 0.635,0 0.957,0.385 0.957,1.132 0,0.603 -0.266,0.932 -0.748,0.932 -0.344,0 -0.522,-0.168 -0.691,-0.562 L 1.197,-2.467 C 0.86,-3.246 0.499,-3.632 -0.145,-3.632 c -0.884,0 -1.438,0.691 -1.438,1.952 0,0.514 0.08,1.077 0.226,1.68 L 0,0"
           id="path4698"
           style="fill:#003d7d;fill-opacity:1;fill-rule:nonzero;stroke:none" />
      </g>
      <g
         transform="matrix(0,1.25,1.25,0,658.44205,560.43781)"
         id="g4700">
        <path
           d="m 0,0 0,-0.545 -0.158,0.007 c -0.602,0 -0.87,-0.36 -0.87,-1.012 0,-0.568 0.292,-0.921 0.712,-0.921 0.34,0 0.53,0.189 0.697,0.607 l 0.403,0.998 c 0.277,0.684 0.698,1.023 1.284,1.023 0.919,0 1.449,-0.685 1.449,-1.959 0,-0.559 -0.07,-1.14 -0.206,-1.731 l -1.369,0 0,0.574 0.109,-0.008 c 0.627,0 0.943,0.378 0.943,1.109 0,0.591 -0.261,0.913 -0.736,0.913 -0.34,0 -0.515,-0.165 -0.681,-0.55 L 1.18,-2.416 c -0.332,-0.762 -0.687,-1.141 -1.323,-1.141 -0.87,0 -1.416,0.677 -1.416,1.911 0,0.504 0.079,1.056 0.221,1.646 L 0,0"
           id="path4702"
           style="fill:#003d7d;fill-opacity:1;fill-rule:nonzero;stroke:none" />
      </g>
      <g
         transform="matrix(0,1.25,1.25,0,595.5008,558.59906)"
         id="g4704">
        <path
           d="M 0,0 0,1.351 C 0,1.518 -0.016,2.03 -0.016,2.886 l 1.4,0 0,-0.528 -0.049,0 c -0.632,0 -0.76,-0.176 -0.76,-0.767 l 0,-0.352 3.254,0 c 0.439,0 0.632,0.104 0.632,0.511 l 0,0.116 0.423,0 C 4.867,1.51 4.867,1.102 4.867,0.703 c 0,-0.407 0,-0.816 0.017,-1.223 l -0.423,0 0,0.168 c 0,0.408 -0.193,0.512 -0.632,0.512 l -3.254,0 0,-0.432 c 0,-0.536 0.145,-0.719 0.68,-0.719 l 0.129,0.008 0,-0.504 -1.4,0 C -0.016,-0.656 0,-0.16 0,0"
           id="path4706"
           style="fill:#003d7d;fill-opacity:1;fill-rule:nonzero;stroke:none" />
      </g>
      <g
         transform="matrix(0,1.25,1.25,0,606.32705,558.59906)"
         id="g4708">
        <path
           d="M 0,0 0,1.351 C 0,1.518 -0.016,2.03 -0.016,2.885 l 1.408,0 0,-0.527 -0.057,0 c -0.632,0 -0.76,-0.177 -0.76,-0.768 l 0,-0.351 3.254,0 c 0.439,0 0.632,0.103 0.632,0.511 l 0,0.168 0.423,0 C 4.867,1.511 4.867,1.102 4.867,0.703 c 0,-0.407 0,-0.724 0.017,-1.131 l -0.423,0 0,0.076 c 0,0.407 -0.193,0.512 -0.632,0.512 l -3.254,0 0,-0.432 c 0,-0.536 0.145,-0.719 0.68,-0.719 l 0.137,0.007 0,-0.503 -1.408,0 C -0.016,-0.656 0,-0.16 0,0"
           id="path4710"
           style="fill:#003d7d;fill-opacity:1;fill-rule:nonzero;stroke:none" />
      </g>
      <g
         transform="matrix(0,1.25,1.25,0,615.20455,558.59906)"
         id="g4712">
        <path
           d="m 0,0 1.351,0 0,-0.455 -0.216,0 c -0.464,0 -0.56,-0.265 -0.56,-0.856 l 0,-0.983 1.527,0 0,0.279 c 0,0.528 -0.095,0.663 -0.639,0.672 l 0,0.432 1.774,0 0,-0.432 C 2.71,-1.366 2.614,-1.487 2.614,-1.983 l 0,-0.311 1.694,0 0,0.895 c 0,0.799 -0.104,0.975 -0.958,0.991 l 0,0.448 1.534,0 0,-4.013 -0.423,0 0,0.096 c 0,0.432 -0.209,0.512 -0.632,0.512 l -2.798,0 c -0.439,0 -0.623,-0.105 -0.623,-0.512 l 0,-0.096 L 0,-3.973 0,0"
           id="path4714"
           style="fill:#003d7d;fill-opacity:1;fill-rule:nonzero;stroke:none" />
      </g>
      <g
         transform="matrix(0,1.25,1.25,0,620.6033,558.59906)"
         id="g4716">
        <path
           d="m 0,0 c 0,0.36 -0.008,0.719 -0.016,1.063 l 0.424,0 0,-0.096 c 0,-0.439 0.16,-0.519 0.623,-0.519 l 2.151,0 c 0.766,0 1.126,0.247 1.126,0.999 0,0.727 -0.368,1.03 -1.143,1.03 l -2.134,0 C 0.592,2.477 0.408,2.374 0.408,1.966 l 0,-0.095 -0.424,0 C -0.008,2.214 0,2.542 0,2.87 0,3.205 -0.008,3.525 -0.016,3.846 l 0.424,0 0,-0.121 c 0,-0.288 0.199,-0.4 0.623,-0.4 l 2.063,0 c 1.31,0 1.902,-0.551 1.902,-1.958 C 4.996,0.048 4.428,-0.6 3.293,-0.6 l -2.262,0 c -0.416,0 -0.623,-0.072 -0.623,-0.392 l 0,-0.095 -0.424,0 C -0.008,-0.719 0,-0.352 0,0"
           id="path4718"
           style="fill:#003d7d;fill-opacity:1;fill-rule:nonzero;stroke:none" />
      </g>
      <g
         transform="matrix(0,1.25,1.25,0,634.17205,558.59906)"
         id="g4720">
        <path
           d="m 0,0 c 0,0.376 -0.008,0.759 -0.016,1.143 l 0.424,0 0,-0.104 c 0,-0.407 0.184,-0.512 0.623,-0.512 l 2.798,0 c 0.439,0 0.632,0.105 0.632,0.512 l 0,0.104 0.423,0 C 4.867,0.759 4.867,0.376 4.867,0 c 0,-0.384 0,-0.768 0.017,-1.15 l -0.423,0 0,0.095 c 0,0.407 -0.193,0.511 -0.632,0.511 l -2.798,0 c -0.439,0 -0.623,-0.104 -0.623,-0.511 l 0,-0.095 -0.424,0 C -0.008,-0.768 0,-0.384 0,0"
           id="path4722"
           style="fill:#003d7d;fill-opacity:1;fill-rule:nonzero;stroke:none" />
      </g>
      <g
         transform="matrix(0,1.25,1.25,0,646.7383,562.78656)"
         id="g4724">
        <path
           d="m 0,0 c 0.854,-0.017 0.958,-0.192 0.958,-0.992 l 0,-0.895 -1.694,0 0,0.312 c 0,0.495 0.096,0.615 0.623,0.639 l 0,0.431 -1.774,0 0,-0.431 c 0.544,-0.008 0.639,-0.144 0.639,-0.671 l 0,-0.28 -1.527,0 0,0.984 c 0,0.591 0.096,0.855 0.56,0.855 l 0.216,0 0,0.455 -1.351,0 0,-3.957 -0.016,0 c 0.008,-0.287 0.016,-0.6 0.016,-0.927 0,-0.336 -0.008,-0.688 -0.016,-1.071 l 0.424,0 c 0,0.392 0.079,0.576 0.287,0.576 L -2.447,-5.005 0.402,-5.949 0.463,-6.036 0.4,-6.127 -2.463,-7.115 -2.679,-7.163 c -0.223,0 -0.247,0.168 -0.263,0.576 l -0.424,0 c 0.008,-0.44 0.016,-0.84 0.016,-1.183 0,-0.344 -0.008,-0.64 -0.016,-0.888 l 0.424,0 c 0.023,0.273 0.192,0.384 0.542,0.512 l 4.013,1.487 0,1.159 -4.044,1.439 c -0.304,0.103 -0.456,0.224 -0.511,0.511 l 0,0.08 c 0,0.407 0.184,0.512 0.623,0.512 l 2.798,0 c 0.423,0 0.632,-0.08 0.632,-0.512 l 0,-0.096 0.423,0 0,4.013 L 0,0.447 0,0"
           id="path4726"
           style="fill:#003d7d;fill-opacity:1;fill-rule:nonzero;stroke:none" />
      </g>
      <g
         transform="matrix(0,1.25,1.25,0,650.4008,558.57906)"
         id="g4728">
        <path
           d="m 0,0 c 0,1.4 0.352,2.054 1.319,2.054 0.599,0 0.991,-0.302 1.127,-0.863 0.064,0.456 0.295,0.568 0.799,0.703 0.496,0.128 0.856,0.185 1.023,0.328 0.1,0.085 0.162,0.191 0.191,0.326 L 4.9,2.547 4.9,1.303 C 4.22,1.008 3.606,0.984 3.181,0.831 2.861,0.719 2.734,0.472 2.734,0.032 l 0,-0.384 1.111,0 c 0.439,0 0.632,0.104 0.632,0.512 l 0,0.104 0.423,0 C 4.883,-0.119 4.883,-0.504 4.883,-0.879 c 0,-0.384 0,-0.767 0.017,-1.151 l -0.423,0 0,0.096 c 0,0.408 -0.193,0.511 -0.632,0.511 l -2.798,0 c -0.439,0 -0.623,-0.103 -0.623,-0.511 l 0,-0.096 L 0,-2.03 0,0 z m 2.214,-0.352 0,0.368 c 0,0.696 -0.207,1.015 -0.792,1.015 -0.607,0 -0.831,-0.303 -0.831,-0.974 l 0,-0.409 1.623,0"
           id="path4730"
           style="fill:#003d7d;fill-opacity:1;fill-rule:nonzero;stroke:none" />
      </g>
      <g
         transform="matrix(0,1.25,1.25,0,660.5858,558.59906)"
         id="g4732">
        <path
           d="m 0,0 c 0,0.376 -0.008,0.759 -0.016,1.143 l 0.424,0 0,-0.105 c 0,-0.406 0.184,-0.51 0.623,-0.51 l 2.798,0 c 0.439,0 0.632,0.104 0.632,0.51 l 0,0.105 0.423,0 C 4.867,0.759 4.867,0.376 4.867,0 c 0,-0.383 0,-0.768 0.017,-1.151 l -0.423,0 0,0.096 c 0,0.407 -0.193,0.511 -0.632,0.511 l -2.798,0 c -0.439,0 -0.623,-0.104 -0.623,-0.511 l 0,-0.096 -0.424,0 C -0.008,-0.768 0,-0.383 0,0"
           id="path4734"
           style="fill:#003d7d;fill-opacity:1;fill-rule:nonzero;stroke:none" />
      </g>
      <g
         transform="matrix(0,1.25,1.25,0,664.09205,558.59906)"
         id="g4736">
        <path
           d="M 0,0 0,1.351 C 0,1.519 -0.016,2.03 -0.016,2.886 l 1.395,0 0,-0.527 -0.044,0 c -0.632,0 -0.76,-0.177 -0.76,-0.768 l 0,-0.353 3.254,0 c 0.439,0 0.632,0.105 0.632,0.512 l 0,0.169 0.423,0 C 4.867,1.51 4.867,1.103 4.867,0.704 c 0,-0.408 0,-0.816 0.017,-1.223 l -0.423,0 0,0.167 c 0,0.408 -0.193,0.512 -0.632,0.512 l -3.254,0 0,-0.431 c 0,-0.536 0.145,-0.72 0.68,-0.72 l 0.124,0.008 0,-0.503 -1.395,0 C -0.016,-0.655 0,-0.16 0,0"
           id="path4738"
           style="fill:#003d7d;fill-opacity:1;fill-rule:nonzero;stroke:none" />
      </g>
      <g
         transform="matrix(0,1.25,1.25,0,669.11455,558.59906)"
         id="g4740">
        <path
           d="m 0,0 c 0,0.342 -0.008,0.703 -0.016,1.062 l 0.424,0 0,-0.04 c 0,-0.256 0.071,-0.368 0.232,-0.368 0.08,0 0.176,0.04 0.287,0.096 L 2.013,1.286 2.075,1.375 2.015,1.464 0.967,1.997 C 0.855,2.054 0.743,2.085 0.663,2.085 0.479,2.085 0.408,1.965 0.408,1.695 l -0.424,0 C -0.008,2.037 0,2.366 0,2.693 0,3.013 -0.008,3.332 -0.016,3.644 l 0.424,0 0,-0.032 c 0,-0.256 0.184,-0.407 0.535,-0.624 l 1.951,-1.191 0.991,0 c 0.423,0 0.576,0.08 0.576,0.544 l 0,0.112 0.423,0 C 4.867,2.077 4.867,1.695 4.867,1.302 c 0,-0.383 0,-0.776 0.017,-1.167 l -0.423,0 0,0.112 c 0,0.456 -0.153,0.544 -0.576,0.544 l -1.008,0 -1.942,-1.12 C 0.607,-0.52 0.424,-0.68 0.408,-1.008 l -0.424,0 C -0.008,-0.68 0,-0.344 0,0"
           id="path4742"
           style="fill:#003d7d;fill-opacity:1;fill-rule:nonzero;stroke:none" />
      </g>
      <g
         transform="matrix(0,1.25,1.25,0,628.2033,558.58906)"
         id="g4744">
        <path
           d="M 0,0 3.651,1.708 3.711,1.823 3.614,1.892 1.056,1.871 C 0.613,1.871 0.428,1.774 0.428,1.355 l 0,-0.098 -0.428,0 C 0.008,1.605 0.016,1.943 0.016,2.29 0.016,2.645 0.008,2.992 0,3.347 l 0.428,0 0,-0.097 c 0,-0.412 0.185,-0.516 0.628,-0.516 l 3.889,0 0,-1.371 L 1.298,-0.351 1.246,-0.454 1.337,-0.53 3.88,-0.516 c 0.443,0 0.637,0.096 0.637,0.516 l 0,0.096 0.428,0 C 4.928,-0.25 4.928,-0.598 4.928,-0.945 c 0,-0.346 0,-0.692 0.017,-1.047 l -0.428,0 0,0.096 c 0,0.412 -0.194,0.525 -0.637,0.525 l -2.824,0 c -0.443,0 -0.628,-0.113 -0.628,-0.525 l 0,-0.096 L 0,-1.992 0,0"
           id="path4746"
           style="fill:#003d7d;fill-opacity:1;fill-rule:nonzero;stroke:none" />
      </g>
      <g
         transform="matrix(0,1.25,1.25,0,614.56955,549.69906)"
         id="g4748">
        <path
           d="M 0,0 C 3.048,0 4.796,-1.703 4.796,-4.602 4.796,-7.5 3.048,-9.203 0,-9.203 c -3.048,0 -4.78,1.703 -4.78,4.601 C -4.78,-1.703 -3.048,0 0,0 z m -0.014,-7.052 c 2.375,0 3.63,0.897 3.63,2.45 0,1.569 -1.241,2.451 -3.63,2.451 -2.391,0 -3.646,-0.867 -3.646,-2.451 0,-1.569 1.255,-2.45 3.646,-2.45"
           id="path4750"
           style="fill:#003d7d;fill-opacity:1;fill-rule:nonzero;stroke:none" />
      </g>
      <path
         d="m 619.10205,543.98531 3.95875,8.455 c 0,0 0.0813,0.18875 0.26375,0.1375 0.16,-0.0462 0.15875,-0.2275 0.15875,-0.2275 l -0.0475,-5.92 c 0,-1.0275 -0.225,-1.45625 -1.19625,-1.45625 l -0.22375,0 0,-0.98875 c 0.80375,0.0175 1.5875,0.0362 2.39125,0.0362 0.82125,0 1.62375,-0.0188 2.44625,-0.0362 l 0,0.98875 -0.225,0 c -0.9525,0 -1.195,0.42875 -1.195,1.45625 l 0,9.0025 -3.175,0 -4.00625,-8.0575 c 0,0 -0.075,-0.16 -0.24,-0.12 -0.165,0.04 -0.17625,0.2125 -0.17625,0.2125 l 0.0725,5.5 c 0,1.0275 0.2225,1.475 1.19375,1.475 l 0.22375,0 0,0.99 c -0.8025,-0.0375 -1.605,-0.0375 -2.40875,-0.0375 -0.8025,0 -1.60625,0 -2.4275,0.0375 l 0,-0.99 0.22375,0 c 0.9525,0 1.215,-0.4475 1.215,-1.475 l 0,-6.5375 c 0,-1.0275 -0.2625,-1.45625 -1.215,-1.45625 l -0.22375,0 0,-0.98875 4.6125,0"
         id="path4754"
         style="fill:#003d7d;fill-opacity:1;fill-rule:nonzero;stroke:none" />
      <g
         transform="matrix(0,1.25,1.25,0,630.9008,544.02156)"
         id="g4756">
        <path
           d="m 0,0 0,2.524 c 0,0.314 -0.029,1.269 -0.029,2.869 l 2.764,0 0,-0.986 c -0.091,0 -0.164,0 -0.24,0 -1.18,0 -1.419,-0.329 -1.419,-1.434 l 0,-0.658 6.081,0 c 0.822,0 1.18,0.194 1.18,0.956 l 0,0.314 0.792,0 C 9.099,2.823 9.099,2.061 9.099,1.313 c 0,-0.761 0,-1.523 0.03,-2.285 l -0.792,0 0,0.314 c 0,0.762 -0.358,0.956 -1.18,0.956 l -6.081,0 0,-0.807 c 0,-1.002 0.269,-1.345 1.27,-1.345 0.12,0 0.239,0 0.389,0.015 l 0,-0.941 -2.764,0 C -0.029,-1.226 0,-0.3 0,0"
           id="path4758"
           style="fill:#003d7d;fill-opacity:1;fill-rule:nonzero;stroke:none" />
      </g>
      <g
         transform="matrix(0,1.25,1.25,0,658.97955,544.02156)"
         id="g4760">
        <path
           d="m 0,0 c 0,-0.642 -0.015,-1.271 -0.029,-1.914 l 0.791,0 0,0.18 c 0,0.778 0.343,0.957 1.165,0.957 l 4.736,0.038 c 0,0 0.145,0.001 0.182,-0.126 0.041,-0.147 -0.11,-0.212 -0.11,-0.212 l -6.764,-3.167 0,-3.69 0.791,0 0,0.179 c 0,0.762 0.343,0.971 1.165,0.971 l 5.23,0 c 0.822,0 1.18,-0.209 1.18,-0.971 l 0,-0.001 C 8.263,-8.473 7.74,-8.683 6.888,-9.011 l -6.917,-2.645 0,-2.45 6.962,-2.765 c 0.911,-0.359 1.375,-0.657 1.404,-1.255 l 0.792,0 c -0.03,0.628 -0.03,1.27 -0.03,1.942 0,0.672 0,1.36 0.03,2.062 l -0.792,0 c -0.045,-0.792 -0.12,-1.091 -0.657,-1.091 -0.164,0 -0.329,0.046 -0.508,0.105 l -0.947,0.3 0.001,3.493 0.751,0.286 c 0.33,0.104 0.553,0.149 0.688,0.149 0.493,0 0.643,-0.328 0.672,-1.135 l 0.792,0 c -0.013,0.327 -0.042,2.486 -0.042,3.85 0,1.43 0.034,3.913 0.042,4.101 l -0.792,0 0,-0.18 C 8.337,-5.02 7.979,-5.2 7.157,-5.2 l -4.4,-0.025 c 0,0 -0.137,0.008 -0.17,0.139 -0.032,0.132 0.096,0.193 0.096,0.193 l 6.446,3.174 0,2.541 -7.202,0 c -0.822,0 -1.165,0.193 -1.165,0.955 l 0,0.18 -0.791,0 C -0.015,1.299 0,0.656 0,0 z m 5.076,-14.393 -3.502,1.234 c 0,0 -0.114,0.036 -0.114,0.164 0,0.127 0.113,0.164 0.113,0.164 l 3.517,1.145 -0.014,-2.707"
           id="path4762"
           style="fill:#003d7d;fill-opacity:1;fill-rule:nonzero;stroke:none" />
      </g>
      <g
         transform="matrix(0,1.25,1.25,0,668.8083,543.98531)"
         id="g4764">
        <path
           d="m 0,0 6.917,2.643 c 0.852,0.329 1.375,0.539 1.449,1.256 l 0.792,0 c -0.03,-0.703 -0.03,-1.42 -0.03,-2.123 0,-0.716 0,-1.418 0.03,-2.136 l -0.792,0 C 8.337,0.447 8.187,0.776 7.694,0.776 7.559,0.776 7.336,0.731 7.006,0.626 L 6.247,0.374 6.246,-3.138 7.201,-3.452 c 0.179,-0.059 0.344,-0.104 0.508,-0.104 0.537,0 0.612,0.298 0.657,1.091 l 0.792,0 c -0.03,-0.704 -0.03,-1.391 -0.03,-2.063 0,-0.673 0,-1.314 0.03,-1.942 l -0.792,0 C 8.337,-5.872 7.873,-5.573 6.962,-5.215 L 0,-2.451 0,0 z m 1.603,-1.503 3.516,-1.255 0,2.721 -3.517,-1.138 c 0,0 -0.113,-0.037 -0.113,-0.165 0,-0.128 0.114,-0.163 0.114,-0.163"
           id="path4766"
           style="fill:#003d7d;fill-opacity:1;fill-rule:nonzero;stroke:none" />
      </g>
      <g
         transform="matrix(0,1.25,1.25,0,595.58205,553.65781)"
         id="g4768">
        <path
           d="m 0,0 c 0,-0.13 -0.172,-0.218 -0.172,-0.218 l -4.559,-2.488 c 0,0 -0.227,-0.121 -0.227,-0.241 0,-0.155 0.22,-0.154 0.22,-0.154 l 4.192,0 c 0.821,0 1.18,0.195 1.18,0.957 l 0,0.179 0.791,0 C 1.396,-2.578 1.396,-3.22 1.396,-3.878 c 0,-0.642 0,-1.314 0.029,-2.001 l -0.791,0 0,0.179 c 0,0.777 -0.359,0.941 -1.18,0.956 l -5.23,0.09 -0.075,0 c -0.761,0 -1.091,-0.225 -1.091,-0.971 l 0,-0.18 -0.791,0 c 0.015,0.672 0.03,1.345 0.03,2.032 0,0.672 -0.015,1.054 -0.03,1.726 l 4.231,1.89 c 0,0 0.107,0.037 0.107,0.162 0,0.125 -0.105,0.157 -0.105,0.157 l -4.239,2.032 c 0.015,0.583 0.03,0.919 0.03,1.577 0,0.657 -0.015,1.344 -0.03,2.076 l 0.792,0 0,-0.193 c 0,-0.748 0.313,-0.957 1.075,-0.957 l 0.09,0 5.229,0.09 c 0.822,0.015 1.181,0.164 1.181,0.955 l 0,0.18 0.792,0 C 1.39,5.235 1.39,4.563 1.39,3.905 c 0,-0.657 0,-1.299 0.03,-1.942 l -0.792,0 0,0.194 c 0,0.762 -0.359,0.956 -1.181,0.956 l -4.225,0 C -4.778,3.113 -5,3.131 -5,2.963 -5,2.84 -4.776,2.726 -4.776,2.726 L -0.18,0.221 C -0.18,0.221 0,0.134 0,0"
           id="path4770"
           style="fill:#003d7d;fill-opacity:1;fill-rule:nonzero;stroke:none" />
      </g>
    </g>
  </g>
</svg>
