<svg xmlns="http://www.w3.org/2000/svg" height="21.754" viewBox="0 0 198.00999 21.754379" width="198.01"><g transform="matrix(1.25 0 0 -1.25 -98.08 31.632)"><g transform="translate(.19901)"><path d="m45.4 1.0078c-1.0981 0.038125-2.2605 0.47625-3.0273 0.96875-0.94875 0.61188-1.8722 1.8155-2.2109 2.9668-0.39375 1.3362-0.05296 2.681 0.39453 3.6035 0.47625 0.98562 1.2309 1.7078 2.1484 2.2109 2.7713 1.5225 6.6877 1.2331 7.6602 4.3594 0.78625 2.5262-1.1674 4.7248-3.9355 4.5117-0.92875-0.07125-1.7184-0.42344-2.2715-0.75781-1.9556-1.1856-2.7906-3.1252-3.4219-5.6914-0.33439 0.01812-0.74428-0.03883-1.0293 0.0293-0.0012 2.3425 0.0125 4.6723 0.0625 6.9648 1.4194 0.32688 1.2309-1.0512 2.209-1.0918 0.43499-0.01625 0.79297 0.28695 1.0898 0.45508 1.0244 0.57875 2.0098 1.0323 3.5117 1.1211 0.9975 0.05875 1.8586-0.11633 2.543-0.42383 1.926-0.866 3.802-2.725 3.815-5.451 0.008-1.907-0.866-3.141-2.149-4.056-1.192-0.8511-2.776-1.3061-4.359-1.8149-1.602-0.5144-3.093-1.0626-3.815-2.3633-0.119-0.2137-0.251-0.6151-0.273-0.8164-0.23938-2.1981 1.1731-3.5971 2.9375-3.7246 1.935-0.13812 3.1161 0.77258 3.9961 1.877 0.89375 1.1219 1.3314 2.6266 1.7852 4.1172h0.91016c0.018-2.0013-0.024-4.5182 0.027-6.752h-0.78516c-0.441 0.3362-0.501 1.294-1.151 1.334-0.423 0.0256-0.665-0.3575-0.939-0.5156-0.989-0.5713-2.186-1.1137-3.723-1.0606zm-44.627 0.2734c-0.038125 0.0125-0.063125 0.037969-0.0625 0.089844 0.039375 0.29875-0.016875 0.5557 0 0.9707 0.74562 0.069375 1.6435 0.08875 2.2129 0.48438 0.26438 0.1825 0.69648 0.64242 0.75586 0.9668 0.081875 0.44-0.03125 1.0984-0.03125 1.6953v10.355c0 0.5975 0.0725 1.2015 0 1.7559-0.17562 1.3394-1.5581 1.6834-2.9062 1.7559 0.01875 0.325-0.0375 0.725 0.03125 1 2.4931 0.02125 4.7088-0.05125 7.2051-0.03125 0.088125-0.265 0.054922-0.65117 0.060547-0.99805-1.2594-0.1125-2.2464-0.26422-2.7539-1.1211-0.45-0.75938-0.27344-2.1743-0.27344-3.4512 0-3.0075-0.018125-6.6151 0.03125-9.1738 3.7312 4.8562 7.3289 9.8473 11.02 14.744 0.3975 0.0675 0.91641 0.01187 1.3633 0.03125v-12.08c0-1.3931-0.12062-2.7948 0-4.0273 0.13125-1.345 1.2759-1.832 2.6621-1.877-0.01812-0.33312 0.03945-0.74617-0.0293-1.0293-2.2631 0.011875-4.4463-0.052422-6.7207-0.029297-0.06813 0.285-0.0125 0.6943-0.03125 1.0293 1.8162-0.01125 2.7757 0.7768 2.877 2.4512 0.09437 1.5612 0 3.4351 0 5.2676 0 1.8594 0.02375 3.6939-0.03125 5.2383-3.549-4.635-6.9227-9.4455-10.536-14.017-1.5212 0.00625-3.2888-0.00188-4.8438 0zm68.059 0.00977c-1.1641 0.013672-2.3583 0.031484-3.5117 0.013672v1.0312c0.73126 0.11625 1.3539 0.043906 1.8477 0.30078 1.195 0.62125 1.0898 2.298 1.0898 3.9961 0 2.0481 0.03125 4.3159 0.03125 6.5684 0 1.1325 0.09336 2.2791-0.21289 3.2129-0.53375 1.6294-1.9969 2.7772-3.8145 3.0859-2.9225 0.49375-5.3309-0.92797-5.6934-3.4805-0.14562-1.035-0.0418-2.094-0.06055-3.2402-0.01562-0.99-0.0243-2.1284-0.0293-3.2402-0.0075-1.3625 0.06063-3.2569 0-4.8438-0.01812-0.48312-0.06953-1.075 0.08984-1.4531 0.34936-0.82125 1.3299-0.9032 2.5742-0.87695 0.03125-0.40688 0.025-0.58367 0.03125-1.0605h-8.3574c-0.0075 0.39125-0.005 0.605 0 1 0.6175 0.12062 1.206-0.0002344 1.7266 0.18164 0.93375 0.325 0.94242 1.3092 0.99805 2.5117 0.02813 0.60125 0 1.1797 0 1.7266 0 2.3856 0.03125 4.5044 0.03125 6.8125 0 1.1594-0.01406 2.2871 0.27344 3.1777 0.66812 2.0762 2.6805 3.3426 4.9355 3.8145 4.2431 0.88875 7.8257-0.87086 8.5957-4.1152 0.28314-1.1919 0.12109-2.822 0.12109-4.2695 0.000625-2.1775 0-4.3722 0-6.5703 0-0.70875-0.05891-1.5187 0.15234-2.0605 0.345-0.88438 1.3024-1.0934 2.5137-1.1484-0.0125-0.3575 0.0175-0.79305 0-1.0605-1.0325-0.036875-2.1679-0.027344-3.332-0.013672zm-40.996 0.029297c-2.2667-0.020703-4.7077 0.11711-7.0195 0.021484-0.04188 0.00687-0.0343 0.065469-0.06055 0.089844 0.0075 0.31562-0.02258 0.67008 0.0293 0.93945 0.32812 0.023125 1.0381 0.019219 1.4531 0.15234 0.6575 0.21062 1.0505 0.88969 1.1211 1.6953 0.10375 1.1919 0.03992 2.3641 0.0293 3.5098-0.01938 2.1125-0.0293 4.7997-0.0293 7.0859 0 1.1931 0.13578 2.743-0.12109 3.5117-0.31562 0.94438-1.3955 0.93875-2.5137 1-0.04938 0.26625-0.04938 0.73305 0 0.99805 2.3006-0.01563 4.5275 0.03125 6.8438 0.03125 2.3931 0 4.4739-0.01211 6.1758-0.78711 3.0781-1.4019 5.2363-4.2533 5.2363-8.5977 0-2.2512-0.49812-4.0524-1.4531-5.4824-0.911-1.3618-2.21-2.5532-3.723-3.2382-1.61-0.72906-3.702-0.90898-5.9688-0.92969zm1.0625 1.1426c2.85-0.1356 4.613 0.8548 5.602 2.543 0.51125 0.87125 0.76328 1.854 0.87891 3.209 0.20188 2.3575 0.22172 5.4878-0.39453 7.5078-0.31062 1.0156-0.79859 1.8748-1.543 2.5117-1.1131 0.95312-2.8818 1.293-4.9043 1.1211-0.87875-0.07375-1.7174-0.19766-2.0293-0.87891-0.19-0.41375-0.15234-1.1139-0.15234-1.7852v-11.625c0-0.6325-0.01586-1.3459 0.18164-1.7578 0.41063-0.85 1.2882-0.79445 2.3613-0.8457z" fill-rule="evenodd" transform="matrix(.8 0 0 -.8 78.464 25.305)" fill="#FFC82E"/><path d="m92.432 1.0215c-2.6506 0-4.4121 2.1392-4.4121 4.5273v0.023437c0 2.3888 1.7361 4.502 4.3867 4.502s4.4141-2.1379 4.4141-4.5254c0.0125-0.0125 0.0125-0.012266 0-0.025391 0-2.3875-1.738-4.502-4.3887-4.502zm66.662 0c-2.65 0-4.4141 2.1392-4.4141 4.5273v0.023437c0 2.3888 1.7387 4.502 4.3887 4.502 2.6506 0 4.4141-2.1379 4.4141-4.5254 0.0125-0.0125 0.0125-0.012266 0-0.025391 0-2.3875-1.738-4.502-4.3887-4.502zm-18.512 0.087891-4.0762 8.8145h0.67578l1.1133-2.4512h5.1641l1.1113 2.4512h0.71289l-4.0762-8.8145h-0.625zm34.35 0-4.0762 8.8145h0.67383l1.1152-2.4512h5.1621l1.1133 2.4512h0.71289l-4.0762-8.8145h-0.625zm-96.213 0.0625v8.752h0.625v-7.7754l6.1641 7.7754h0.48633v-8.752h-0.625v7.6152l-6.0371-7.6152h-0.61328zm20.125 0v8.752h0.65039v-3.627h2.8633l2.7871 3.627h0.82617l-2.8887-3.7383c1.475-0.20062 2.5625-1.0375 2.5625-2.5v-0.025391c0-0.625-0.24961-1.2125-0.66211-1.625-0.52562-0.52562-1.3873-0.86328-2.4629-0.86328h-3.6758zm8.0996 0v0.59961h3.0488v8.1523h0.65234v-8.1523h3.0508v-0.59961h-6.752zm8.5371 0v8.752h0.65039v-4.1016h5.6016v4.1016h0.65039v-8.752h-0.65039v4.0508h-5.6016v-4.0508h-0.65039zm12.75 0v8.752h2.9141c2.7512 0 4.6504-1.9119 4.6504-4.375v-0.025391c0-2.4625-1.8991-4.3516-4.6504-4.3516h-2.9141zm18.715 0v8.752h0.65039v-2.2246l2.1738-2.2012 3.6016 4.4258h0.84961l-3.9883-4.8887 3.8262-3.8633h-0.88867l-5.5742 5.752v-5.752h-0.65039zm17.248 0v0.59961h3.0508v8.1523h0.65039v-8.1523h3.0508v-0.59961h-6.752zm-71.787 0.4375c2.1631 0 3.7383 1.7763 3.7383 3.9395v0.023437c0 2.1631-1.5498 3.9141-3.7129 3.9141s-3.7383-1.7744-3.7383-3.9375v-0.025391c0-2.1631 1.5498-3.9141 3.7129-3.9141zm66.662 0c2.1631 0 3.7383 1.7763 3.7383 3.9395v0.023437c0 2.1631-1.5498 3.9141-3.7129 3.9141-2.1625 0-3.7383-1.7744-3.7383-3.9375v-0.025391c0-2.1631 1.5504-3.9141 3.7129-3.9141zm-59.574 0.16211h2.9883c1.5875 0 2.5117 0.73844 2.5117 1.9141v0.025391c0 1.2625-1.0863 2-2.5488 2h-2.9512v-3.9395zm29.387 0h2.2637c2.4388 0 3.9746 1.7017 3.9746 3.7773v0.023437c0 2.0888-1.5359 3.752-3.9746 3.752h-2.2637v-7.5527zm12.002 0.050781 2.3008 5.0645h-4.6133l2.3125-5.0645zm34.348 0 2.3008 5.0645h-4.6133l2.3125-5.0645zm-93.9 9.5367c-1.6256 0-2.8145 1.0008-2.8145 2.3008v0.02539c0 1.325 0.85055 2.0379 2.9512 2.4629 1.9875 0.40062 2.4746 0.93766 2.4746 1.8633v0.02539c0 0.99938-0.90039 1.7363-2.2129 1.7363-1.2881 0-2.1742-0.41266-3.1367-1.3008l-0.42578 0.48828c1.05 0.9375 2.1248 1.4004 3.5254 1.4004 1.6875 0 2.9004-0.97422 2.9004-2.3867v-0.02734c0-1.275-0.85-1.9996-2.875-2.4121-2.0756-0.42562-2.5508-0.98711-2.5508-1.9121v-0.02539c0-0.91312 0.85055-1.6504 2.1387-1.6504 0.9625 0 1.7877 0.27516 2.6133 0.98828l0.41211-0.51367c-0.88812-0.7125-1.725-1.0625-3-1.0625zm91.635 0c-1.6256 0-2.8125 1.0008-2.8125 2.3008v0.02539c0 1.325 0.84922 2.0379 2.9492 2.4629 1.9881 0.40062 2.4766 0.93766 2.4766 1.8633v0.02539c0 0.99938-0.90038 1.7363-2.2129 1.7363-1.2875 0-2.1762-0.41266-3.1387-1.3008l-0.42383 0.48828c1.05 0.9375 2.1254 1.4004 3.5254 1.4004 1.6881 0 2.9004-0.97422 2.9004-2.3867v-0.02734c0-1.275-0.84938-1.9996-2.875-2.4121-2.075-0.42562-2.5508-0.98711-2.5508-1.9121v-0.02539c0-0.91312 0.84859-1.6504 2.1367-1.6504 0.9625 0 1.7883 0.27516 2.6133 0.98828l0.41406-0.51367c-0.8875-0.7125-1.7263-1.0625-3.002-1.0625zm-76.373 0.0625-4.0762 8.8145h0.67578l1.1113-2.4512h5.1641l1.1133 2.4512h0.71289l-4.0762-8.8145h-0.625zm-10.801 0.0625v0.59961h3.0527v8.1523h0.64844v-8.1523h3.0508v-0.59961h-6.752zm15.473 0v0.59961h3.0508v8.1523h0.65039v-8.1523h3.0508v-0.59961h-6.752zm8.7383 0v8.752h6.2891v-0.59961h-5.6387v-3.5137h5.0137v-0.59961h-5.0137v-3.4395h5.5762v-0.59961h-6.2266zm11.738 0v5.1133c0 2.4506 1.4879 3.7754 3.5879 3.7754 2.125 0 3.5879-1.3371 3.5879-3.8496v-5.0391h-0.65039v5.1133c0 2.1131-1.1365 3.1895-2.9121 3.1895-1.8506 0-2.9629-1.1888-2.9629-3.252v-5.0508h-0.65039zm9.4121 0v8.752h0.625v-7.7754l6.1641 7.7754h0.48828v-8.752h-0.625v7.6152l-6.0391-7.6152h-0.61328zm9.5879 0v8.752h0.65039v-8.752h-0.65039zm2.4629 0 3.8496 8.8145h0.57617l3.8496-8.8145h-0.6875l-3.4375 8.0527-3.4258-8.0527h-0.72461zm10 0v8.752h6.2871v-0.59961h-5.6367v-3.5137h5.0117v-0.59961h-5.0117v-3.4395h5.5762v-0.59961h-6.2266zm8.25 0v8.752h0.65039v-3.627h2.8613l2.7891 3.627h0.82422l-2.8867-3.7383c1.475-0.20062 2.5625-1.0375 2.5625-2.5v-0.02539c0-0.625-0.24961-1.2125-0.66211-1.625-0.525-0.52562-1.3885-0.86328-2.4629-0.86328h-3.6758zm16.875 0v8.752h0.64844v-8.752h-0.64844zm2.5859 0v0.59961h3.0508v8.1523h0.65039v-8.1523h3.0508v-0.59961h-6.752zm7.6992 0 3.752 5.2891v3.4629h0.65039v-3.4766l3.75-5.2754h-0.77539l-3.2871 4.7012-3.2754-4.7012h-0.81445zm-26.51 0.59961h2.9863c1.5881 0 2.5137 0.73844 2.5137 1.9141v0.02539c0 1.2625-1.0883 2-2.5508 2h-2.9492v-3.9395zm-65.211 0.05078 2.3008 5.0645h-4.6152l2.3145-5.0645z" transform="matrix(.8 0 0 -.8 78.464 25.305)" fill="#005643"/></g></g></svg>
