<svg xmlns="http://www.w3.org/2000/svg" width="144" height="48" viewBox="0 0 144 48"><g fill="#1A8A45" fill-rule="evenodd"><path d="M8.228 24.549v-.057H.108v6.322l2.9 2.391c.773-1.537 2.664-5.106 5.22-8.656"/><path d="M21.28 10.976V5.322L16.233.302H5.386L.107 5.408v10.848l6.73 5.51 3.532.033c1.748-2.065 3.697-3.923 5.748-5.113 0 0-1.847 1.872-4.217 5.127l1.259.011v1.16c.94-1.074 1.939-2.03 2.988-2.794 0 0-1.286 1.605-2.988 4.386v2.469h-1.435a61.102 61.102 0 0 0-3.742 8.12h1.656c1.56-3.99 3.761-8.329 6.62-10.999 0 0-2.69 4.359-4.901 11h4.876l5.047-4.757V19.271l-5.453-5.569H8.228V8.424h4.93v2.552h8.122"/><path d="M8.479 27.044a55.154 55.154 0 0 0-3.71 7.612l.617.509h.51c1.004-2.297 2.458-5.293 4.261-8.121H8.48m31.495-8.18L38.408 8.367l-1.624 10.499h3.19zm12.472 8.18v8.12h-13.11v-8.12h1.914l-.464-2.785h-4.872l-.464 2.785h2.03v8.12H24.37v-8.12h2.9l2.901-18.678h-2.204V.245h20.766v8.12H46.53l2.842 18.679h3.075zM79.187 24.491v10.674H55.404v-8.121h2.61V8.424h-2.61V.303h13.284v8.121h-2.553v18.62h4.931v-2.553h8.121M106.044.303v10.673h-8.121V8.424h-4.93v5.278h8.817v8.121h-2.64c-.638 0-1.238-.01-1.798-.029-.561-.019-1.16-.029-1.798-.029h-2.582v5.279h4.93V24.49h8.122v10.674H82.203v-8.121h2.668V8.424h-2.668V.303h23.84M124.316 35.165l-4.235-12.066v12.066h-10.789v-8.121h2.668V8.424h-2.668V.303h10.847l6.091 17.343h.638L132.843.303h10.963v8.121h-2.668v18.62h2.668v8.121h-10.789V23.099l-4.235 12.066h-4.466M3.715 45.59v-6.324h.764v6.324c0 .913-.946 1.662-2.087 1.662-1.129 0-2.052-.749-2.063-1.662v-6.324h.752v6.324c0 .544.616 1.02 1.311 1.02.696 0 1.323-.476 1.323-1.02"/><path d="M.633 39.57v6.02c.009.748.798 1.358 1.76 1.358.966 0 1.782-.622 1.782-1.357v-6.022H4.02v6.022c0 .705-.76 1.323-1.627 1.323-.875 0-1.615-.606-1.615-1.323v-6.022H.633zm1.76 7.986c-1.293 0-2.355-.88-2.368-1.962v-6.632h1.36v6.629c0 .368.49.716 1.007.716.524 0 1.019-.348 1.019-.716v-6.63h1.372v6.63c0 1.083-1.073 1.965-2.39 1.965zM17.237 47.203h-.741l-.012-7.937h.844l2.69 6.12v-6.12h.753v7.937h-.673l-2.861-6.373v6.373"/><path d="M16.8 46.9h.133v-7.33h-.145l.011 7.33zm3.495 0h.172v-7.33h-.145v7.263l-3.192-7.264h-.126l3.291 7.33zm.78.607h-1.173l-2.361-5.259v5.259h-1.349l-.012-8.545h1.346l2.189 4.978v-4.978h1.36v8.545zM33.7 47.203h-.787l-.011-7.937h.798v7.937"/><path d="M33.217 46.9h.18v-7.33h-.191l.01 7.33zm.787.607H32.61l-.013-8.545h1.407v8.545zM46.355 39.266l1.653 7.131 1.619-7.131h.775l-1.675 7.937H47.29l-1.71-7.937h.775"/><path d="M47.535 46.9h.278l-1.7-7.33h-.157l1.58 7.33zm.67 0h.275l1.548-7.33h-.158l-1.665 7.33zm-.194.855l-.057-.248h-.91l-1.84-8.545h1.392l1.41 6.076 1.379-6.076h1.392l-1.804 8.545h-.906l-.056.248zM65.646 39.266v.641h-2.827v3.167h2.519v.544h-2.519v2.944h2.827v.641h-3.569l-.011-7.937h3.58"/><path d="M62.38 46.9h2.962v-.034h-2.827v-7.263h2.827v-.034H62.37l.01 7.33zm3.57.607h-4.176l-.012-8.545h4.188v1.249h-2.828v2.56h2.52v1.15h-2.52v2.337h2.828v1.249zm12.203-7.6v3.177h1.265c.673 0 1.175-.447 1.175-.943v-1.185c0-.593-.388-1.05-.878-1.05h-1.562zm0 7.296h-.752l-.012-7.937h1.984c1.094 0 1.995.757 1.995 1.69v1.185c0 .437-.33.875-.821 1.186.57.32.9.806.9 1.282v2.594h-.763V44.61c0-.525-.593-.98-1.254-.98h-1.277v3.574z"/><path d="M78.457 42.78h.961c.52 0 .87-.33.87-.639v-1.185c0-.418-.251-.745-.573-.745h-1.258v2.57zm1.986-2.897c.277.245.453.631.453 1.073v1.185c0 .332-.154.634-.405.857.356-.256.573-.577.573-.857v-1.185c0-.432-.242-.819-.621-1.073zM77.704 46.9h.145v-7.296H79.745a2.05 2.05 0 0 0-.372-.034h-1.68l.011 7.33zm3.284 0h.156v-2.29c0-.37-.286-.759-.746-1.017l-.443-.25.163-.103c-.112.05-.233.09-.36.115.694.129 1.23.651 1.23 1.255v2.29zm.764.608H80.38v-2.898c0-.348-.462-.677-.95-.677h-.973v3.575h-1.36l-.012-8.545h2.288c1.267 0 2.298.894 2.298 1.994v1.185c0 .415-.215.828-.603 1.174.434.356.684.82.684 1.294v2.898zm12.42-5.385c0 .524.638.855 1.356.884 1.049.068 2.064.593 2.064 1.409v1.136c0 .933-.946 1.691-2.087 1.691-1.163 0-2.086-.758-2.097-1.69v-.768h.752v.767c0 .554.627 1.05 1.345 1.05.753 0 1.323-.496 1.323-1.05v-1.136c0-.466-.639-.787-1.346-.787-1.105 0-2.074-.642-2.074-1.506v-1.166c0-.933.934-1.69 2.097-1.69 1.163 0 2.087.757 2.087 1.69v.797h-.753v-.797c0-.593-.627-1.05-1.334-1.05-.764 0-1.334.496-1.334 1.05v1.166"/><path d="M95.505 39.57c-.989 0-1.794.621-1.794 1.386v1.166c0 .663.795 1.202 1.771 1.202.118 0 .232.008.342.022a3.146 3.146 0 0 0-.316-.037c-.963-.039-1.64-.527-1.64-1.187v-1.166c0-.746.734-1.353 1.637-1.353s1.638.607 1.638 1.353v.493h.145v-.493c0-.765-.8-1.387-1.783-1.387zm-1.794 5.518v.464c.01.762.814 1.386 1.794 1.386.966 0 1.783-.635 1.783-1.386v-1.137c0-.398-.373-.717-.87-.91.437.192.714.521.714.91v1.137c0 .746-.73 1.353-1.627 1.353-.894 0-1.649-.62-1.649-1.353v-.464h-.145zm1.794 2.458c-1.333 0-2.388-.875-2.401-1.991V44.48h1.36v1.072c0 .344.455.745 1.041.745.61 0 1.02-.386 1.02-.745v-1.137c0-.228-.447-.483-1.043-.483-1.333 0-2.378-.795-2.378-1.81v-1.166c0-1.1 1.077-1.994 2.401-1.994 1.318 0 2.39.894 2.39 1.994v1.1h-1.36v-1.1c0-.404-.471-.745-1.03-.745-.616 0-1.03.385-1.03.745v1.166c0 .301.468.556 1.065.58 1.175.077 2.356.689 2.356 1.713v1.137c0 1.1-1.073 1.994-2.39 1.994zM110.407 47.203h-.787l-.012-7.937h.799v7.937"/><path d="M109.923 46.9h.18v-7.33h-.19l.01 7.33zm.787.607h-1.394l-.012-8.545h1.406v8.545zM124.84 47.203h-.752v-7.296h-1.664v-.641h4.036v.641h-1.62v7.296"/><path d="M124.392 46.9h.145v-7.297h1.619v-.034h-3.429v.034h1.665v7.296zm.752.607h-1.36V40.21h-1.664v-1.25h4.643v1.25h-1.619v7.296zm15.088-.304v-3.828c-.718-1.273-1.562-2.846-2.28-4.11h.855l1.813 3.226c.581-1.05 1.253-2.215 1.812-3.225h.855l-2.302 4.11v3.827h-.753"/><path d="M140.536 46.9h.145v-3.604l2.088-3.727h-.158c-.26.47-.543.97-.828 1.472a215.91 215.91 0 0 0-.898 1.597l-.264.476-1.992-3.545h-.157c.308.55.632 1.14.955 1.727.367.667.732 1.332 1.07 1.93l.039.07v3.603zm.752.607h-1.36v-4.052c-.327-.582-.68-1.223-1.033-1.866-.413-.751-.828-1.506-1.207-2.173l-.259-.454h1.556l1.633 2.907.637-1.128c.315-.557.628-1.11.911-1.622l.087-.157h1.553l-2.518 4.492v4.053z"/></g></svg>