<svg xmlns="http://www.w3.org/2000/svg" height="91.438" viewBox="0 0 167.68799 91.438377" width="167.69"><g transform="matrix(1.25 0 0 -1.25 -195.96 291.86)"><g><path d="m79.41 1.0156c-0.346 0-0.346 0.3407-3.144 1.4395-0.38 0.1512-0.485 0.2291-0.485 0.4941s0.173 0.3023 0.727 0.416c0.829 0.1513 1.002 0.3786 1.002 0.9473v20.8c0 1.479-0.241 1.819-1.381 1.972-0.311 0.037-0.484 0.265-0.484 0.455 0 0.303 0.173 0.455 0.449 0.455 0.484 0 0.759-0.152 2.349-0.152 2.315 0 2.695 0.152 2.903 0.152 0.276 0 0.484-0.114 0.484-0.379 0-0.304-0.105-0.417-0.762-0.531-1.141-0.19-1.486-0.682-1.486-1.553v-10.193c0-1.895 1.831-3.41 3.594-3.41 1.659 0 2.834 1.137 2.834 3.183v10.608c0 0.947-0.277 1.212-1.209 1.365-0.415 0.075-0.656 0.153-0.656 0.494 0 0.303 0.137 0.416 0.517 0.416 0.381 0 0.622-0.152 2.385-0.152 1.381 0 2.419 0.152 2.557 0.152 0.241 0 0.484-0.114 0.484-0.379 0-0.341-0.244-0.456-0.934-0.531-0.76-0.076-1.072-0.569-1.072-1.781v-10.496c-0.104-3.032-2.002-4.319-3.937-4.319-2.35 0-4.008 2.426-4.319 2.426-0.174 0-0.244-0.077-0.244-0.266v-11.101c0-0.4539-0.068-0.5314-0.172-0.5314zm-43.4 2.5c-3.249 0-5.875 2.5403-5.875 5.6465 0 7.0489 9.121 6.6309 9.121 13.299 0 2.841-1.589 5.078-3.869 5.078-2.039 0-3.56-1.668-4.424-6.328-0.069-0.379-0.068-0.568-0.483-0.568-0.38 0-0.484 0.076-0.484 2.728 0 3.41 0.139 3.79 0.623 4.131 0.725 0.491 2.108 0.945 4.043 0.945 3.905 0 6.668-2.804 6.668-7.123 0-7.579-9.121-6.553-9.121-13.26 0-1.9695 1.521-3.6382 3.248-3.6382 1.52 0 2.763 1.1369 3.627 4.4707 0.207 0.7962 0.104 1.4025 0.588 1.4025 0.346 0 0.346-0.077 0.346-2.047 0-3.145 0-3.3702-0.207-3.5977-0.449-0.4938-2.351-1.1387-3.801-1.1387zm35.793 2.0469c-0.242 0-0.243 0.1902-0.588 0.9102-1.763 3.6753-2.832 4.3193-2.832 4.7733 0 0.455 0.241 0.455 0.551 0.455 0.518 0 1.107-0.001 1.107 0.606v12.73c0 2.388 1.002 3.26 2.557 3.26 0.932 0 1.694-0.228 2.177-1.137 0.449-0.835 0.793-2.046 0.793-2.349 0-0.228-0.104-0.303-0.31-0.303-0.554 0-0.794 2.197-2.108 2.197-0.621 0-1.037-0.227-1.037-1.516v-12.503c0-0.569 0.105-0.682 0.449-0.682h1.557c0.725 0 0.932-0.226 0.932-0.719 0-0.455-0.242-0.57-0.863-0.57h-1.383c-0.518 0-0.692-0.228-0.692-0.8341v-3.3711c0-0.835-0.102-0.9473-0.31-0.9473zm-23.674 4.6995c-3.593 0-5.977 4.205-5.977 9.017s2.384 9.018 5.977 9.018c3.594 0 5.978-4.206 5.978-9.018s-2.384-9.017-5.978-9.017zm47.25 0c-2.971 0-5.873 3.03-5.873 9.396 0 5.153 2.21 8.639 6.012 8.639 2.728 0 4.283-2.198 4.283-4.584 0-0.379-0.103-0.455-0.24-0.455-0.243 0-0.243 0.377-0.657 1.287-0.587 1.287-1.556 2.16-3.041 2.16-2.418 0-4.078-2.879-4.078-7.426 0-0.38 0.208-0.681 0.795-0.681h6.324c0.829 0 0.828-0.116 0.828-2.352 0-3.789-1.866-5.984-4.353-5.984zm-40.947 0.302c-0.519 0-0.727 0.265-0.727 0.53 0 0.341 0.207 0.455 0.899 0.531 0.76 0.075 0.966 0.379 0.966 1.137v11.217c0.103 3.257 2.005 4.089 3.94 4.089 2.695 0 3.939-2.347 4.492-2.347 0.207 0 0.24 0.074 0.24 1.476 0 1.023 0.139 1.1 0.242 1.1 0.139 0 1.141-0.569 2.731-1.25 0.449-0.19 0.656-0.378 0.656-0.568 0-0.304-0.172-0.379-0.932-0.456-0.656-0.075-0.794-0.416-0.794-1.781v-12.806c0-0.797-0.174-0.872-0.52-0.872h-3.074c-0.414 0-0.588 0.265-0.588 0.493 0 0.53 0.242 0.454 1.141 0.568 0.863 0.114 0.966 0.455 0.966 1.326v10.268c0 1.895-1.832 3.41-3.593 3.41-1.659 0-2.832-1.135-2.832-3.182v-11.406c0-1.326-0.034-1.477-0.553-1.477h-2.66zm58.598 0c-0.25 0-0.9 0.986-2.73 1.895-0.45 0.227-0.66 0.378-0.66 0.568 0 0.265 0.14 0.305 0.69 0.342 0.9 0.075 1.04 0.152 1.04 1.213v10.836c0 1.477-0.24 1.818-1.38 1.971-0.31 0.037-0.49 0.265-0.49 0.455 0 0.302 0.17 0.453 0.62 0.453 0.31 0 0.59-0.151 2.18-0.151 2.32 0 2.7 0.151 2.9 0.151 0.28 0 0.49-0.114 0.49-0.379 0-0.379-0.18-0.341-1.28-0.529-0.83-0.153-0.97-0.455-0.97-1.327v-10.419c0-1.894 1.83-3.411 3.59-3.411 1.66 0 2.84 1.137 2.84 3.182v10.611c0 0.985-0.28 1.211-1.21 1.364-0.42 0.076-0.66 0.264-0.66 0.492 0 0.302 0.14 0.416 0.52 0.416s0.62-0.151 2.38-0.151c1.94 0 2.42 0.151 2.56 0.151 0.24 0 0.49-0.114 0.49-0.379 0-0.341-0.25-0.453-1.04-0.529-0.69-0.077-0.97-0.53-0.97-1.782v-10.496c-0.1-3.031-2-4.318-3.94-4.318-2.38 0-3.94 2.424-4.56 2.424-0.17 0-0.17-0.114-0.17-2.197 0-0.265-0.11-0.456-0.24-0.456zm-9.44 0.002c-0.27 0-0.41 0.264-0.89 0.832-1.18 1.364-2.32 0.987-2.32 1.745 0 0.227 0.1 0.302 0.34 0.302 1.01 0 1.35 0.265 1.35 1.629v10.268c0 1.744-0.17 1.895-1.14 2.047-0.45 0.076-0.69 0.152-0.72 0.455-0.04 0.341 0.21 0.455 0.65 0.455 0.25 0 0.63-0.153 2.21-0.153 2.08 0 2.39 0.153 2.67 0.153 0.62 0 0.79-0.077 0.79-0.418 0-0.265-0.38-0.34-1.14-0.492-1.17-0.228-1.24-0.684-1.24-2.426v-7.881c0-0.985 0.62-4.697 2.14-4.697 0.34 0 0.34 0.644 0.34 1.25 0 0.834 0.28 1.513 1.21 1.513 0.9 0 1.28-0.869 1.28-2.082 0-1.552-0.65-2.5-1.79-2.5-2.35 0-2.77 3.258-3.29 3.258-0.34 0 0.11-3.258-0.45-3.258zm-55.461 0.604c2.522 0 3.697 4.319 3.697 8.109 0 3.789-1.175 8.108-3.697 8.108-2.523 0-3.695-4.319-3.695-8.108 0-3.79 1.172-8.109 3.695-8.109zm47.043 0c1.52 0 2.625 1.516 2.625 4.131 0 1.022-0.138 1.439-0.449 1.705-0.31 0.265-1.658 0.529-3.973 0.529-1.451 0-1.52-0.151-1.52-0.834 0-3.106 1.451-5.531 3.317-5.531zm33.028 8.99c-0.34 0-0.34 0.343-3.14 1.442-0.38 0.151-0.49 0.227-0.49 0.492s0.18 0.302 0.73 0.416c0.83 0.152 1 0.378 1 0.947v7.309 13.494 7.306c0 1.478-0.24 1.82-1.38 1.971-0.31 0.039-0.48 0.263-0.48 0.453 0 0.304 0.17 0.455 0.45 0.455 0.48 0 0.76-0.15 2.34-0.15 2.32 0 2.7 0.15 2.91 0.15 0.28 0 0.48-0.112 0.48-0.379 0-0.302-0.1-0.414-0.76-0.529-1.14-0.189-1.48-0.681-1.48-1.553v-7.308-2.885c0-1.895 1.83-3.41 3.59-3.41 1.66 0 2.83 1.137 2.83 3.183v10.608c0 0.947-0.27 1.214-1.21 1.365-0.41 0.076-0.65 0.152-0.65 0.492 0 0.304 0.13 0.416 0.52 0.416 0.37 0 0.62-0.15 2.38-0.15 1.38 0 2.42 0.15 2.56 0.15 0.24 0 0.48-0.112 0.48-0.379 0-0.338-0.24-0.453-0.93-0.529-0.76-0.075-1.07-0.569-1.07-1.781v-10.496c-0.11-3.03-2.01-4.319-3.94-4.319-2.35 0-4.01 2.424-4.32 2.424-0.17 0-0.24-0.075-0.24-0.263v-7.309-3.795-7.307c0-0.453-0.07-0.531-0.18-0.531zm13.98 10.264c-0.65 0-1.28 0.568-1.28 1.894 0 1.364 0.63 1.897 1.28 1.897 0.69 0 1.28-0.533 1.28-1.897 0-1.326-0.59-1.894-1.28-1.894zm-91.121 1.826c-0.623 0-0.692 0.211-0.692 0.42 0 0.455 0.312 0.247 1.487 0.562 0.38 0.105 0.517 0.35 0.517 1.225v17.469c0 0.981-0.137 1.26-1.588 1.574-0.311 0.071-0.451 0.247-0.451 0.422 0 0.349 0.14 0.525 0.52 0.525 0.587 0 0.726-0.14 2.66-0.14 1.97 0 1.969 0.14 2.486 0.14 0.554 0 0.658-0.176 0.658-0.455 0-0.385-0.519-0.421-1.037-0.527-0.554-0.104-0.969-0.454-0.969-1.469v-8.473c0-0.281 0.037-0.419 0.28-0.419h7.117c0.207 0 0.275 0.138 0.275 0.349v8.578c0 0.945-0.207 1.259-0.967 1.434-0.828 0.176-1.001 0.246-1.001 0.49 0 0.385 0.173 0.492 0.933 0.492 0.484 0 0.656-0.14 2.211-0.14 1.313 0 1.97 0.14 2.488 0.14 0.448 0 0.553-0.14 0.553-0.386 0-0.419-0.692-0.315-1.35-0.596-0.38-0.175-0.585-0.629-0.585-1.469v-18.1c0-0.315 0.275-0.594 0.724-0.664 0.76-0.106 1.315-0.247 1.315-0.666 0-0.175-0.105-0.316-0.52-0.316-0.622 0-0.863 0.141-2.557 0.141-1.312 0-1.797-0.141-2.488-0.141-0.484 0-0.795 0.107-0.795 0.457 0 0.385 0.451 0.385 1.279 0.525 0.623 0.105 0.76 0.524 0.76 1.434v7.004c0 0.35-0.033 0.455-0.275 0.455h-7.084c-0.241 0-0.313-0.143-0.313-0.387v-7.562c0-0.63 0.383-0.874 0.901-0.944 0.691-0.106 1.035-0.071 1.035-0.562 0-0.279-0.137-0.42-0.69-0.42-0.622 0-1.416 0.141-2.417 0.141-0.899 0-1.937-0.141-2.42-0.141zm-49.004 0.305c-0.2775 0-0.7598 0.034-0.7598 0.416 0 0.448 0.3101 0.416 1.1739 0.554 0.6562 0.104 0.7949 0.691 0.7949 1.903v16.101c0 1.038-0.1387 1.766-0.7949 2.008-0.38 0.139-1.4844 0.206-1.4844 0.621-0.00002 0.208 0.1014 0.348 0.3789 0.348 0.5525 0 1.0362-0.141 2.7637-0.141 1.935 0 2.0049 0.141 2.4199 0.141 0.3112 0 0.5176-0.07 0.5176-0.348 0-0.589-0.7943-0.413-1.7618-0.621-0.8637-0.172-1.0703-1.316-1.0703-4.709v-12.187c0-0.658 0.0678-0.762 0.2403-0.762 0.3462 0 0.3115 0.552 4.9765 9.174 5.2528 9.695 5.1828 10.074 5.5978 10.074 0.38 0 0.379-0.034 0.379-1.004v-18.764c0-1.141 0.209-1.695 1.004-1.834 0.828-0.138 1.174-0.139 1.174-0.554 0-0.312-0.104-0.416-0.553-0.416-0.656 0-1.348 0.138-2.108 0.138-1.555 0-2.04-0.138-2.42-0.138-0.241 0-0.447 0.173-0.447 0.416 0 0.346 0.483 0.449 1.174 0.554 0.795 0.104 1.209 0.623 1.209 2.561v12.742c0 0.311-0.034 0.484-0.172 0.484-0.139 0-0.278-0.139-3.146-5.644l-4.9398-9.486c-0.4138-0.832-0.5528-1.487-1.0703-1.522l-0.6914-0.035c-0.5188 0-1.6948-0.07-2.3848-0.07zm118.46 4.158c-2.21 0-4.7 1.252-4.7 4.547 0 5.684 6.47 4.699 6.47 9.551 0 1.78-1.04 3.029-2.67 3.029-1.27 0-2.07-1.098-2.55-2.651-0.56-1.82-0.49-2.199-0.83-2.199-0.28 0-0.38 0.303-0.38 2.235 0 2.615 0.14 2.956 0.48 3.07 0.59 0.189 1.28 0.453 2.73 0.453 3.11 0 5.15-2.006 5.15-5.416 0-5.304-6.67-5.42-6.67-9.094 0-1.478 1.11-2.615 2.59-2.615 1.07 0 1.59 0.758 1.97 1.781 0.52 1.442 0.52 2.008 0.87 2.008 0.34 0 0.34-0.642 0.34-1.969 0-1.441-0.03-2.009-0.2-2.123-0.63-0.34-1.49-0.607-2.6-0.607zm-97.117 0.002c-2.972 0-5.873 3.029-5.873 9.394 0 5.153 2.21 8.641 6.011 8.641 2.73 0 4.285-2.198 4.285-4.584 0-0.38-0.103-0.457-0.242-0.457-0.241 0-0.241 0.38-0.656 1.289-0.588 1.289-1.556 2.16-3.041 2.16-2.419 0-4.076-2.879-4.076-7.426 0-0.378 0.207-0.681 0.795-0.681h6.322c0.83 0 0.83-0.114 0.83-2.35 0-3.789-1.867-5.986-4.355-5.986zm50.199 0c-1.659 0-3.491 0.643-4.873 2.006-1.555 1.553-1.969 2.769-1.969 3.677 0 0.605 0.172 0.832 0.725 0.832 1.175 0 1.831-1.023 2.074-1.97 0.517-2.083 1.348-3.635 3.213-3.635 1.002 0 1.451 0.606 1.451 2.613v2.16c0 1.288-0.62 1.477-3.695 3.938-2.662 2.124-3.629 3.224-3.629 5.08 0 2.198 1.105 3.334 2.521 3.334 2.938 0 4.182-2.766 4.735-2.766 0.518 0 0.172 2.614 2.21 2.614 2.004 0 2.766-2.311 2.766-3.069 0-0.417-0.105-0.531-0.277-0.531-0.52 0-0.278 1.705-1.59 1.705-0.623 0-0.967-0.757-0.967-1.363v-12.012c0-2.045-0.621-2.613-2.695-2.613zm9.088 0c-0.243 0-0.9 0.984-2.731 1.894-0.449 0.228-0.656 0.379-0.656 0.569 0 0.265 0.138 0.302 0.691 0.34 0.898 0.075 1.036 0.151 1.036 1.212v10.836c0 1.478-0.242 1.82-1.383 1.971-0.31 0.039-0.483 0.265-0.483 0.455 0 0.304 0.173 0.455 0.621 0.455 0.31 0 0.589-0.152 1.797-0.152 2.315 0 2.696 0.152 2.903 0.152 0.276 0 0.484-0.114 0.484-0.381 0-0.377-0.172-0.339-0.898-0.529-0.829-0.151-0.969-0.454-0.969-1.326v-10.42c0-1.895 1.763-3.41 3.596-3.41 1.622 0 2.523 1.211 2.523 3.713v9.322c0 1.743-0.209 1.819-1.557 2.121-0.345 0.076-0.517 0.342-0.517 0.568 0 0.19 0.104 0.342 0.517 0.342 0.519 0 0.898-0.152 2.557-0.152 1.624 0 2.073 0.152 2.418 0.152 0.38 0 0.693-0.075 0.693-0.455 0-0.302-0.173-0.379-0.623-0.455-1.312-0.226-1.416-0.38-1.416-1.478v-10.495c0-1.932 1.519-3.183 3.246-3.183 1.728 0 2.869 1.023 2.869 3.336v9.699c0 1.629-0.379 1.819-1.693 2.121-0.346 0.076-0.656 0.265-0.656 0.492 0 0.379 0.31 0.418 0.656 0.418 0.38 0 0.794-0.152 2.486-0.152 1.869 0 2.279 0.152 2.699 0.152 0.41 0 0.55-0.114 0.55-0.418 0-0.188-0.24-0.302-0.86-0.492-0.867-0.265-1.109-0.569-1.109-1.781v-10.91c0-2.54-1.9-3.905-3.801-3.905-2.764 0-4.181 2.539-4.734 2.539s-0.622-2.539-3.559-2.539c-2.108 0-3.663 2.424-4.285 2.424-0.173 0-0.172-0.111-0.172-2.195 0-0.265-0.102-0.455-0.24-0.455zm22.63 0c-0.28 0-0.52 0.643-2.97 2.006-0.35 0.19-0.49 0.23-0.49 0.57 0 0.189 0.28 0.226 0.87 0.455 0.65 0.265 0.79 0.455 0.79 1.024v18.943c0 1.63-0.17 1.668-1.55 2.008-0.45 0.113-0.49 0.303-0.49 0.492 0 0.266 0.18 0.418 0.73 0.418 0.45 0 1.24-0.152 2.63-0.152 1.52 0 1.79 0.152 2.31 0.152 0.56 0 0.8-0.19 0.8-0.381 0-0.416-0.25-0.453-0.66-0.529-1.28-0.227-1.69-0.492-1.69-1.705v-5.266c0-0.454 0-0.758 0.2-0.758 0.35 0 1.11 0.758 2.73 0.758 3.32 0 5.67-3.639 5.67-8.641 0-5.228-2.25-8.939-5.15-8.939-1.69 0-2.94 2.121-3.28 2.121-0.14 0-0.21-0.113-0.21-0.229v-1.816c0-0.419-0.1-0.531-0.24-0.531zm37.63 0c-0.24 0-0.93 0.872-2.56 1.515-0.76 0.303-1 0.492-1 0.682s0.14 0.342 0.31 0.379c1.21 0.265 1.46 0.531 1.46 1.402v11.102c0 1.326-0.18 1.516-1.42 1.742-0.45 0.076-0.59 0.265-0.59 0.492 0 0.267 0.17 0.418 0.42 0.418 0.31 0 0.72-0.152 2.59-0.152 1.79 0 2.17 0.152 2.62 0.152 0.42 0 0.52-0.114 0.52-0.381 0-0.302-0.21-0.376-0.86-0.529-1.21-0.265-1.21-0.872-1.21-1.932v-14.511c0-0.266-0.11-0.379-0.28-0.379zm6.38 0c-0.28 0-0.42 0.263-0.9 0.832-1.18 1.364-2.32 0.987-2.32 1.744 0 0.226 0.11 0.303 0.35 0.303 1 0 1.35 0.265 1.35 1.629v10.267c0 1.744-0.18 1.896-1.14 2.047-0.45 0.076-0.69 0.153-0.73 0.455-0.03 0.341 0.21 0.455 0.66 0.455 0.24 0 0.62-0.152 2.21-0.152 2.07 0 2.38 0.152 2.66 0.152 0.62 0 0.79-0.076 0.79-0.418 0-0.265-0.37-0.339-1.13-0.492-1.18-0.227-1.25-0.682-1.25-2.426v-7.881c0-0.985 0.62-4.697 2.14-4.697 0.35 0 0.35 0.645 0.35 1.25 0 0.835 0.27 1.516 1.21 1.516 0.9 0 1.28-0.873 1.28-2.084 0-1.554-0.66-2.5-1.8-2.5-2.35 0-2.76 3.256-3.28 3.256-0.35 0 0.1-3.256-0.45-3.256zm11.68 0c-2.98 0-5.88 3.029-5.88 9.394 0 5.153 2.21 8.641 6.01 8.641 2.73 0 4.29-2.198 4.29-4.584 0-0.38-0.1-0.457-0.24-0.457-0.24 0-0.24 0.38-0.66 1.289-0.59 1.289-1.55 2.16-3.04 2.16-2.42 0-4.08-2.879-4.08-7.426 0-0.378 0.21-0.681 0.8-0.681h6.32c0.83 0 0.83-0.114 0.83-2.35 0-3.789-1.87-5.986-4.35-5.986zm-132.42 0.301c-0.449 0.001-0.656 0.151-0.656 0.455 0 0.643 0.863-0.075 1.484 1.97l4.147 14.172c0.139 0.493 0.243 1.137 0.623 1.137 0.346 0 0.447-0.607 0.586-1.137l2.385-8.638c0.103-0.38 0.174-0.834 0.38-0.834 0.173 0 0.242 0.341 0.346 0.681l2.246 8.791c0.138 0.493 0.241 1.137 0.621 1.137 0.345 0 0.449-0.607 0.588-1.137l3.733-14.285c0.448-1.666 1.517-0.911 1.517-1.818 0-0.418-0.206-0.492-0.517-0.492-0.345-0.002-0.828 0.15-1.83 0.15-0.692 0-1.28-0.152-1.833-0.152-0.207 0.001-0.414 0.228-0.414 0.531 0 0.151 0.103 0.341 0.379 0.379 1.244 0.151 1.66 0.531 1.66 1.099 0 0.114-0.036 0.645-0.173 1.176l-2.039 7.805c-0.174 0.681-0.414 1.59-0.621 1.59-0.138 0-0.174-0.265-1.694-5.645-1.244-4.395-1.348-4.812-1.348-5.154 0-0.491 0.277-0.72 1.28-0.871 0.276-0.038 0.484-0.152 0.484-0.416 0-0.304-0.071-0.492-0.658-0.492-0.76-0.002-0.864 0.15-1.9 0.15-0.553 0-1.106-0.152-2.04-0.152-0.793 0.001-1.001 0.228-1.001 0.531 0 0.644 1.418 0.19 1.867 1.478 0.656 1.857 0.863 2.5 0.863 2.842 0 0.264-0.103 0.68-0.242 1.174l-1.623 5.57c-0.139 0.493-0.312 0.985-0.52 0.985-0.172 0-0.206-0.151-0.379-0.682l-2.591-8.297c-0.347-1.101-0.415-1.438-0.415-1.742 0-1.364 1.624-0.721 1.624-1.441 0-0.304-0.242-0.416-0.588-0.416-0.622-0.002-1.002 0.15-1.901 0.15-0.864 0-1.035-0.152-1.83-0.152zm-5.39 0.609c1.52 0 2.625 1.514 2.625 4.129 0 1.021-0.136 1.439-0.448 1.705-0.311 0.265-1.659 0.529-3.974 0.529-1.452 0-1.52-0.15-1.52-0.832 0-3.107 1.45-5.531 3.317-5.531zm137.6 0c1.52 0 2.63 1.514 2.63 4.129 0 1.021-0.14 1.439-0.45 1.705-0.31 0.265-1.66 0.529-3.98 0.529-1.45 0-1.52-0.15-1.52-0.832 0-3.107 1.45-5.531 3.32-5.531zm-52.23 0.984c2.31 0 3.35 3.107 3.35 7.35 0 5.76-1.66 8.107-3.7 8.107-1.38 0-2.62-0.831-2.62-3.484v-9.17c0-1.44 1.41-2.803 2.97-2.803zm-34.622 6.213c0.207 0 0.275 0.114 0.275 0.492v4.168c0 1.062-0.277 1.63-1.037 2.387-0.76 0.759-1.485 1.289-2.28 1.289-0.967 0-1.728-0.721-1.728-2.236 0-2.199 1.624-3.94 3.904-5.645 0.554-0.416 0.658-0.455 0.866-0.455zm1.925 13.576c-0.656 0-1.279 0.569-1.279 1.897 0 1.364 0.623 1.893 1.279 1.893 0.692 0 1.278-0.529 1.278-1.893 0-1.328-0.586-1.897-1.278-1.897zm47.157 0c-0.66 0-1.28 0.569-1.28 1.897 0 1.364 0.62 1.893 1.28 1.893 0.69 0 1.27-0.529 1.27-1.893 0-1.328-0.58-1.897-1.27-1.897zm-79.35 1.219c-0.276 0.001-0.621 0.108-0.621 0.324 0 0.539 0.172 0.36 1.484 0.684 0.276 0.073 0.242 0.468 0.242 1.404v15.051c0 4.536 3.284 5.795 6.014 5.795 3.489 0 6.012-1.943 6.012-8.172v-11.594c0-1.98 0.207-2.303 0.933-2.484 0.76-0.179 1.139-0.109 1.139-0.541 0-0.324-0.103-0.465-0.449-0.465-0.415-0.001-0.793 0.143-2.315 0.143-1.173 0-1.555-0.145-2.004-0.145-0.415 0.001-0.621 0.216-0.621 0.467 0 0.467 0.241 0.468 0.967 0.541 1.001 0.109 1.381 0.612 1.381 2.846v12.384c0 4.5-2.313 6.157-4.697 6.157-1.763 0-4.078-1.152-4.078-4.356v-14.943c0-2.089 0.691-2.088 1.451-2.195 0.726-0.108 1.07-0.181 1.07-0.506 0-0.359-0.276-0.393-0.828-0.393-0.554-0.001-1.175 0.143-2.73 0.143-1.244 0-1.383-0.145-2.35-0.145zm85.4 0.373c-0.25 0-0.25 0.19-0.59 0.91-1.76 3.677-2.84 4.321-2.84 4.776s0.25 0.455 0.56 0.455c0.52 0 1.1-0.002 1.1 0.603v12.733c0 2.386 1.01 3.258 2.56 3.258 0.93 0 1.69-0.228 2.18-1.137 0.45-0.834 0.79-2.047 0.79-2.35 0-0.227-0.1-0.302-0.31-0.302-0.55 0-0.79 2.197-2.11 2.197-0.62 0-1.03-0.227-1.03-1.516v-12.504c0-0.567 0.1-0.681 0.45-0.681h1.55c0.73 0 0.93-0.227 0.93-0.721 0-0.454-0.24-0.566-0.86-0.566h-1.38c-0.52 0-0.69-0.228-0.69-0.834v-3.373c0-0.833-0.11-0.948-0.31-0.948zm-67.427 4.698c-0.242 0-0.9 0.987-2.731 1.896-0.449 0.227-0.656 0.378-0.656 0.566 0 0.267 0.139 0.305 0.691 0.344 0.899 0.075 1.035 0.15 1.035 1.211v10.836c0 1.479-0.24 1.819-1.38 1.971-0.312 0.037-0.483 0.265-0.483 0.455 0 0.302 0.172 0.455 0.621 0.455 0.311 0 0.586-0.152 2.176-0.152 2.314 0 2.697 0.152 2.904 0.152 0.277 0 0.483-0.115 0.483-0.379 0-0.38-0.173-0.343-1.278-0.531-0.828-0.152-0.968-0.455-0.968-1.326v-10.42c0-1.894 1.832-3.411 3.593-3.411 1.659 0 2.832 1.139 2.832 3.184v10.609c0 0.984-0.274 1.212-1.207 1.364-0.415 0.075-0.658 0.264-0.658 0.492 0 0.302 0.138 0.418 0.518 0.418s0.624-0.152 2.386-0.152c1.934 0 2.418 0.152 2.555 0.152 0.243 0 0.485-0.115 0.485-0.379 0-0.343-0.241-0.456-1.036-0.531-0.691-0.075-0.968-0.53-0.968-1.782v-10.494c-0.105-3.031-2.004-4.32-3.94-4.32-2.382 0-3.939 2.426-4.56 2.426-0.174 0-0.174-0.116-0.174-2.199 0-0.265-0.102-0.455-0.24-0.455zm14.98 0.001c-0.241 0-0.934 0.872-2.557 1.516-0.761 0.303-1.002 0.493-1.002 0.682 0 0.188 0.138 0.341 0.311 0.379 1.209 0.265 1.451 0.529 1.451 1.4v11.104c0 1.326-0.173 1.514-1.418 1.742-0.449 0.075-0.586 0.264-0.586 0.492 0 0.265 0.173 0.416 0.414 0.416 0.312 0 0.727-0.15 2.592-0.15 1.798 0 2.177 0.15 2.627 0.15 0.414 0 0.518-0.112 0.518-0.377 0-0.304-0.207-0.38-0.864-0.531-1.21-0.265-1.211-0.871-1.211-1.932v-14.512c0-0.265-0.101-0.379-0.275-0.379zm19.041 0c-2.97 0-5.873 3.032-5.873 9.397 0 5.154 2.21 8.639 6.012 8.639 2.73 0 4.287-2.199 4.287-4.586 0-0.378-0.107-0.453-0.244-0.453-0.243 0-0.243 0.377-0.657 1.287-0.587 1.288-1.556 2.16-3.041 2.16-2.417 0-4.076-2.879-4.076-7.428 0-0.377 0.206-0.682 0.793-0.682h6.324c0.831 0 0.831-0.112 0.831-2.345 0-3.79-1.867-5.989-4.356-5.989zm9.436 0c-0.28 0-0.42 0.266-0.9 0.834-1.18 1.364-2.32 0.985-2.32 1.743 0 0.227 0.11 0.302 0.35 0.302 1 0 1.35 0.266 1.35 1.629v10.268c0 1.742-0.18 1.895-1.14 2.047-0.45 0.075-0.69 0.151-0.73 0.455-0.03 0.341 0.21 0.453 0.66 0.453 0.24 0 0.62-0.15 2.21-0.15 2.07 0 2.39 0.15 2.66 0.15 0.62 0 0.8-0.075 0.8-0.416 0-0.265-0.39-0.341-1.15-0.492-1.17-0.228-1.24-0.684-1.24-2.426v-7.881c0-0.985 0.62-4.697 2.14-4.697 0.35 0 0.35 0.644 0.35 1.25 0 0.834 0.27 1.515 1.21 1.515 0.9 0 1.27-0.872 1.27-2.084 0-1.555-0.65-2.5-1.79-2.5-2.35 0-2.77 3.258-3.28 3.258-0.35 0 0.1-3.258-0.45-3.258zm10.67 0c-2.21 0-4.7 1.25-4.7 4.547 0 5.683 6.47 4.697 6.47 9.547 0 1.781-1.04 3.031-2.66 3.031-1.28 0-2.08-1.098-2.56-2.652-0.55-1.819-0.48-2.197-0.83-2.197-0.28 0-0.38 0.302-0.38 2.234 0 2.615 0.14 2.957 0.48 3.071 0.59 0.19 1.28 0.455 2.73 0.455 3.11 0 5.15-2.008 5.15-5.418 0-5.305-6.67-5.419-6.67-9.094 0-1.478 1.11-2.613 2.59-2.613 1.08 0 1.59 0.756 1.97 1.779 0.52 1.44 0.52 2.008 0.87 2.008 0.34 0 0.34-0.644 0.34-1.969 0-1.441-0.03-2.01-0.2-2.125-0.63-0.339-1.49-0.604-2.6-0.604zm8.01 0c-0.25 0-0.94 0.872-2.56 1.516-0.76 0.303-1.01 0.493-1.01 0.682 0 0.188 0.14 0.341 0.32 0.379 1.21 0.265 1.45 0.529 1.45 1.4v11.104c0 1.326-0.17 1.514-1.42 1.742-0.45 0.075-0.59 0.264-0.59 0.492 0 0.265 0.18 0.416 0.42 0.416 0.31 0 0.72-0.15 2.59-0.15 1.8 0 2.18 0.15 2.63 0.15 0.41 0 0.51-0.112 0.51-0.377 0-0.304-0.2-0.38-0.86-0.531-1.21-0.265-1.21-0.871-1.21-1.932v-14.512c0-0.265-0.1-0.379-0.27-0.379zm-44.651 0.303c-0.345 0-0.691 0.076-0.691 0.416 0 0.304 0.278 0.417 0.658 0.492 0.725 0.152 0.794 0.723 1.519 3.26 0.76 2.69 2.003 7.502 3.11 11.557 0.38 1.401 0.381 2.008 0.83 2.008 0.448 0 0.413-0.606 0.621-1.364 0.726-2.69 2.487-8.98 3.629-12.504 0.586-1.818 0.76-2.728 1.588-2.957 0.518-0.15 0.587-0.339 0.587-0.566 0-0.228-0.205-0.342-0.724-0.342-0.345 0-0.832 0.153-1.557 0.153-0.691 0-1.207-0.153-1.76-0.153-0.518 0-0.691 0.076-0.691 0.453 0 0.267 0.242 0.455 0.449 0.455 1.313 0.152 1.52 0.229 1.52 1.1 0 0.418-0.345 1.781-1.416 5.344-1.451 4.848-1.417 5.189-1.694 5.189-0.208 0-0.311-0.378-1.625-5.683-1.14-4.622-1.244-4.85-1.244-5.153 0-0.38 0.175-0.568 0.969-0.797 0.519-0.15 0.795-0.226 0.795-0.455 0-0.34-0.07-0.453-0.727-0.453-0.726 0-1.277 0.153-1.968 0.153-0.83 0-1.797-0.153-2.178-0.153zm54.581 0c-0.35 0-0.52 0.114-0.52 0.342 0 0.417 0.17 0.493 0.73 0.566 0.48 0.077 0.83 0.418 2.59 6.936 2.07 7.616 2.35 7.35 2.35 8.98 0 1.06-1.24 4.81-1.52 5.114-0.62 0.681-2.35 0.115-2.35 1.668 0 1.477 0.14 1.857 1.45 1.857 1.73 0 1.18-1.82 4.35-12.316 2.87-9.473 3.18-12.01 4.18-12.239 0.32-0.073 0.56-0.149 0.56-0.453 0-0.341-0.14-0.455-0.45-0.455-0.76 0-1.04 0.153-1.49 0.153-1 0-1.79-0.153-2.04-0.153-0.34 0-0.51 0.153-0.51 0.531 0 0.342 0.38 0.341 0.65 0.377 0.93 0.115 1.28 0.305 1.28 0.836 0 0.493-0.03 0.908-1 4.432-1.73 6.251-1.76 6.557-1.97 6.557s-0.35-0.534-1.87-5.989c-0.89-3.258-1.27-4.318-1.27-4.963 0-0.416 0.13-0.758 0.72-0.873 0.73-0.15 1.11-0.149 1.11-0.453 0-0.302-0.14-0.455-0.59-0.455-0.31 0-1.31 0.153-1.97 0.153-0.8 0-1.62-0.153-2.42-0.153zm-38.253 0.608c1.521 0 2.625 1.514 2.625 4.129 0 1.023-0.138 1.44-0.449 1.705-0.31 0.266-1.657 0.529-3.973 0.529-1.45 0-1.519-0.152-1.519-0.834 0-3.106 1.451-5.529 3.316-5.529z" transform="matrix(.8 0 0 -.8 156.77 233.49)"/><path d="m263.62 206.21s0.742 3.901 3.528 4.67c3.774 1.042 9.19 1.293 11.457 1.833 3.349 0.798 6.095 3.303 7.637 4.893 2.425 2.501 4.482 8.557 3.701 10.284-0.78 1.727 1.591-3.525-8.116-4.119-7.753-0.123-9.028-1.304-9.956-1.681-3.936-1.497-6.56-8.135-6.037-9.349 0 0 3.25 5.175 9.091 6.976 3.494 0.601 9.228 0.918 10.239 2.545 0 0-2.85-2.11-6.907-3.087-5.461-1.15-6.642-2.373-6.642-2.373s-6.555-4.045-8.615-10.237" fill="#001e60"/></g></g></svg>
