<svg xmlns="http://www.w3.org/2000/svg" height="44.435" viewBox="0 0 248.29883 44.43499" width="248.3"><g transform="matrix(1.25 0 0 -1.25 -79.482 598.96)"><g transform="translate(.93897 .70423)"><path d="m107.39 36.609v3.8418 3.8418l0.29102-0.03516 0.29297-0.0332v-3.7734-3.7734l-0.29297-0.0332-0.29102-0.03516zm57.615 0.01563v3.8262 3.8262h0.26562 0.26563v-3.8262-3.8262h-0.26563-0.26562zm-120.34 0.03711c-0.53139 0.03493-1.1174 0.23188-1.4316 0.50781-0.64358 0.56508-0.74414 1.0324-0.74414 3.4414 0 2.0556 0.0086 2.1421 0.26562 2.6543 0.45894 0.9148 1.5114 1.303 2.7148 1 0.8715-0.21945 1.4297-1.1511 1.4297-2.3848v-0.36719h-0.67578-0.67578l-0.06055 0.59375c-0.07731 0.74905-0.30264 1.108-0.68945 1.1035-0.33312-0.0037-0.57318-0.16215-0.75-0.49414-0.08163-0.15325-0.125-0.92444-0.125-2.2676v-2.0352l0.31055-0.31055c0.58385-0.58385 1.0767-0.33428 1.2305 0.62109l0.07227 0.45117h0.69727 0.69531l-0.06445-0.54492c-0.13431-1.1341-0.68636-1.7668-1.6992-1.9473-0.15297-0.02725-0.32287-0.03313-0.5-0.02148zm34.594 0.0059c-0.17952 0.0028-0.36834 0.02335-0.56445 0.06055-0.31455 0.05963-0.58626 0.10742-0.60547 0.10742-0.01925 0-0.20527 0.15043-0.41211 0.33203-0.59785 0.52492-0.73849 1.1665-0.74219 3.3887-0.0025 1.2158 0.04367 2.0183 0.13281 2.3145 0.1921 0.63839 0.68889 1.1635 1.2812 1.3535 0.62548 0.20062 1.6032 0.13863 2.0625-0.12891 0.47272-0.27536 0.81302-0.93801 0.91406-1.7773 0.04637-0.38556 0.06183-0.72335 0.0332-0.75195-0.02863-0.02862-0.35628-0.05273-0.72656-0.05273h-0.67188v0.46289c0 0.98575-0.39754 1.4297-1.0234 1.1445-0.47166-0.2149-0.57226-0.68026-0.57226-2.6719 0-1.9192 0.08002-2.3085 0.52539-2.5469 0.53647-0.28711 0.95747 0.03247 1.043 0.79102l0.05469 0.48242h0.67773 0.67578v-0.39844c-0.0022-1.3248-0.82536-2.1288-2.082-2.1094zm37.482 0.002c-0.68507-0.0405-1.4049 0.16268-1.8242 0.58203-0.58912 0.58912-0.67578 1.0269-0.67578 3.4141 0 2.0152 0.009 2.0916 0.27148 2.6016 0.46859 0.91034 1.5548 1.3122 2.7051 1 0.86153-0.23379 1.4356-1.1513 1.4356-2.2949v-0.45898h-0.67773-0.67774l-0.0488 0.57617c-0.0903 1.0881-0.63595 1.4402-1.2617 0.81445l-0.31054-0.31055v-2.0898-2.0898l0.31054-0.31055c0.58384-0.58385 1.0767-0.33428 1.2305 0.62109l0.0723 0.45117h0.69531 0.69727l-0.0703-0.59375c-0.0832-0.70801-0.37919-1.3286-0.74804-1.5703-0.31373-0.20556-0.71201-0.3175-1.123-0.3418zm81.943 0.0059c-0.65523-0.03915-1.3255 0.12926-1.7344 0.48828-0.67661 0.59406-0.75861 1.8146-0.17578 2.6191 0.16409 0.2265 0.72412 0.70214 1.2441 1.0586 1.1374 0.77959 1.3072 0.95909 1.3867 1.4492 0.10213 0.62968-0.54761 1.1007-1.1816 0.85742-0.2666-0.10225-0.48242-0.61743-0.48242-1.1504v-0.48438h-0.70312-0.70313l0.041 0.71875c0.0665 1.1721 0.53175 1.8064 1.5078 2.0566 0.53371 0.13686 1.4415 0.02329 1.9648-0.24609 0.7104-0.36559 1.0022-0.96144 0.95508-1.9531-0.0468-0.98254-0.26655-1.2726-1.7168-2.2598-0.60975-0.41505-1.1376-0.83152-1.1738-0.92578-0.14009-0.36506-0.0658-0.78022 0.16992-0.94531 0.54101-0.37894 1.1236-0.06378 1.2207 0.66016l0.0606 0.44922h0.6875 0.68945l-0.0723-0.50391c-0.11075-0.77106-0.42593-1.3382-0.88281-1.5898-0.32223-0.1775-0.70843-0.27534-1.1016-0.29883zm-25.051 0.0039c-0.18329-0.00082-0.36452 0.01414-0.53711 0.04687-1.1438 0.21691-1.5555 0.81613-1.7363 2.5332-0.12826 1.218-0.0362 3.0652 0.18555 3.752 0.20235 0.62666 0.64728 1.0481 1.2891 1.2207 0.63506 0.17075 1.036 0.18178 1.543 0.04102 0.8437-0.23431 1.2482-0.87071 1.4062-2.207l0.0664-0.5625-0.72071 0.03125-0.72265 0.03125-0.0606 0.58594c-0.0806 0.76166-0.1709 0.94426-0.50195 1.0273-0.38475 0.09663-0.79394-0.16588-0.94532-0.60547-0.0769-0.22316-0.12917-1.0513-0.13281-2.0996-0.006-1.9028 0.0955-2.3742 0.56445-2.5879 0.57652-0.26268 1.0234 0.13982 1.0234 0.92188v0.36719h0.69141 0.6914l-0.004-0.50586c-0.002-0.61016-0.29363-1.2905-0.68164-1.5957-0.31168-0.24516-0.86812-0.39207-1.418-0.39453zm-77.623 0.13867v3.6777 3.6758h0.69141 0.69141v-1.541-1.541h0.66992c1.0245 0 1.0609 0.05053 1.1504 1.6094 0.0415 0.72266 0.07911 1.3487 0.08398 1.3926 0.01 0.0915 1.6035 0.11091 1.6035 0.01953 0-0.03312-0.0493-0.15121-0.10938-0.26367-0.0601-0.1125-0.14728-0.80226-0.19336-1.5332-0.0748-1.1868-0.11031-1.3576-0.33398-1.5957-0.1378-0.14668-0.32584-0.26798-0.41797-0.26953-0.10875-0.0012-0.06992-0.0652 0.11133-0.17774 0.48507-0.30104 0.67422-0.74587 0.67578-1.5918 0.001-0.86194-0.17252-1.2027-0.80664-1.5762-0.31259-0.18412-0.59388-0.21906-2.0898-0.25l-1.7266-0.03516zm89.293 0v3.6777 3.6758h0.74414 0.74414v-1.541-1.541h0.67383c0.95796 0 1.0471 0.12148 1.1016 1.5137 0.0653 1.6698 0.004 1.5684 0.92383 1.5684h0.7832l-0.14258-0.39844c-0.0782-0.21925-0.14392-0.84403-0.14648-1.3867-0.006-1.1831-0.17801-1.687-0.63476-1.8594l-0.31446-0.11719 0.32031-0.19531c0.4212-0.25615 0.62353-0.77615 0.62305-1.5938 0-0.78476-0.23096-1.2481-0.76562-1.5391-0.28784-0.15666-0.6654-0.19686-2.1289-0.22656l-1.7812-0.03711zm-5.7402 0.0098-0.7168 0.03125-0.71875 0.03125-0.0273 3.6406-0.0293 3.6406h0.74609 0.7461v-1.6484-1.6465h0.90429 0.90235v1.6465 1.6484h0.74609 0.74609l-0.0293-3.6406-0.0274-3.6406h-0.6914-0.69141l-0.0293 1.4082-0.0293 1.4082h-0.90039-0.90039v-1.4395-1.4395zm-25.406 0.0039v3.6699 3.6699h1.9668 1.9668v-0.53125-0.53125h-1.2754-1.2754v-1.1172-1.1152h1.1738 1.1758l-0.0332-0.55859-0.0312-0.55859-1.1426-0.0293-1.1426-0.03125v-0.8418-0.84375l1.248-0.03125 1.25-0.0293v-0.53125-0.53125l-1.9414-0.0293-1.9394-0.0293zm-104.92 0.0039v3.668 3.668h0.68945 0.69141v-1.6484-1.6465h0.95703 0.95703v1.6465 1.6484h0.69141 0.68945v-3.668-3.668h-0.68945-0.69141v1.4355 1.4355h-0.95703-0.95703v-1.4355-1.4355h-0.69141-0.68945zm8.4043 0-0.10352 0.40039c-0.24992 0.95128-1.6055 6.7042-1.6055 6.8145 0 0.0795 0.25345 0.12109 0.72852 0.12109h0.72656l0.13672-0.77148c0.19534-1.0963 0.13807-1.0352 1.0137-1.0352h0.77344l0.07227 0.39844c0.04025 0.21925 0.12293 0.62463 0.18164 0.90234l0.10547 0.50586h0.74805c0.65929 0 0.743-0.02152 0.70117-0.18555-0.02613-0.10238-0.40099-1.7532-0.83203-3.668l-0.7832-3.4824h-0.93164-0.93164zm5.5195 0v3.668 3.668h0.69141 0.69141v-1.541-1.541h0.66406c0.36541 0.00085 0.71691 0.03708 0.78125 0.08008 0.25784 0.17218 0.36133 0.58442 0.36133 1.4395 0 0.4935 0.02978 1.0478 0.06641 1.2305l0.06641 0.33203h0.79492c0.71625 0 0.78885-0.01998 0.71875-0.1875-0.15974-0.38171-0.25526-1.059-0.25976-1.8516-0.005-0.98188-0.11694-1.315-0.51758-1.5449l-0.30274-0.17383 0.3457-0.30273c0.69454-0.60981 0.75241-2.0562 0.10937-2.6992-0.4727-0.4727-0.94776-0.57354-2.6953-0.57422l-1.5156-0.002zm20.092 0v0.58594 0.58398h0.79688 0.79688v3.084 3.082h0.69141 0.69141v-3.0781-3.0781l0.76953-0.03125 0.77148-0.03125 0.03125-0.55859 0.0332-0.55859h-2.291-2.291zm6.5898 0v3.668 3.668h1.9141 1.9141v-0.53125-0.53125h-1.2227-1.2227v-1.1172-1.1152h1.1152 1.1172v-0.58594-0.58398h-1.1172-1.1152v-0.84961-0.85156h1.2227 1.2227v-0.58398-0.58594h-1.9141-1.9141zm31.146 0v2.8516c0 3.2704 0.0774 3.758 0.67383 4.2129 0.58721 0.44789 1.5188 0.58126 2.5352 0.36328 0.67584-0.14494 1.1806-0.59729 1.3516-1.2129 0.0715-0.25745 0.11681-1.5417 0.11718-3.3164v-2.8984h-0.6914-0.69141v2.748c0 2.8342-0.0585 3.3297-0.42773 3.5273-0.33854 0.18118-0.82019 0.11638-1.1328-0.15234l-0.29883-0.25586-0.0352-2.9336-0.0332-2.9336h-0.6836-0.68359zm7.2285 0v3.668 3.668h1.9668 1.9668v-0.53125-0.53125h-1.2754-1.2754v-3.1367-3.1367h-0.69141-0.6914zm4.8789 0 0.0312 0.55859 0.0332 0.55859 0.77148 0.03125 0.76953 0.03125v3.0781 3.0781h0.74414 0.74414v-3.082-3.084h0.74414 0.74414v-0.58398-0.58594h-2.291-2.291zm6.709 0v2.9395c0 3.1858 0.05 3.5628 0.54101 4.0332 0.6207 0.59468 2.2558 0.72818 3.1777 0.25781 0.3312-0.16896 0.50192-0.35265 0.67382-0.72461 0.21875-0.47339 0.23047-0.64647 0.23047-3.4746v-2.9766h-0.6914-0.68946l-0.0547 2.959c-0.053 2.9525-0.0524 2.9595-0.30274 3.1621-0.13801 0.11175-0.38664 0.20312-0.55078 0.20312-0.90674 0-0.95312-0.17573-0.95312-3.5566v-2.8223h-0.69141-0.68945zm62.93 0v0.58594 0.58398h0.79688 0.79687v3.084 3.082h0.69141 0.69141v-3.082-3.084h0.79687 0.79688v-0.58398-0.58594h-2.2852-2.2852zm-131.22 0.05469-0.60938 2.5508c-0.33492 1.4032-0.72464 3.0428-0.86719 3.6445l-0.25977 1.0938 0.75586-0.0293 0.75586-0.03125 0.16602-0.85156 0.16406-0.84961 0.80274-0.03125 0.80469-0.03125 0.13672 0.77539c0.19559 1.0977 0.14286 1.041 0.97461 1.041 0.70881 0 0.73343-0.0098 0.67578-0.24023-0.03288-0.13155-0.40796-1.7697-0.83203-3.6406l-0.77148-3.4004h-0.94727-0.94922zm75.467 0-0.0273 3.6406-0.0273 3.6406h0.74414 0.74609v-1.541-1.541h0.67383c0.98587 0 1.0598 0.11063 1.1465 1.7363 0.0379 0.71074 0.0754 1.3037 0.082 1.3184 0.006 0.01463 0.37194 0.02734 0.8125 0.02734 0.7921 0 0.79944-0.0032 0.67579-0.23438-0.0687-0.12851-0.15565-0.81497-0.19336-1.5254-0.0728-1.3704-0.20937-1.7682-0.65039-1.9082-0.20883-0.06625-0.19911-0.09251 0.1582-0.4082 0.30016-0.26524 0.40262-0.45572 0.48437-0.90234 0.17655-0.96455-0.11147-1.7546-0.77148-2.1152-0.29024-0.1586-0.62187-0.1875-2.0996-0.1875h-1.7539zm45.604 0-0.0273 3.6406-0.0293 3.6406h0.74805 0.74609l-0.0273-3.6406-0.0273-3.6406h-0.6914-0.69141zm-128.04 1.1152h0.73828c0.64221 0 0.75836 0.03082 0.90234 0.23633 0.2639 0.37676 0.2165 1.1058-0.09375 1.416-0.21947 0.21948-0.36372 0.26172-0.9043 0.26172h-0.64258v-0.95703-0.95703zm32.848 0h0.73633c0.64221 0 0.76031 0.03082 0.9043 0.23633 0.2639 0.37676 0.21455 1.1058-0.0957 1.416-0.21949 0.21948-0.36177 0.26172-0.90234 0.26172h-0.64258v-0.95703-0.95703zm51.023 0h0.73047c0.81977 0 0.94588 0.08135 1.043 0.67969 0.0712 0.43886-0.12028 0.98395-0.39844 1.1328-0.105 0.05625-0.45779 0.10156-0.7832 0.10156h-0.5918v-0.95703-0.95703zm38.375 0h0.73047c0.45691 0 0.77099 0.04981 0.83789 0.13281 0.33219 0.41235 0.21548 1.4601-0.1875 1.6758-0.10837 0.058-0.46365 0.10547-0.78906 0.10547h-0.5918v-0.95703-0.95703zm-114.31 0.0625c0.01403-0.01369 0.01908 0.07547 0.02539 0.25586 0.0075 0.20464 0.1085 0.89479 0.22461 1.5332 0.116 0.63841 0.21094 1.2014 0.21094 1.25 0 0.04863-0.24429 0.08789-0.54297 0.08789-0.50915 0-0.53973-0.01398-0.48633-0.23828 0.03137-0.13155 0.13133-0.64757 0.22266-1.1445 0.09137-0.49695 0.20889-1.1178 0.26172-1.3809 0.04656-0.23189 0.06995-0.3496 0.08398-0.36328zm-13.988 0.17188c0.0075-0.27994 0.51084 2.4005 0.51953 2.7695 0.0037 0.15328-0.09137 0.18555-0.53516 0.18555-0.46314 0-0.53174-0.02565-0.48438-0.18555 0.10875-0.36738 0.49196-2.4886 0.5-2.7695z" transform="matrix(.8 0 0 -.8 62.201 479.12)"/><path d="m6.2441 1.9414c-1.8931 0.087414-3.3335 1.5395-4.0684 4.2285-0.25248 0.92385-0.24744 3.6804 0.00781 4.623 0.53126 1.9621 1.4 3.0015 3.9121 4.6816 1.9854 1.3278 2.5357 1.8592 3.0469 2.9355 0.35169 0.74056 0.39034 0.91244 0.43164 1.9395 0.052338 1.3013-0.076969 2.1356-0.46094 2.9766-0.7508 1.645-2.4256 2.36-3.8534 1.649-0.6932-0.346-1.2649-0.991-1.8086-2.041-0.6452-1.247-0.8625-2.072-1.1387-4.301-0.0554-0.447-0.0926-0.504-0.3223-0.504h-0.25977v1.6289c0 0.89688 0.030347 2.4192 0.068359 3.3828l0.070312 1.752 0.5957 0.38477c1.1742 0.75811 2.1784 1.0414 3.5703 1.0039 0.89518-0.02413 1.1624-0.07472 1.6895-0.31836 0.87629-0.40494 1.9162-1.4858 2.4297-2.5254 0.70884-1.4351 0.86627-2.2278 0.86328-4.3535-0.0023-1.57-0.03728-1.9898-0.23047-2.6934-0.574-2.092-1.4923-3.2-4.0487-4.895-1.8633-1.235-2.3286-1.6834-2.8145-2.7089-0.3162-0.6675-0.332-0.7711-0.332-1.9805 0-0.99191 0.043966-1.3968 0.20117-1.8203 0.2966-0.7991 0.822-1.4645 1.3632-1.7265 0.55-0.2663 1.5007-0.3023 2.0372-0.0782 1.0698 0.447 1.9851 2.2079 2.3379 4.5 0.12238 0.79506 0.13864 0.82747 0.43164 0.86133l0.3051 0.0352-0.079-2.5859c-0.061-2.0774-0.107-2.6212-0.2359-2.7637-0.0882-0.0976-0.4793-0.3447-0.8691-0.5488-1.024-0.5361-1.9794-0.778-2.8399-0.7383zm170.46 0.34375v0.48047 0.48047h1.0684 1.0703l-0.041 9.0625c-0.0345 7.9862-0.0594 9.148-0.21485 9.793-0.47085 1.9544-1.4064 2.7944-3.3223 2.9844-1.7861 0.1771-3.0307-0.37555-3.6582-1.627-0.56708-1.1308-0.56892-1.1642-0.61329-11.041l-0.041-9.1641 0.99023-0.03125 0.98828-0.029297v-0.42578-0.42578h-3.0293-3.0293v0.42578 0.42578l0.86914 0.029297 0.86914 0.03125 0.0469 9.2187c0.0395 7.9268 0.069 9.3253 0.21484 9.9902 0.45514 2.0746 1.4505 3.1456 3.2695 3.5195 0.93895 0.19304 1.1606 0.20873 2.334 0.16602 0.71371-0.026 1.3678-0.11633 1.8066-0.25195 1.4347-0.44339 2.239-1.2396 2.6992-2.6719 0.44607-1.3882 0.48632-2.3476 0.48632-11.412v-8.5586l0.82422-0.029297 0.82422-0.03125v-0.42578-0.42578l-2.2051-0.027344-2.207-0.029297zm-138.4 0.00391v0.42578 0.42578h0.84961 0.84961v10.947 10.949h-1.377c-1.2688 0-1.3937-0.01809-1.5879-0.22656-0.40037-0.42975-0.43555-1.0487-0.43555-7.75v-6.4805h1.0625 1.0625v-0.42383-0.42578h-1.0625-1.0625v-2.1797-2.1797h-1.0625-1.0645v2.1797 2.1797h-0.68945-0.69141v0.42578 0.42383h0.68555 0.68555l0.0332 6.7246c0.03345 6.6438 0.0374 6.7324 0.27344 7.4336 0.25477 0.75688 0.65382 1.2041 1.1738 1.3184 0.15627 0.03438 0.32794 0.07281 0.38281 0.08594 0.05488 0.01325 0.31925-0.01106 0.58594-0.05469 0.26669-0.044 1.8836-0.08439 3.5938-0.08789l3.1094-0.0059v-0.47852-0.47852h-0.79688-0.79688v-4.2246c0.000533-2.324 0.04845-4.7769 0.10742-5.4492 0.21158-2.4117 0.90042-4.0532 1.9141-4.5703 0.7863-0.40114 1.5407-0.19499 1.9062 0.52148 0.38266 0.75008 0.42886 1.5835 0.42969 7.7383v5.9746l-0.76953 0.03125-0.77148 0.03125v0.42578 0.42578l2.5781 0.02734 2.5781 0.0293v-0.48047-0.48047h-0.74414-0.74414l-0.002-5.3945c-0.00095-5.7449-0.08713-7.4348-0.42578-8.3984-0.43981-1.2512-1.3075-1.8925-2.5488-1.8789-1.5426 0.016875-2.4097 0.81851-3.3828 3.1289-0.08058 0.19131-0.11396-1.1997-0.11914-4.9688l-0.0059-5.2363h-1.8613-1.8594zm44.857 0v0.42578 0.42383h0.9043 0.9043v10.949 10.949h-0.9043-0.9043v0.47852 0.47852h2.2871 2.2852v-0.47852-0.47852h-1.0645-1.0625v-10.488c0-5.7686 0.01889-10.468 0.04102-10.443 0.02213 0.024375 2.0263 4.8038 4.4551 10.621 5.0441 12.082 4.8366 11.586 4.9004 11.586 0.0265 0 0.12234-0.02895 0.21484-0.06445 0.1519-0.05825 0.16797-1.1772 0.16797-11.586v-11.523h0.9043 0.9043v-0.42383-0.42578h-2.2852-2.2871v0.42578 0.42383h1.0645 1.0625l-0.002 8-0.0039 8-1.0938-2.6055c-0.60192-1.4324-2.1871-5.2228-3.5234-8.4238l-2.4297-5.8203h-2.2676-2.2676zm110.34 0.33203c-0.0964 0-0.19288 0.039656-0.35547 0.11719-0.46819 0.22326-0.74054 0.80137-0.79492 1.6934-0.101 1.6561 0.8663 2.6849 1.7578 1.8691 0.39252-0.35916 0.5906-1.0389 0.54101-1.8535-0.0553-0.90729-0.322-1.4844-0.79296-1.709-0.1626-0.077531-0.2591-0.11719-0.35547-0.11719zm38.062 0.00391c-0.59964 0.034065-1.1739 0.8614-1.1699 1.9492 0.006 1.5744 0.9018 2.4861 1.7363 1.7676 0.81349-0.7004 0.82545-2.6628 0.0215-3.4668-0.18499-0.18499-0.38802-0.26135-0.58789-0.25zm3.9258 2.7461v2.1797 2.1797h-0.69141-0.6914v0.42578 0.42383h0.6875 0.68554l0.0352 6.7773c0.0374 7.53 0.0343 7.5056 0.74219 8.1758 0.50501 0.47809 0.73735 0.56641 1.4629 0.56641 1.2498 0 2.0952-0.76419 2.5566-2.3086 0.108-0.36171 0.10904-0.47998 0-0.61133-0.17776-0.21419-0.31435-0.20585-0.38867 0.02344-0.0331 0.10237-0.1988 0.47852-0.36719 0.83398-0.42274 0.89235-0.99623 1.1433-1.4648 0.64453-0.46905-0.49929-0.48035-0.66078-0.52148-7.5371l-0.0391-6.5645h0.74414c0.61526 0 0.75378 0.03326 0.80273 0.1875 0.0325 0.1025 0.92365 3.5346 1.9805 7.627 2.1617 8.3708 2.0176 7.3812 1.4785 10.074-0.47984 2.3973-1.0129 3.4785-1.7129 3.4785-0.41569 0-0.53033-0.28137-0.625-1.5352-0.0939-1.2434-0.21113-1.6117-0.57032-1.7754-0.73706-0.33584-1.2265 0.35519-1.2305 1.7383-0.006 2.119 1.1598 3.3051 2.6055 2.6484 0.86009-0.39069 1.4503-1.4435 1.9648-3.5059 0.16992-0.68108 1.0305-5.1374 1.9121-9.9023s1.6274-8.7473 1.6582-8.8496c0.0462-0.1539 0.18331-0.18555 0.79297-0.18555h0.73633v-0.42383-0.42578h-1.9121-1.9141v0.42578 0.42383h0.79688c0.56504 0 0.79824 0.03867 0.80078 0.13281 0.006 0.24472-1.8437 10.23-1.9102 10.309-0.06 0.07087-2.5606-10.004-2.5586-10.309 0.001-0.09438 0.23238-0.13281 0.79883-0.13281h0.79687v-0.42383-0.42578h-2.7109-2.7109v-2.1797-2.1797h-1.0098-1.0098zm-134.41 3.9648c-1.0163-0.00037-2.0292 0.35581-2.6445 1.0137-0.68035 0.72735-0.95876 1.518-0.97266 2.7637-0.01125 0.96143 0.000637 1.0012 0.28906 1.25 0.36331 0.31283 0.8023 0.32911 1.166 0.04297 0.32202-0.2533 0.37046-0.44328 0.48438-1.9121 0.13624-1.7566 0.48138-2.2324 1.6172-2.2324 0.4664 0 0.58943 0.0448 0.83399 0.30664 0.46086 0.49336 0.5621 0.97992 0.61914 2.9551l0.0527 1.8262-0.73828 0.37109c-0.40593 0.20442-1.2797 0.59066-1.9434 0.85742-1.4675 0.58988-1.9458 0.90779-2.4004 1.6016-0.59511 0.90817-0.73437 1.5788-0.73437 3.5098 0 1.8111 0.11049 2.5037 0.53516 3.3477 0.2855 0.56746 0.60714 0.88794 1.1133 1.1074 0.44746 0.19405 1.4655 0.21478 2.0391 0.04297 0.59227-0.17745 1.2649-0.81318 1.6758-1.584l0.35351-0.66211 0.18946 0.61328c0.25107 0.8115 0.62154 1.1877 1.3105 1.3301 0.34775 0.07188 2.3538 0.10198 5.5918 0.08398l5.0488-0.02734 0.0293-3.1621 0.0273-3.1641h-0.29883-0.29883l-0.125 1.3555c-0.0682 0.74542-0.19688 1.6031-0.28711 1.9043-0.25123 0.83858-0.76671 1.5255-1.3808 1.8398-0.4827 0.24705-0.66276 0.27339-2.0996 0.30469-0.86433 0.01887-1.5723 0.002-1.5723-0.03711 0-0.05712 5.3993-13.419 6.002-14.854l0.16602-0.39844h-4.0391-4.041v2.7637 2.7637h0.25195c0.23885 0 0.25441-0.04584 0.32422-0.87695 0.1906-2.2688 0.75031-3.3852 1.8457-3.6895 0.21743-0.06038 0.96106-0.10912 1.6543-0.10938 1.1552-0.000537 1.2547 0.01316 1.1934 0.18359-0.0367 0.10225-1.3422 3.3552-2.9023 7.2285l-2.8379 7.043h-0.45508c-0.54381 0-0.81676-0.22681-0.98047-0.81641-0.0719-0.25885-0.11469-2.2697-0.11719-5.5605-0.004-5.2704-0.0489-6.1451-0.37304-7.1758-0.21415-0.68084-0.84397-1.4542-1.4238-1.75-0.52727-0.26899-1.1383-0.39822-1.748-0.39844zm18.443 0c-1.8019 0.00174-3.1137 1.1605-3.4199 3.1055-0.21139 1.3425 0.11031 2.1777 0.83594 2.1777 0.72276 0 1.0807-0.71329 1.082-2.1562 0.001-0.90102 0.16913-1.4367 0.58398-1.8516 0.31091-0.31092 0.41626-0.34961 0.93164-0.34961 0.70349 0 1.0322 0.2201 1.3066 0.875 0.1506 0.35934 0.19954 0.8454 0.23633 2.334l0.0469 1.8789-0.83594 0.41602c-0.45954 0.22814-1.3537 0.61953-1.9863 0.87109-2.2861 0.90906-3.049 2.1635-3.0449 5 0.004 2.4266 0.573 3.9911 1.625 4.4688 0.51351 0.23314 1.4829 0.27094 2.1133 0.08203h0.002c0.59323-0.17774 1.265-0.81345 1.6777-1.5879l0.35547-0.66602 0.15234 0.52344c0.19081 0.65442 0.47564 1.0611 0.91016 1.2988 0.30227 0.16538 0.73255 0.18555 4.1641 0.18555h3.8281v-0.42578-0.42578l-0.83398-0.03125-0.83398-0.03125 0.0527-4.6992c0.0536-4.9164 0.0821-5.2634 0.59766-7.1426 0.40527-1.4772 1.0553-2.6055 1.502-2.6055 0.11037 0 0.2776 0.1171 0.37109 0.25977 0.14269 0.21776 0.15769 0.45172 0.0957 1.4609-0.0614 0.99776-0.0447 1.2754 0.10156 1.625 0.2495 0.59661 0.46872 0.80078 0.85742 0.80078 0.6894 0 1.0239-0.73192 1.0215-2.2305-0.002-1.7172-0.50285-2.8311-1.3926-3.0977-1.1479-0.34391-2.2362 0.81974-2.916 3.1191l-0.25977 0.88086-0.006-1.8379-0.008-1.8359-1.8867 0.029297-1.8867 0.029297-0.0332 0.39844-0.0332 0.39844h0.91016 0.91015v7.2285 7.2285h-1.2129c-0.66756 0-1.2921-0.03016-1.3867-0.06641-0.0946-0.03637-0.25336-0.21551-0.35351-0.39844-0.16355-0.29872-0.1883-0.93355-0.24219-6.2324-0.052-5.1096-0.0843-5.9826-0.24023-6.5195-0.43393-1.4938-1.1604-2.1532-2.6582-2.4141-0.27592-0.04805-0.54336-0.070562-0.80078-0.070312zm100.12 0.00391c-0.98646 0.023751-1.8934 1.1658-2.4883 3.1777l-0.26172 0.88086-0.006-1.8379-0.006-1.8359-1.8867 0.029297-1.8867 0.029297-0.0332 0.39844-0.0332 0.39844h0.85742 0.85547v7.2246 7.2246l-0.82227 0.0293c-0.81717 0.03075-0.82513 0.03513-0.85937 0.33398-0.0718 0.62651-0.15788 0.60712 2.7695 0.57617l2.6856-0.02734v-0.42578h0.002v-0.42578l-0.83398-0.03125-0.83204-0.03125 0.0508-4.6992c0.0536-4.9164 0.0821-5.2634 0.59765-7.1426 0.40529-1.4772 1.0573-2.6055 1.5039-2.6055 0.11037 0 0.27565 0.1171 0.36914 0.25977 0.14267 0.21776 0.15963 0.45172 0.0977 1.4609-0.0614 0.99776-0.0447 1.2754 0.10156 1.625 0.2495 0.59661 0.46872 0.80078 0.85742 0.80078 0.69197 0 1.0117-0.70041 1.0117-2.2148 0-1.7531-0.48575-2.8439-1.3848-3.1133-0.14348-0.042989-0.28486-0.061987-0.42578-0.058594zm5.4805 0.00391c-0.18638 0.000643-0.36779 0.020031-0.54883 0.060547-1.0856 0.24295-1.8416 1.0564-2.3262 2.5-0.32134 0.95726-0.45386 2.5641-0.28516 3.459 0.31604 1.6765 0.95569 2.5302 2.8223 3.7598 0.65145 0.42911 1.3476 0.94169 1.5449 1.1406 1.1056 1.1144 1.1582 3.3696 0.10547 4.5117-0.96119 1.0428-2.3056 0.88639-3.1582-0.36719-0.58637-0.8621-0.97461-2.3865-0.97461-3.8301v-0.64258h-0.37305-0.375l0.0293 2.6797 0.0273 2.6816 0.42578 0.24219c1.2958 0.73989 3.0293 0.97023 4.1504 0.55078 0.74947-0.28041 1.5816-1.0896 1.9961-1.9414 0.46847-0.9626 0.63483-1.9418 0.57031-3.3633-0.1165-2.565-0.81559-3.7064-3.0898-5.0449-1.918-1.1288-2.2442-1.5748-2.2441-3.0859 0-1.2272 0.25103-1.7717 0.95703-2.084 0.7199-0.31845 1.2576-0.1941 1.873 0.43555 0.55459 0.56742 0.85706 1.3266 1.0606 2.6582 0.16236 1.0626 0.16161 1.0625 0.41211 1.0625 0.21385 0 0.21761-0.04234 0.18945-2.2051l-0.0273-2.207-0.79883-0.39453c-0.78-0.3974-1.39-0.5797-1.95-0.5777zm-160.05 0.0118c-0.15663-0.012556-0.3201 0.00302-0.49023 0.048828-0.83321 0.22436-1.5804 1.2924-2.1602 3.0898l-0.29102 0.9043-0.0098-1.834-0.0098-1.834h-1.8594-1.8613v0.42578 0.42383h0.85156 0.84961v7.2285 7.2285h-0.84961-0.85156v0.48047 0.48047l2.6836-0.0293 2.6855-0.02734v-0.42578-0.42578l-0.82422-0.0293-0.82422-0.03125 0.0039-3.4238c0.0025-1.883 0.04711-4.0474 0.09961-4.8086 0.21285-3.0829 1.0921-5.8559 1.9531-6.1582 0.51802-0.18189 0.6096 0.08216 0.58594 1.6934-0.01812 1.2378 0.0033 1.4317 0.21094 1.834 0.15429 0.2997 0.32568 0.47478 0.51172 0.52148 0.74588 0.1872 1.1916-0.42579 1.2832-1.7617 0.13856-2.0215-0.59109-3.4824-1.6875-3.5703zm143.78 0c-1.1981 0.091042-2.3927 0.9494-3.2148 2.6152-0.89604 1.8156-1.2558 3.8876-1.1602 6.6719 0.086 2.5022 0.51659 4.307 1.3633 5.7148 0.45392 0.75476 1.3356 1.5711 1.9238 1.7793 0.62109 0.21979 1.8442 0.21701 2.5293-0.0039 1.1669-0.37686 2.1162-1.6226 2.6992-3.5449 0.32133-1.0594 0.34106-1.33 0.10156-1.4219-0.23116-0.08875-0.2246-0.09982-0.46875 0.78125-0.59642 2.1523-1.6269 3.3027-2.9551 3.3027-0.67771 0-1.042-0.13809-1.4883-0.56445-0.91942-0.87839-1.3067-2.5719-1.4453-6.3184l-0.0547-1.5156h3.3594 3.3594l-0.0723-0.87695c-0.11738-1.414-0.26481-2.1952-0.61328-3.2461-0.7752-2.3378-2.3228-3.4901-3.8633-3.373zm-135.54 0.0019c-0.44319 0.00205-0.89411 0.086672-1.2344 0.25195-0.71509 0.34718-1.4821 1.232-1.873 2.1621l-0.32422 0.77539-0.0332-1.3809-0.032-1.3818-1.408-0.0293-1.408-0.0293v0.4274c0 0.41861 0.0078 0.42773 0.37109 0.42773h0.37305v7.2246 7.2246l-0.82422 0.03125c-0.81718 0.03075-0.82515 0.03318-0.85938 0.33203-0.07088 0.61886-0.14428 0.60156 2.6895 0.60156h2.6074v-0.47852-0.47852h-0.74414-0.74414v-4.9277c0-5.21 0.05903-6.0311 0.5293-7.3691 0.47886-1.3625 1.304-2.1602 2.2324-2.1602 0.37986 0 0.51222 0.05984 0.79102 0.35547 0.64324 0.68202 0.63458 0.57717 0.67383 7.6387l0.03516 6.4531-0.77539 0.03125-0.77539 0.03125v0.42578 0.42578l2.5781 0.02734 2.5781 0.0293v-0.48047-0.48047h-0.74414-0.74414v-5.7695c0-3.3576-0.04708-6.1374-0.11133-6.6504-0.2-1.594-0.711-2.54-1.633-3.0193-0.312-0.1623-0.748-0.2423-1.192-0.2403zm84.84 0.00195c-0.48811-0.02884-0.98581 0.064819-1.4629 0.28711-2.7963 1.3029-4.1799 7.1991-2.8867 12.297 0.57983 2.2857 1.5798 3.6979 2.9902 4.2227 0.59341 0.22076 2.0706 0.14214 2.7109-0.14453 1.0678-0.47806 1.9051-1.7287 2.4726-3.6934 0.25917-0.89715 0.26421-0.96376 0.0918-1.0898-0.101-0.07388-0.21683-0.13476-0.25781-0.13476-0.041 0-0.15547 0.33648-0.25586 0.74609-0.22519 0.91894-0.76731 2.0684-1.2148 2.5781-0.89852 1.0234-2.5049 1.1029-3.377 0.16797-0.82131-0.88051-1.3086-3.2531-1.3086-6.373v-1.3711h3.3105 3.3125l-0.0723-1.1152c-0.13801-2.1347-0.84017-4.1494-1.8262-5.2461-0.62538-0.69557-1.413-1.0828-2.2266-1.1309zm-141.34 0.0039c-0.78456 0.037609-1.5467 0.35754-2.1523 0.95312-2.9582 2.9088-3.0795 11.631-0.20703 14.826 0.70728 0.78668 1.5369 1.1699 2.5312 1.1699 0.59736 0 0.87083-0.05962 1.3848-0.30273 2.0967-0.99191 3.36-4.4507 3.207-8.7852-0.06632-1.8799-0.27817-3.0541-0.81055-4.5176-0.371-1.02-1.113-2.184-1.661-2.602-0.699-0.5335-1.507-0.7783-2.292-0.7407zm120.87 0.00195c-2.6801 0.01575-4.5606 3.5247-4.5606 8.5078 0 2.6174 0.30617 4.2441 1.1211 5.9512 0.36277 0.75989 0.59786 1.0941 1.0996 1.5586 0.83484 0.77291 1.2897 0.93449 2.5098 0.89453 0.78162-0.02562 1.0545-0.08134 1.4922-0.30664 1.0001-0.51461 1.6591-1.4334 2.209-3.0801 0.39729-1.1896 0.44056-1.5066 0.23438-1.6777-0.225-0.18674-0.30649-0.07753-0.47461 0.63476-0.19793 0.83852-0.87543 2.2272-1.2891 2.6406-0.72082 0.72049-1.7477 0.9665-2.5742 0.61719-0.78924-0.33356-1.4205-1.3801-1.7188-2.8535-0.15528-0.76716-0.37482-3.5902-0.37696-4.8418v-0.55859h3.2891c1.809 0 3.3139-0.04213 3.3457-0.09375 0.0319-0.0515 0.0103-0.61262-0.0488-1.248-0.35336-3.812-1.9788-6.1579-4.2578-6.1445zm-83.075 0.0098c-0.9712-0.11848-1.9774 0.27044-2.8301 1.1914-1.392 1.5035-2.1369 4.0729-2.1328 7.3496 0.0037 2.6429 0.46267 4.8511 1.3223 6.3535 0.45446 0.7943 1.277 1.5698 1.9336 1.8223 0.76465 0.29408 1.8957 0.2906 2.6934-0.0078 1.1963-0.4476 2.0636-1.6624 2.6523-3.7148 0.2548-0.88831 0.26342-0.97882 0.10547-1.1367-0.22215-0.22214-0.32445-0.10518-0.48633 0.5625-0.37255 1.5366-1.2198 2.8677-2.0742 3.2559-0.97075 0.44095-2.1378 0.13327-2.7227-0.7168-0.69875-1.0156-1.0135-2.5805-1.125-5.5957l-0.07031-1.8867h3.3125 3.3125v-0.7832c0-1.5921-0.56328-3.7404-1.2676-4.8359-0.715-1.11-1.651-1.7365-2.623-1.855zm94.223 0.00391c-0.41456 0.011116-0.82239 0.072409-1.0625 0.17773-0.84413 0.37031-1.6038 1.2701-2.0508 2.4316l-0.25586 0.66406-0.004-1.4629-0.006-1.4648-1.8867 0.029297-1.8867 0.029297-0.0332 0.39844-0.0332 0.39844h0.85742 0.85742v7.2246 7.2246l-0.82422 0.0293c-0.81717 0.03075-0.82318 0.03513-0.85742 0.33398-0.0716 0.62591-0.15457 0.60716 2.7148 0.57617l2.6328-0.02734v-0.42578-0.42578l-0.76953-0.03125-0.77148-0.03125v-4.8242c0-5.1226 0.0572-5.9737 0.49023-7.2715 0.50853-1.5241 1.3067-2.3516 2.2715-2.3516 0.36492 0 0.5133 0.06609 0.79883 0.35156 0.63138 0.63139 0.62854 0.58462 0.66601 7.6484l0.0332 6.457h-0.74804-0.74805v0.48047 0.48047l2.5781-0.0293 2.5781-0.02734v-0.42578-0.42578l-0.76562-0.03125-0.76368-0.03125-0.0391-6.3984c-0.0419-6.7807-0.0434-6.789-0.56055-7.8789-0.25367-0.53459-0.829-1.0852-1.3105-1.252-0.265-0.091788-0.687-0.13026-1.1016-0.11914zm37.914 0.035156c-1.3404-0.00375-2.2483 0.65655-2.9844 2.1738-0.19773 0.40761-0.36884 0.81299-0.38086 0.90234-0.0125 0.08938-0.0482-0.4822-0.0801-1.2715l-0.0566-1.4355-1.4102-0.029297-1.4082-0.029297v0.48047c0 0.47935 0.002 0.48242 0.37304 0.48242h0.3711v7.2285 7.2285h-0.84961-0.85157v0.42578 0.42774l2.6856-0.0293 2.6836-0.02734 0.0332-0.39844 0.0332-0.39844h-0.81055-0.81054l0.0391-5.3945c0.0371-5.1116 0.0513-5.4391 0.26562-6.209 0.61275-2.2001 1.7662-3.3035 2.9414-2.8125 0.31105 0.12998 0.44778 0.28853 0.67773 0.7793l0.28907 0.61328 0.0312 6.5117 0.0312 6.5117h-0.75-0.74805v0.42578 0.42578l5.0762-0.02734 5.0762-0.02734v-0.42578-0.42578l-0.82421-0.0293-0.82422-0.03125v-7.6504-7.6484h-1.9141-1.9121v0.42578 0.42383h0.8496 0.84961v7.2285 7.2285l-0.5039 0.002c-0.27772 0.000326-0.90048 0.03086-1.3828 0.06836l-0.87696 0.06836v-5.9082c0-3.6377-0.0429-6.2239-0.11328-6.7305-0.30305-2.1789-1.1495-3.1179-2.8144-3.123zm45.875 0.31055-1.8887 0.029297-1.8867 0.029297-0.0332 0.39844-0.0312 0.39844h0.85547 0.85742v7.2246 7.2246l-0.82421 0.03125c-0.81718 0.03075-0.8232 0.03318-0.85743 0.33203-0.0718 0.62651-0.15982 0.60712 2.7676 0.57617l2.6875-0.02734v-0.42578-0.42578l-0.82422-0.0293-0.82226-0.03125v-7.6523-7.6523zm-211.01 0.00586v0.42578 0.42383h0.79102 0.79297l0.0332 6.5117c0.03389 6.4576 0.03612 6.5161 0.27734 7.2344 0.2804 0.83495 0.81506 1.4961 1.4531 1.7949 0.5448 0.25514 1.8329 0.22384 2.4121-0.05859 0.79852-0.38948 1.4965-1.2664 1.9512-2.4473l0.25-0.65039 0.0059 1.5137 0.0059 1.5156h1.8594 1.8613v-0.47852-0.47852h-0.85156-0.84961v-7.6523-7.6543h-1.9141-1.9121v0.42578 0.42383h0.91016 0.91211l-0.04492 5.2363c-0.04729 5.5638-0.0715 5.8649-0.61133 7.3086-0.85091 2.2756-2.8199 2.6929-3.4629 0.73438-0.17118-0.52142-0.19369-1.2124-0.23047-7.3516l-0.03906-6.7773h-1.8008-1.7988zm180.18 0v0.42578 0.42383h0.96875c0.87007 0 0.96423 0.02046 0.92188 0.1875-0.026 0.10225-0.59183 2.5377-1.2578 5.4141-0.66599 2.8764-1.2263 5.217-1.2442 5.1992-0.0396-0.03963-2.3652-10.562-2.3652-10.701 0-0.05462 0.40967-0.09961 0.91016-0.09961h0.91015l-0.0332-0.39844-0.0332-0.39844h-2.8164-2.8184l-0.0312 0.39844-0.0332 0.39844h0.79101 0.79102l0.10937 0.45312c0.06 0.24848 0.88781 3.7403 1.8398 7.7598l1.7305 7.3066h0.29492c0.25052 0 0.31044-0.05919 0.40039-0.39844 0.0581-0.21925 0.85054-3.5318 1.7617-7.3613 0.91117-3.8295 1.7034-7.1421 1.7617-7.3613l0.10742-0.39844h0.68554 0.6875v-0.42383-0.42578h-2.0195-2.0195zm-184.81 0.5315c0.73157 0 1.1817 0.30598 1.5684 1.0664 0.60183 1.1834 0.65981 1.7508 0.66211 6.4277 0.0021 4.3595-0.05245 5.1082-0.45312 6.166-0.21547 0.56888-0.61128 1.0882-1.0176 1.3359-0.36717 0.22389-1.0641 0.26395-1.3965 0.08008-0.69344-0.38354-1.1189-1.1208-1.4023-2.4355-0.16803-0.77949-0.19283-1.4371-0.19141-5.1465 0.0017-4.6772 0.06105-5.242 0.66406-6.4277 0.38671-0.76042 0.83484-1.0664 1.5664-1.0664zm37.211 0c0.98251 0 1.6755 1.1965 1.8027 3.1133 0.03187 0.47998 0.08303 1.2207 0.11328 1.6445l0.05469 0.76953h-2.1445-2.1465l0.07422-1.0371c0.12719-1.7762 0.45073-3.0401 0.98828-3.8633 0.30269-0.46356 0.63026-0.62695 1.2578-0.62695zm83.389 0c1.2395 0 1.8143 1.2116 1.9746 4.1602l0.0742 1.3672h-2.1406c-1.642 0-2.1407-0.03094-2.1406-0.13281 0-0.6611 0.26032-2.6269 0.42969-3.25 0.42128-1.5499 0.92148-2.1445 1.8027-2.1445zm20.162 0c1.316 0 1.9071 1.1717 2.0234 4.0137l0.0625 1.5137h-2.1055-2.1035l0.0625-1.0898c0.0826-1.4214 0.31997-2.526 0.71875-3.3438 0.40657-0.83372 0.72518-1.0938 1.3418-1.0938zm51.141 0c1.2605 0 1.8569 1.2276 2.0039 4.1191l0.0723 1.4082h-2.125-2.127l0.0449-0.82422c0.1125-2.0773 0.53312-3.5912 1.1914-4.2832 0.36228-0.38084 0.4492-0.41992 0.93945-0.41992zm-87.758 6.0469-0.0508 2.6895c-0.0421 2.2917-0.0821 2.8215-0.27539 3.5742-0.44628 1.7379-1.1187 2.6777-1.9141 2.6777-0.28195 0-0.47166-0.07274-0.63086-0.24219-0.50576-0.53835-0.59226-1.0346-0.59961-3.4258-0.01-3.3432 0.10603-3.5874 2.1953-4.6348l1.2754-0.63867zm-18.625 0.0098-0.002 2.1543c-0.002 2.9206-0.20738 4.2462-0.85742 5.5801-0.5716 1.1729-1.4741 1.5566-2.0508 0.87305-0.14982-0.17806-0.33359-0.52371-0.4082-0.76953-0.18845-0.62082-0.18841-4.7422 0-5.3652 0.22501-0.74239 0.68173-1.1506 2.0605-1.8418l1.2578-0.63086z" transform="matrix(.8 0 0 -.8 62.201 479.12)" fill="#a20b35"/></g></g></svg>
