<svg xmlns:xlink="http://www.w3.org/1999/xlink" xmlns="http://www.w3.org/2000/svg" id="Layer_2" viewBox="0 0 661.61 144.5" width="661.61"  height="144.5" ><defs><style>.cls-1{fill:#212322;}.cls-1,.cls-2{stroke-width:0px;}.cls-2{fill:#c10016;}</style></defs><g id="Layer_1-2"><path class="cls-2" d="M28.39,0c-7.57,0-14.7,2.8-20.06,7.92C2.96,13.03,0,19.82,0,27.04c0,12.3,10.51,22.31,23.43,22.31,10.72,0,19.43-8.3,19.43-18.51,0-8.54-7.29-15.5-16.25-15.5-3.66,0-4.81,2.43-4.43,4.06.41,1.74,2.53,2.68,4.43,2.68,5.06,0,9.19,3.93,9.19,8.76,0,6.49-5.54,11.79-12.36,11.79-9.02,0-16.36-7-16.36-15.58,0-5.42,2.22-10.52,6.25-14.36,4.03-3.84,9.38-5.87,15.06-5.87l79.97.04v42.49c0,35.61-18.9,68.13-50.59,87.09C27.53,118.33,9.86,88.22,8.24,54.51c-.44-3.42-5.77-3.8-6.81-.5,1.54,38.5,19.06,66.55,52.98,88.51l3.36,1.98,3.37-1.98c34.08-20.19,54.42-55.02,54.42-93.17V0H28.39Z"/><path class="cls-2" d="M57.32,130.72V30c0-1.85-1.59-3.37-3.54-3.37s-3.54,1.52-3.54,3.37c0,0-.02,92.46-.05,95.74,0,.06.01.11.04.14.15.17.98.82,1.54,1.25,2.61,1.99,4.89,3.4,5.44,3.7.07.04.1,0,.1-.11Z"/><path class="cls-2" d="M71.38,120.79V29.93c0-1.85-1.59-3.36-3.53-3.36s-3.55,1.51-3.55,3.36v96.65s0,.05.03.08c.03.05.1.08.19.02.19-.12,5.42-4.5,5.82-4.84s.76-.63.98-.91c.06-.04.05-.15.05-.15Z"/><path class="cls-2" d="M85.48,105.73V30.01c0-1.87-1.58-3.37-3.54-3.37s-3.54,1.51-3.54,3.37v83.49s0,.06.02.1.09.07.19-.02c.5-.45,1.7-1.81,2.08-2.22.51-.55,3.94-4.57,4.67-5.33.12-.12.12-.31.12-.31Z"/><path class="cls-2" d="M99.57,77.99V30.01c0-1.87-1.59-3.37-3.54-3.37s-3.53,1.51-3.53,3.37v63.26s.06.29.21.06c.75-1.17,1.82-3.29,3.58-7.15.96-2.1,3.07-7.54,3.22-7.9.05-.13.05-.3.05-.3Z"/><path class="cls-2" d="M103.69,13.7h-49.96c-1.96,0-3.54,1.51-3.54,3.37s1.58,3.37,3.54,3.37h49.97c.19,0,.21-.23.21-.23,0,0-.02-6.07-.02-6.27,0-.23-.21-.23-.21-.23Z"/><path class="cls-1" d="M194.28,33.09c-12.87-3.3-16.07-4.89-16.07-9.79v-.21c0-3.62,3.3-6.49,9.58-6.49s12.77,2.77,19.36,7.34l8.51-12.34c-7.55-6.06-16.81-9.47-27.66-9.47-15.22,0-26.07,8.94-26.07,22.45v.21c0,14.79,9.68,18.94,24.68,22.77,12.45,3.19,15,5.32,15,9.47v.21c0,4.36-4.04,7.02-10.75,7.02-8.51,0-15.53-3.51-22.24-9.04l-9.68,11.6c8.94,7.98,20.32,11.92,31.6,11.92,16.07,0,27.34-8.3,27.34-23.09v-.21c0-12.98-8.51-18.41-23.62-22.34Z"/><polygon class="cls-1" points="287.35 3.19 225.63 3.19 225.63 18.3 248.3 18.3 248.3 77.67 264.68 77.67 264.68 18.3 287.35 18.3 287.35 3.19"/><path class="cls-1" d="M365.2,77.67l-18.19-26.6c9.47-3.51,15.96-11.07,15.96-23.09v-.21c0-7.02-2.23-12.87-6.38-17.02-4.89-4.89-12.24-7.55-21.71-7.55h-34.05v74.48h16.39v-23.83h12.87l15.96,23.83h19.15ZM333.81,39.37h-16.6v-21.39h16.28c7.98,0,12.88,3.62,12.88,10.64v.21c0,6.28-4.58,10.53-12.56,10.53Z"/><path class="cls-1" d="M404.49,2.66l-31.92,75.01h16.71l6.81-16.7h31.49l6.81,16.7h17.13L419.6,2.66h-15.11ZM401.94,46.5l9.9-24.15,9.9,24.15h-19.79Z"/><polygon class="cls-1" points="479.5 33.09 461.73 3.19 442.58 3.19 471.2 48.31 471.2 77.67 487.59 77.67 487.59 47.99 516.21 3.19 497.59 3.19 479.5 33.09"/><polygon class="cls-1" points="582.56 63.1 542.13 63.1 542.13 47.45 577.24 47.45 577.24 32.88 542.13 32.88 542.13 17.77 582.03 17.77 582.03 3.19 525.85 3.19 525.85 77.67 582.56 77.67 582.56 63.1"/><path class="cls-1" d="M643.42,51.07c9.47-3.51,15.96-11.07,15.96-23.09v-.21c0-7.02-2.23-12.87-6.38-17.02-4.89-4.89-12.24-7.55-21.71-7.55h-34.05v74.48h16.39v-23.83h12.87l15.96,23.83h19.15l-18.19-26.6ZM642.18,28.84c0,6.28-4.58,10.53-12.55,10.53h-16.6v-21.39h16.28c7.98,0,12.87,3.62,12.87,10.64v.21Z"/><path class="cls-1" d="M606.31,113.14c0-.89-.25-1.53-1.02-1.79-.38-.13-1.02-.26-1.91-.26h-2.3v6.89h1.15v-2.68h.89c.64,0,1.02.13,1.28.26.38.26.64.77.64,1.53v1.02h1.15v-1.53c0-.26-.13-.64-.38-1.02-.26-.38-.64-.51-1.15-.64.51-.13.77-.26,1.02-.38.38-.38.64-.77.64-1.4ZM604.53,114.16c-.26.13-.64.13-1.15.13h-1.15v-2.42h1.02c.64,0,1.15.13,1.4.26.26.13.51.51.64,1.02,0,.51-.26.89-.77,1.02Z"/><path class="cls-1" d="M607.85,110.08c-1.28-1.15-2.68-1.79-4.47-1.79-1.66,0-3.19.64-4.34,1.79-1.15,1.15-1.79,2.68-1.79,4.34,0,1.79.64,3.19,1.79,4.47,1.15,1.15,2.55,1.79,4.34,1.79s3.19-.51,4.47-1.79c1.28-1.28,1.91-2.68,1.79-4.47,0-1.66-.51-3.19-1.79-4.34ZM607.34,118.37c-1.02,1.02-2.3,1.53-3.83,1.53s-2.81-.51-3.83-1.53c-1.02-1.02-1.53-2.3-1.53-3.83s.51-2.81,1.53-3.83c1.02-1.02,2.3-1.66,3.83-1.53,1.53,0,2.81.51,3.83,1.53,1.02,1.15,1.53,2.3,1.53,3.83s-.51,2.81-1.53,3.83Z"/><path class="cls-1" d="M251.64,124.82c0,5.17-2.69,7.78-7.06,7.78s-7.09-2.77-7.09-7.98v-15.95h-4.93v16.15c0,8.14,4.65,12.35,11.95,12.35s12.07-4.21,12.07-12.59v-15.91h-4.93v16.15Z"/><polygon class="cls-1" points="293.77 128.07 278.74 108.67 274.17 108.67 274.17 136.73 279.02 136.73 279.02 116.76 294.5 136.73 298.62 136.73 298.62 108.67 293.77 108.67 293.77 128.07"/><rect class="cls-1" x="317.75" y="108.67" width="4.93" height="28.06"/><polygon class="cls-1" points="353.31 130.23 344.85 108.67 339.4 108.67 351.02 136.93 355.43 136.93 367.06 108.67 361.73 108.67 353.31 130.23"/><polygon class="cls-1" points="388.43 124.82 402.5 124.82 402.5 120.37 388.43 120.37 388.43 113.08 404.3 113.08 404.3 108.67 383.5 108.67 383.5 136.73 404.5 136.73 404.5 132.32 388.43 132.32 388.43 124.82"/><path class="cls-1" d="M444.91,117.61v-.08c0-2.45-.84-4.53-2.33-6.05-1.8-1.76-4.57-2.81-8.1-2.81h-12.51v28.06h4.93v-9.78h6.17l6.89,9.78h5.85l-7.58-10.62c3.89-1.12,6.65-3.89,6.65-8.5ZM426.91,122.58v-9.42h7.17c3.65,0,5.81,1.64,5.81,4.65v.08c0,2.85-2.24,4.69-5.77,4.69h-7.21Z"/><path class="cls-1" d="M473.46,120.45c-5.41-1.28-6.69-2.25-6.69-4.41v-.08c0-1.84,1.68-3.33,4.57-3.33,2.57,0,5.09,1,7.62,2.89l2.65-3.73c-2.85-2.29-6.09-3.53-10.18-3.53-5.57,0-9.58,3.33-9.58,8.14v.08c0,5.17,3.37,6.93,9.34,8.38,5.21,1.2,6.33,2.29,6.33,4.29v.08c0,2.08-1.92,3.53-4.97,3.53-3.45,0-6.17-1.32-8.86-3.65l-2.97,3.53c3.37,3.01,7.42,4.49,11.71,4.49,5.89,0,10.02-3.13,10.02-8.38v-.08c0-4.65-3.05-6.77-8.98-8.22Z"/><rect class="cls-1" x="500.16" y="108.67" width="4.93" height="28.06"/><polygon class="cls-1" points="522.13 113.24 531.07 113.24 531.07 136.73 536 136.73 536 113.24 544.94 113.24 544.94 108.67 522.13 108.67 522.13 113.24"/><polygon class="cls-1" points="572.48 121.05 564.66 108.67 558.81 108.67 569.96 125.66 569.96 136.73 574.93 136.73 574.93 125.54 586.07 108.67 580.42 108.67 572.48 121.05"/></g></svg>