<?xml version="1.0" encoding="UTF-8" standalone="no"?>
<svg
   xmlns:dc="http://purl.org/dc/elements/1.1/"
   xmlns:cc="http://creativecommons.org/ns#"
   xmlns:rdf="http://www.w3.org/1999/02/22-rdf-syntax-ns#"
   xmlns:svg="http://www.w3.org/2000/svg"
   xmlns="http://www.w3.org/2000/svg"
   xmlns:sodipodi="http://sodipodi.sourceforge.net/DTD/sodipodi-0.dtd"
   xmlns:inkscape="http://www.inkscape.org/namespaces/inkscape"
   width="105.83334mm"
   height="86.405334mm"
   viewBox="0 0 105.83333 86.405336"
   version="1.1"
   id="svg169"
   inkscape:version="1.0.1 (3bc2e813f5, 2020-09-07)"
   sodipodi:docname="Western Connecticut State University logo.svg">
  <defs
     id="defs163" />
  <sodipodi:namedview
     id="base"
     pagecolor="#ffffff"
     bordercolor="#666666"
     borderopacity="1.0"
     inkscape:pageopacity="0.0"
     inkscape:pageshadow="2"
     inkscape:zoom="0.35"
     inkscape:cx="605.71427"
     inkscape:cy="303.31397"
     inkscape:document-units="mm"
     inkscape:current-layer="layer1"
     inkscape:document-rotation="0"
     showgrid="false"
     inkscape:pagecheckerboard="true"
     inkscape:window-width="1366"
     inkscape:window-height="705"
     inkscape:window-x="-8"
     inkscape:window-y="-8"
     inkscape:window-maximized="1" />
  <metadata
     id="metadata166">
    <rdf:RDF>
      <cc:Work
         rdf:about="">
        <dc:format>image/svg+xml</dc:format>
        <dc:type
           rdf:resource="http://purl.org/dc/dcmitype/StillImage" />
        <dc:title></dc:title>
      </cc:Work>
    </rdf:RDF>
  </metadata>
  <g
     inkscape:label="Layer 1"
     inkscape:groupmode="layer"
     id="layer1"
     transform="translate(54.428566,-67.914845)">
    <path
       style="fill:#002654;fill-opacity:1;fill-rule:nonzero;stroke:none;stroke-width:0.14699"
       d="m -44.066293,67.914845 h 13.992829 v 3.566823 h -13.992829 z m 0,0"
       id="path2" />
    <path
       style="fill:#002654;fill-opacity:1;fill-rule:nonzero;stroke:none;stroke-width:0.14699"
       d="m -38.733858,89.180269 1.700153,-5.174529 1.627808,5.174529 h 2.575783 l 2.757225,-8.502492 h -2.296155 l -1.785709,5.4777 -1.712788,-5.4777 h -2.210602 l -1.797191,5.429467 -1.712786,-5.429467 h -2.478173 l 2.757224,8.502492 z m 0,0"
       id="path4" />
    <path
       style="fill:#002654;fill-opacity:1;fill-rule:nonzero;stroke:none;stroke-width:0.14699"
       d="M -22.142279,87.321644 H -26.5876 v -1.554888 h 3.777548 V 83.97014 H -26.5876 v -1.433734 h 4.287995 v -1.858629 h -6.668558 v 8.503071 h 6.825884 z m 0,0"
       id="path6" />
    <path
       style="fill:#002654;fill-opacity:1;fill-rule:nonzero;stroke:none;stroke-width:0.14699"
       d="m -17.562599,87.480119 c -0.485758,0 -0.980128,-0.07694 -1.481965,-0.230821 -0.501835,-0.153883 -0.943383,-0.355996 -1.32349,-0.607487 l -0.789502,1.77365 c 0.404799,0.283071 0.93075,0.51045 1.579002,0.679833 0.647104,0.169958 1.316028,0.254933 2.003898,0.254933 0.809598,0 1.498043,-0.123445 2.06476,-0.36977 0.566719,-0.247471 0.991613,-0.57763 1.275835,-0.990463 0.283645,-0.412267 0.424894,-0.874483 0.424894,-1.384933 0,-0.590834 -0.156177,-1.058217 -0.467384,-1.402725 -0.312357,-0.343938 -0.680406,-0.59543 -1.105302,-0.752755 -0.42547,-0.1579 -0.961756,-0.305466 -1.609434,-0.443841 -0.575331,-0.12058 -0.992187,-0.237713 -1.251717,-0.351975 -0.258382,-0.113688 -0.388148,-0.283071 -0.388148,-0.51045 0,-0.226225 0.109094,-0.410542 0.327858,-0.552363 0.218763,-0.14125 0.566718,-0.212446 1.044438,-0.212446 0.760792,0 1.546848,0.218763 2.356446,0.655717 l 0.74127,-1.785136 c -0.412837,-0.242878 -0.891132,-0.427765 -1.43316,-0.553511 -0.543176,-0.124598 -1.093819,-0.187759 -1.651924,-0.187759 -0.818784,0 -1.508378,0.121727 -2.071077,0.36518 -0.563274,0.241732 -0.986445,0.571888 -1.269517,0.988743 -0.283645,0.416858 -0.42547,0.885391 -0.42547,1.403304 0,0.591979 0.154456,1.061087 0.461643,1.409046 0.307762,0.34795 0.676388,0.601166 1.105301,0.759641 0.42949,0.157325 0.96348,0.304892 1.603693,0.443267 0.582795,0.128621 1.005968,0.252642 1.268944,0.369775 0.263549,0.117133 0.395037,0.297425 0.395037,0.540879 0,0.461646 -0.461644,0.692467 -1.384929,0.692467"
       id="path8" />
    <path
       style="fill:#002654;fill-opacity:1;fill-rule:nonzero;stroke:none;stroke-width:0.14699"
       d="m -10.772314,89.180269 h 2.4046755 v -6.595634 h 2.5993252 v -1.906858 h -7.6153837 v 1.906858 h 2.611383 z m 0,0"
       id="path10" />
    <path
       style="fill:#002654;fill-opacity:1;fill-rule:nonzero;stroke:none;stroke-width:0.14699"
       d="M 2.1990455,87.321644 H -2.2462798 V 85.766756 H 1.5318454 V 83.97014 h -3.7781252 v -1.433734 h 4.2879961 v -1.858629 h -6.6685546 v 8.502492 h 6.8258838 z m 0,0"
       id="path12" />
    <path
       style="fill:#002654;fill-opacity:1;fill-rule:nonzero;stroke:none;stroke-width:0.14699"
       d="m 6.1838707,82.573152 h 1.33555 c 0.4937959,0 0.8664418,0.109096 1.1173584,0.327858 0.2509167,0.218192 0.3766667,0.52595 0.3766667,0.923288 0,0.396183 -0.12575,0.702225 -0.3766667,0.916971 -0.2509166,0.214742 -0.6235625,0.321542 -1.1173584,0.321542 h -1.33555 z m 0,4.348288 h 1.3114334 l 1.5422542,2.258829 H 11.61334 L 9.7788292,86.508598 c 0.5339858,-0.259529 0.9451028,-0.618392 1.2333398,-1.074867 0.286521,-0.457625 0.430063,-0.994483 0.430063,-1.609433 0,-0.640213 -0.153879,-1.196596 -0.460492,-1.6703 C 10.673403,81.679723 10.236448,81.315694 9.6697334,81.060182 9.1030167,80.805819 8.4346666,80.677777 7.6652624,80.677777 H 3.7780455 v 8.502492 h 2.4058252 z m 0,0"
       id="path14" />
    <path
       style="fill:#002654;fill-opacity:1;fill-rule:nonzero;stroke:none;stroke-width:0.14699"
       d="m 15.366199,84.649973 3.753429,4.530296 h 1.979783 v -8.502492 h -2.35587 v 4.530871 l -3.754005,-4.530871 h -1.979783 v 8.502492 h 2.356446 z m 0,0"
       id="path16" />
    <path
       style="fill:#002654;fill-opacity:1;fill-rule:nonzero;stroke:none;stroke-width:0.14699"
       d="m -41.78851,101.03427 c 0.708541,0.37724 1.507803,0.565 2.398935,0.565 0.777443,0 1.477372,-0.13723 2.101507,-0.41284 0.623563,-0.27561 1.141476,-0.67179 1.554887,-1.190281 l -1.530771,-1.385504 c -0.550641,0.664333 -1.218415,0.996783 -2.003896,0.996783 -0.461643,0 -0.872758,-0.101058 -1.233345,-0.303742 -0.360587,-0.202687 -0.639639,-0.487483 -0.838307,-0.856108 -0.198092,-0.3692 -0.297426,-0.791221 -0.297426,-1.268942 0,-0.477721 0.09933,-0.900892 0.297426,-1.270092 0.198668,-0.368625 0.47772,-0.65342 0.838307,-0.856108 0.360587,-0.202112 0.771702,-0.303742 1.233345,-0.303742 0.785481,0 1.453255,0.332455 2.003896,0.996784 l 1.530771,-1.385504 c -0.413411,-0.518488 -0.931324,-0.914676 -1.554887,-1.19028 -0.624135,-0.275608 -1.324064,-0.412837 -2.101507,-0.412837 -0.891132,0 -1.690394,0.187754 -2.398935,0.564996 -0.708542,0.376087 -1.265499,0.900891 -1.669723,1.572683 -0.405947,0.672367 -0.60806,1.433158 -0.60806,2.2841 0,0.849792 0.202113,1.611154 0.60806,2.28295 0.404224,0.672944 0.961181,1.196594 1.669723,1.572684"
       id="path18" />
    <path
       style="fill:#002654;fill-opacity:1;fill-rule:nonzero;stroke:none;stroke-width:0.14699"
       d="m -28.323928,98.447578 c -0.202687,0.368625 -0.47772,0.653421 -0.82625,0.856108 -0.347954,0.203259 -0.736676,0.303742 -1.165589,0.303742 -0.42949,0 -0.818211,-0.100483 -1.166167,-0.303742 -0.348528,-0.202687 -0.624135,-0.487483 -0.826247,-0.856108 -0.202113,-0.3692 -0.303744,-0.791221 -0.303744,-1.268942 0,-0.477721 0.101631,-0.900892 0.303744,-1.270092 0.202112,-0.368625 0.477719,-0.65342 0.826247,-0.856108 0.347956,-0.202112 0.736677,-0.303742 1.166167,-0.303742 0.428913,0 0.817635,0.10163 1.165589,0.303742 0.34853,0.202688 0.623563,0.487483 0.82625,0.856108 0.202112,0.3692 0.303741,0.792371 0.303741,1.270092 0,0.477721 -0.101629,0.899742 -0.303741,1.268942 m 0.431211,-5.119413 c -0.71658,-0.381254 -1.524454,-0.571308 -2.42305,-0.571308 -0.899171,0 -1.707047,0.190054 -2.423627,0.571308 -0.716579,0.380109 -1.279278,0.906063 -1.688095,1.579004 -0.409394,0.671221 -0.613802,1.429142 -0.613802,2.271467 0,0.841175 0.204408,1.598525 0.613802,2.270317 0.408817,0.672937 0.971516,1.198897 1.688095,1.579007 0.71658,0.38125 1.524456,0.57131 2.423627,0.57131 0.898596,0 1.70647,-0.19006 2.42305,-0.57131 0.71658,-0.38011 1.279279,-0.90607 1.688097,-1.579007 0.408818,-0.671221 0.613801,-1.429142 0.613801,-2.270317 0,-0.842325 -0.204983,-1.600246 -0.613801,-2.271467 -0.408818,-0.672941 -0.971517,-1.198895 -1.688097,-1.579004"
       id="path20" />
    <path
       style="fill:#002654;fill-opacity:1;fill-rule:nonzero;stroke:none;stroke-width:0.14699"
       d="m -24.085313,101.42931 h 2.356445 v -4.530303 l 3.753433,4.530303 h 1.979781 v -8.502495 h -2.356445 v 4.5303 l -3.753433,-4.5303 h -1.979781 z m 0,0"
       id="path22" />
    <path
       style="fill:#002654;fill-opacity:1;fill-rule:nonzero;stroke:none;stroke-width:0.14699"
       d="m -12.072264,92.926815 h -1.979782 v 8.502495 h 2.35702 v -4.530303 l 3.7528584,4.530303 h 1.9803543 v -8.502495 h -2.356446 v 4.5303 z m 0,0"
       id="path24" />
    <path
       style="fill:#002654;fill-opacity:1;fill-rule:nonzero;stroke:none;stroke-width:0.14699"
       d="m 2.8071038,99.570678 h -4.4453211 v -1.554883 h 3.7769711 v -1.797192 h -3.7769711 v -1.433159 h 4.2874211 v -1.858629 h -6.6679837 v 8.502495 h 6.8258837 z m 0,0"
       id="path26" />
    <path
       style="fill:#002654;fill-opacity:1;fill-rule:nonzero;stroke:none;stroke-width:0.14699"
       d="m 7.5010457,95.052436 c 0.3605876,-0.202112 0.7722751,-0.303742 1.2333459,-0.303742 0.7860543,0 1.4532524,0.332455 2.0044694,0.996209 l 1.530771,-1.384929 c -0.413988,-0.518488 -0.931325,-0.914676 -1.554888,-1.19028 -0.624712,-0.275608 -1.3240648,-0.412837 -2.1020815,-0.412837 -0.8905542,0 -1.6898168,0.187754 -2.3983585,0.564996 -0.7091167,0.376087 -1.2655001,0.900891 -1.6697251,1.572683 -0.4053708,0.672367 -0.6080583,1.433158 -0.6080583,2.2841 0,0.849792 0.2026875,1.611154 0.6080583,2.28295 0.404225,0.672944 0.9606084,1.196594 1.6697251,1.572684 0.7085417,0.37724 1.5078043,0.565 2.3983585,0.565 0.7780167,0 1.4773695,-0.13723 2.1020815,-0.41284 0.623563,-0.27561 1.1409,-0.67179 1.554888,-1.190281 l -1.530771,-1.385504 c -0.551217,0.664333 -1.2184151,0.996783 -2.0044694,0.996783 -0.4610708,0 -0.8727583,-0.101058 -1.2333459,-0.304317 -0.3600125,-0.202112 -0.6390625,-0.486908 -0.8383042,-0.855533 -0.1975208,-0.3692 -0.2974291,-0.791221 -0.2974291,-1.268942 0,-0.477721 0.099908,-0.900892 0.2974291,-1.270092 0.1992417,-0.368625 0.4782917,-0.653995 0.8383042,-0.856108"
       id="path28" />
    <path
       style="fill:#002654;fill-opacity:1;fill-rule:nonzero;stroke:none;stroke-width:0.14699"
       d="m 17.72322,101.42931 v -6.595636 h 2.599896 v -1.906859 h -7.61653 v 1.906859 h 2.611954 v 6.595636 z m 0,0"
       id="path30" />
    <path
       style="fill:#002654;fill-opacity:1;fill-rule:nonzero;stroke:none;stroke-width:0.14699"
       d="m 23.869266,92.926815 h -2.40525 v 8.502495 h 2.40525 z m 0,0"
       id="path32" />
    <path
       style="fill:#002654;fill-opacity:1;fill-rule:nonzero;stroke:none;stroke-width:0.14699"
       d="m 28.951933,95.052436 c 0.360587,-0.202112 0.772275,-0.303742 1.233341,-0.303742 0.786059,0 1.453259,0.332455 2.004476,0.996209 l 1.530771,-1.384929 c -0.413988,-0.518488 -0.931326,-0.914676 -1.554888,-1.19028 -0.624713,-0.275608 -1.324067,-0.412837 -2.102084,-0.412837 -0.890558,0 -1.68982,0.187754 -2.398358,0.564996 -0.709117,0.376087 -1.2655,0.900891 -1.669725,1.572683 -0.405371,0.672367 -0.608058,1.433158 -0.608058,2.2841 0,0.849792 0.202687,1.611154 0.608058,2.28295 0.404225,0.672944 0.960608,1.196594 1.669725,1.572684 0.708538,0.37724 1.5078,0.565 2.398358,0.565 0.778017,0 1.477371,-0.13723 2.102084,-0.41284 0.623562,-0.27561 1.1409,-0.67179 1.554888,-1.190281 L 32.18975,98.610645 c -0.551217,0.664333 -1.218417,0.996783 -2.004476,0.996783 -0.461066,0 -0.872754,-0.100483 -1.233341,-0.304317 -0.360013,-0.202112 -0.639067,-0.486908 -0.838309,-0.855533 -0.197516,-0.3692 -0.297425,-0.791221 -0.297425,-1.268942 0,-0.477721 0.09991,-0.900892 0.297425,-1.270092 0.199242,-0.368625 0.478296,-0.653995 0.838309,-0.856108"
       id="path34" />
    <path
       style="fill:#002654;fill-opacity:1;fill-rule:nonzero;stroke:none;stroke-width:0.14699"
       d="m 40.486113,97.566211 c 0,1.361384 -0.534563,2.041217 -1.604267,2.041217 -1.077167,0 -1.6146,-0.679833 -1.6146,-2.041217 v -4.639396 h -2.405825 v 4.712892 c 0,1.263771 0.35025,2.238734 1.050754,2.927183 0.699929,0.68844 1.682929,1.03238 2.945554,1.03238 1.263779,0 2.245054,-0.34394 2.944984,-1.03238 0.701075,-0.688449 1.051329,-1.663412 1.051329,-2.927183 v -4.712892 h -2.367929 z m 0,0"
       id="path36" />
    <path
       style="fill:#002654;fill-opacity:1;fill-rule:nonzero;stroke:none;stroke-width:0.14699"
       d="m 43.789384,92.926815 v 1.906859 h 2.611383 v 6.595636 h 2.404675 v -6.595636 h 2.599325 v -1.906859 z m 0,0"
       id="path38" />
    <path
       style="fill:#002654;fill-opacity:1;fill-rule:nonzero;stroke:none;stroke-width:0.14699"
       d="m -39.18976,112.38414 c -0.347954,0.23886 -0.87448,0.35829 -1.579001,0.35829 -0.534565,0 -1.054774,-0.0913 -1.560629,-0.27216 -0.505856,-0.18259 -0.920989,-0.41915 -1.245402,-0.71142 l -0.449011,0.94798 c 0.34049,0.31523 0.8073,0.57189 1.403302,0.77113 0.594854,0.19809 1.212099,0.29743 1.85174,0.29743 0.720599,0 1.328083,-0.10795 1.82188,-0.32155 0.494373,-0.21474 0.862422,-0.50585 1.105302,-0.87448 0.243454,-0.36919 0.364607,-0.77572 0.364607,-1.22128 0,-0.53399 -0.139527,-0.95946 -0.41858,-1.27469 -0.280201,-0.31637 -0.613801,-0.55122 -1.002523,-0.7051 -0.388721,-0.15445 -0.903189,-0.30718 -1.542829,-0.46107 -0.493797,-0.11426 -0.884815,-0.22105 -1.171906,-0.32269 -0.287666,-0.10105 -0.528823,-0.2423 -0.722896,-0.42432 -0.194648,-0.18259 -0.291111,-0.41915 -0.291111,-0.71141 0,-0.39618 0.17168,-0.72003 0.515616,-0.97152 0.344509,-0.25034 0.860699,-0.37608 1.549145,-0.37608 0.388722,0 0.785482,0.0586 1.19028,0.1757 0.404799,0.1177 0.785482,0.28938 1.141475,0.51561 l 0.40078,-0.97094 c -0.34738,-0.24346 -0.764812,-0.42949 -1.25057,-0.55868 -0.485758,-0.12977 -0.98013,-0.19465 -1.481965,-0.19465 -0.720599,0 -1.324066,0.10967 -1.809824,0.32786 -0.486333,0.21876 -0.848642,0.51045 -1.086927,0.87505 -0.23886,0.36461 -0.35829,0.77285 -0.35829,1.22703 0,0.5426 0.138952,0.97324 0.419153,1.29249 0.279053,0.32096 0.614949,0.55753 1.00769,0.71141 0.392741,0.15446 0.908932,0.30719 1.548571,0.46107 0.510449,0.12172 0.905486,0.23082 1.184539,0.32843 0.279052,0.097 0.513893,0.23657 0.704521,0.41858 0.190055,0.18259 0.28537,0.41915 0.28537,0.71084 0,0.39676 -0.173977,0.71428 -0.522507,0.95314"
       id="path40" />
    <path
       style="fill:#002654;fill-opacity:1;fill-rule:nonzero;stroke:none;stroke-width:0.14699"
       d="m -33.894074,113.67835 h 1.202913 v -7.44543 h 2.915124 v -1.05707 l -7.032588,-4.1e-4 v 1.05764 h 2.914551 z m 0,0"
       id="path42" />
    <path
       style="fill:#002654;fill-opacity:1;fill-rule:nonzero;stroke:none;stroke-width:0.14699"
       d="m -27.310496,110.58121 1.834514,-4.16742 1.833939,4.16742 z m 2.441424,-5.40536 h -1.202337 l -3.850471,8.5025 h 1.251144 l 0.935344,-2.1262 h 4.518243 l 0.935345,2.1262 h 1.275259 z m 0,0"
       id="path44" />
    <path
       style="fill:#002654;fill-opacity:1;fill-rule:nonzero;stroke:none;stroke-width:0.14699"
       d="m -17.034351,113.67835 v -7.44543 h 2.915126 v -1.05707 h -7.032587 v 1.05707 h 2.914549 v 7.44543 z m 0,0"
       id="path46" />
    <path
       style="fill:#002654;fill-opacity:1;fill-rule:nonzero;stroke:none;stroke-width:0.14699"
       d="m -6.3815425,112.62128 h -4.9557665 v -2.74574 h 4.2633039 v -1.03181 h -4.2633039 v -2.61081 h 4.7852373 v -1.05707 H -12.55228 v 8.5025 h 6.1707375 z m 0,0"
       id="path48" />
    <path
       style="fill:#002654;fill-opacity:1;fill-rule:nonzero;stroke:none;stroke-width:0.14699"
       d="m -38.016705,122.2107 c 0,0.92271 -0.206705,1.60943 -0.619543,2.05845 -0.413411,0.44958 -1.008265,0.67409 -1.785133,0.67409 -1.595654,0 -2.393194,-0.91066 -2.393194,-2.73254 v -4.78638 h -1.21497 v 4.83461 c 0,1.2144 0.3158,2.14572 0.947975,2.7934 0.631602,0.64825 1.514119,0.97209 2.647557,0.97209 1.133437,0 2.016529,-0.32154 2.648129,-0.96577 0.631602,-0.64366 0.947402,-1.57728 0.947402,-2.79972 v -4.83461 h -1.178223 z m 0,0"
       id="path50" />
    <path
       style="fill:#002654;fill-opacity:1;fill-rule:nonzero;stroke:none;stroke-width:0.14699"
       d="m -28.008128,123.76444 -5.101613,-6.34012 h -0.996207 v 8.50249 h 1.21497 v -6.34012 l 5.101614,6.34012 h 0.995631 v -8.50249 h -1.214395 z m 0,0"
       id="path52" />
    <path
       style="fill:#002654;fill-opacity:1;fill-rule:nonzero;stroke:none;stroke-width:0.14699"
       d="m -23.999759,125.92681 h 1.21497 v -8.50249 h -1.21497 z m 0,0"
       id="path54" />
    <path
       style="fill:#002654;fill-opacity:1;fill-rule:nonzero;stroke:none;stroke-width:0.14699"
       d="m -16.990712,124.40868 -3.060968,-6.98436 h -1.312006 l 3.741372,8.50249 h 1.201766 l 3.729313,-8.50249 h -1.214395 z m 0,0"
       id="path56" />
    <path
       style="fill:#002654;fill-opacity:1;fill-rule:nonzero;stroke:none;stroke-width:0.14699"
       d="m -10.152772,122.12458 h 4.2633087 v -1.03181 h -4.2633087 v -2.61138 h 4.7858129 v -1.05707 h -6.0007839 v 8.50249 h 6.171313 v -1.05707 h -4.956342 z m 0,0"
       id="path58" />
    <path
       style="fill:#002654;fill-opacity:1;fill-rule:nonzero;stroke:none;stroke-width:0.14699"
       d="M 0.29333285,122.30716 H -1.7714298 v -3.8252 h 2.06476265 c 0.76882925,0 1.35564595,0.16307 1.76101675,0.49093 0.404225,0.32786 0.6074875,0.79926 0.6074875,1.41536 0,0.61552 -0.2032625,1.08865 -0.6074875,1.4211 -0.4053708,0.33188 -0.9921875,0.49781 -1.76101675,0.49781 m 3.09714185,-0.24345 c 0.3238375,-0.46107 0.4857583,-1.01917 0.4857583,-1.67546 0,-0.92272 -0.315225,-1.64791 -0.9468292,-2.17386 -0.632175,-0.5271 -1.4986167,-0.79007 -2.59990012,-0.79007 H -2.9863965 v 8.50249 h 1.2149667 v -2.58669 h 2.10093348 c 0.12919168,0 0.30718752,-0.009 0.5345667,-0.0241 l 1.83336262,2.6108 h 1.3246417 l -2.0159543,-2.85368 c 0.5982959,-0.21073 1.0605126,-0.5472 1.3843543,-1.00942"
       id="path60" />
    <path
       style="fill:#002654;fill-opacity:1;fill-rule:nonzero;stroke:none;stroke-width:0.14699"
       d="M 10.435694,121.62676 C 10.046969,121.47288 9.5325042,121.32015 8.8922917,121.16569 8.3984958,121.052 8.0080499,120.94463 7.7209583,120.843 7.4327166,120.74252 7.1915624,120.60127 6.9974874,120.41868 6.8028415,120.23666 6.706379,119.99952 6.706379,119.70727 c 0,-0.39562 0.1716792,-0.71945 0.5156167,-0.97095 0.3445084,-0.25034 0.8612709,-0.37609 1.5497168,-0.37609 0.3875708,0 0.7849084,0.0586 1.1902775,0.1757 0.404225,0.11771 0.784908,0.28939 1.140904,0.51562 l 0.40135,-0.97152 c -0.347954,-0.24288 -0.764808,-0.42949 -1.251141,-0.55811 -0.4863321,-0.12976 -0.979553,-0.19522 -1.4813905,-0.19522 -0.7211751,0 -1.3246376,0.11025 -1.8103959,0.32844 -0.4863334,0.21876 -0.8486459,0.50987 -1.0863543,0.87448 -0.2394333,0.3646 -0.3588667,0.77342 -0.3588667,1.22703 0,0.5426 0.1395292,0.97323 0.4191542,1.29305 0.2790542,0.3204 0.6149501,0.55753 1.0082667,0.71142 0.3927376,0.15388 0.9083543,0.30718 1.548571,0.46106 0.5098708,0.12173 0.9049084,0.23025 1.1839625,0.32787 0.2796234,0.0976 0.514465,0.23713 0.705094,0.41915 0.189484,0.18201 0.284796,0.41915 0.284796,0.71026 0,0.39734 -0.173979,0.71486 -0.523083,0.95372 -0.3473778,0.23886 -0.8733278,0.35829 -1.5784237,0.35829 -0.5345625,0 -1.0542001,-0.0913 -1.5606292,-0.27274 -0.5058542,-0.18201 -0.9204126,-0.41858 -1.2454001,-0.71141 l -0.4484375,0.94855 c 0.3393416,0.31523 0.806725,0.57188 1.402725,0.77113 0.5954292,0.19809 1.2121043,0.29742 1.8517418,0.29742 0.7205959,0 1.3286584,-0.10794 1.8218777,-0.32154 0.494371,-0.21474 0.862425,-0.50643 1.105304,-0.87505 0.242879,-0.36863 0.364604,-0.77515 0.364604,-1.22072 0,-0.53398 -0.139525,-0.95946 -0.419154,-1.27526 -0.279625,-0.3158 -0.61265,-0.55064 -1.001371,-0.70509"
       id="path62" />
    <path
       style="fill:#002654;fill-opacity:1;fill-rule:nonzero;stroke:none;stroke-width:0.14699"
       d="m 13.872174,125.92681 h 1.215545 v -8.50249 h -1.215545 z m 0,0"
       id="path64" />
    <path
       style="fill:#002654;fill-opacity:1;fill-rule:nonzero;stroke:none;stroke-width:0.14699"
       d="m 16.65409,118.48139 h 2.914551 v 7.44542 h 1.202912 v -7.44542 h 2.915125 v -1.05707 H 16.65409 Z m 0,0"
       id="path66" />
    <path
       style="fill:#002654;fill-opacity:1;fill-rule:nonzero;stroke:none;stroke-width:0.14699"
       d="m 27.85352,121.90696 -2.72105,-4.48264 h -1.29995 l 3.376767,5.53856 v 2.96451 h 1.202912 v -2.93924 l 3.376771,-5.56383 h -1.202916 z m 0,0"
       id="path68" />
    <path
       style="fill:#ff4c00;fill-opacity:1;fill-rule:nonzero;stroke:none;stroke-width:0.14699"
       d="m -16.980377,150.66776 c -14.041062,-4.54005 -33.881941,-20.36855 -33.881941,-32.89089 V 67.926903 h -3.566248 v 49.849967 c 0,15.77107 24.045044,32.45968 36.920515,36.46461 0.171106,0.0534 0.349103,0.0787 0.527674,0.0787 0.178571,0 0.356567,-0.0252 0.527674,-0.0787 9.6669396,-3.00987 25.6177322,-13.16658 32.97186,-24.71627 l -4.286275,0.0167 c -6.7167864,9.23573 -19.3832537,17.9478 -29.213259,21.1259"
       id="path70" />
    <path
       style="fill:#ff4c00;fill-opacity:1;fill-rule:nonzero;stroke:none;stroke-width:0.14699"
       d="m -23.29294,67.914845 v 3.566823 h 40.852514 v 5.62986 h 3.56625 v -9.196683 z m 0,0"
       id="path72" />
  </g>
</svg>
